G75*
%MOIN*%
%OFA0B0*%
%FSLAX25Y25*%
%IPPOS*%
%LPD*%
%AMOC8*
5,1,8,0,0,1.08239X$1,22.5*
%
%ADD10C,0.00800*%
%ADD11C,0.00000*%
D10*
X0042595Y0306900D02*
X0482595Y0306900D01*
X0482735Y0306902D01*
X0482875Y0306908D01*
X0483015Y0306918D01*
X0483155Y0306931D01*
X0483294Y0306949D01*
X0483433Y0306971D01*
X0483570Y0306996D01*
X0483708Y0307025D01*
X0483844Y0307058D01*
X0483979Y0307095D01*
X0484113Y0307136D01*
X0484246Y0307181D01*
X0484378Y0307229D01*
X0484508Y0307281D01*
X0484637Y0307336D01*
X0484764Y0307395D01*
X0484890Y0307458D01*
X0485014Y0307524D01*
X0485135Y0307593D01*
X0485255Y0307666D01*
X0485373Y0307743D01*
X0485488Y0307822D01*
X0485602Y0307905D01*
X0485712Y0307991D01*
X0485821Y0308080D01*
X0485927Y0308172D01*
X0486030Y0308267D01*
X0486131Y0308364D01*
X0486228Y0308465D01*
X0486323Y0308568D01*
X0486415Y0308674D01*
X0486504Y0308783D01*
X0486590Y0308893D01*
X0486673Y0309007D01*
X0486752Y0309122D01*
X0486829Y0309240D01*
X0486902Y0309360D01*
X0486971Y0309481D01*
X0487037Y0309605D01*
X0487100Y0309731D01*
X0487159Y0309858D01*
X0487214Y0309987D01*
X0487266Y0310117D01*
X0487314Y0310249D01*
X0487359Y0310382D01*
X0487400Y0310516D01*
X0487437Y0310651D01*
X0487470Y0310787D01*
X0487499Y0310925D01*
X0487524Y0311062D01*
X0487546Y0311201D01*
X0487564Y0311340D01*
X0487577Y0311480D01*
X0487587Y0311620D01*
X0487593Y0311760D01*
X0487595Y0311900D01*
X0487595Y0576900D01*
X0487593Y0577040D01*
X0487587Y0577180D01*
X0487577Y0577320D01*
X0487564Y0577460D01*
X0487546Y0577599D01*
X0487524Y0577738D01*
X0487499Y0577875D01*
X0487470Y0578013D01*
X0487437Y0578149D01*
X0487400Y0578284D01*
X0487359Y0578418D01*
X0487314Y0578551D01*
X0487266Y0578683D01*
X0487214Y0578813D01*
X0487159Y0578942D01*
X0487100Y0579069D01*
X0487037Y0579195D01*
X0486971Y0579319D01*
X0486902Y0579440D01*
X0486829Y0579560D01*
X0486752Y0579678D01*
X0486673Y0579793D01*
X0486590Y0579907D01*
X0486504Y0580017D01*
X0486415Y0580126D01*
X0486323Y0580232D01*
X0486228Y0580335D01*
X0486131Y0580436D01*
X0486030Y0580533D01*
X0485927Y0580628D01*
X0485821Y0580720D01*
X0485712Y0580809D01*
X0485602Y0580895D01*
X0485488Y0580978D01*
X0485373Y0581057D01*
X0485255Y0581134D01*
X0485135Y0581207D01*
X0485014Y0581276D01*
X0484890Y0581342D01*
X0484764Y0581405D01*
X0484637Y0581464D01*
X0484508Y0581519D01*
X0484378Y0581571D01*
X0484246Y0581619D01*
X0484113Y0581664D01*
X0483979Y0581705D01*
X0483844Y0581742D01*
X0483708Y0581775D01*
X0483570Y0581804D01*
X0483433Y0581829D01*
X0483294Y0581851D01*
X0483155Y0581869D01*
X0483015Y0581882D01*
X0482875Y0581892D01*
X0482735Y0581898D01*
X0482595Y0581900D01*
X0042595Y0581900D01*
X0042455Y0581898D01*
X0042315Y0581892D01*
X0042175Y0581882D01*
X0042035Y0581869D01*
X0041896Y0581851D01*
X0041757Y0581829D01*
X0041620Y0581804D01*
X0041482Y0581775D01*
X0041346Y0581742D01*
X0041211Y0581705D01*
X0041077Y0581664D01*
X0040944Y0581619D01*
X0040812Y0581571D01*
X0040682Y0581519D01*
X0040553Y0581464D01*
X0040426Y0581405D01*
X0040300Y0581342D01*
X0040176Y0581276D01*
X0040055Y0581207D01*
X0039935Y0581134D01*
X0039817Y0581057D01*
X0039702Y0580978D01*
X0039588Y0580895D01*
X0039478Y0580809D01*
X0039369Y0580720D01*
X0039263Y0580628D01*
X0039160Y0580533D01*
X0039059Y0580436D01*
X0038962Y0580335D01*
X0038867Y0580232D01*
X0038775Y0580126D01*
X0038686Y0580017D01*
X0038600Y0579907D01*
X0038517Y0579793D01*
X0038438Y0579678D01*
X0038361Y0579560D01*
X0038288Y0579440D01*
X0038219Y0579319D01*
X0038153Y0579195D01*
X0038090Y0579069D01*
X0038031Y0578942D01*
X0037976Y0578813D01*
X0037924Y0578683D01*
X0037876Y0578551D01*
X0037831Y0578418D01*
X0037790Y0578284D01*
X0037753Y0578149D01*
X0037720Y0578013D01*
X0037691Y0577875D01*
X0037666Y0577738D01*
X0037644Y0577599D01*
X0037626Y0577460D01*
X0037613Y0577320D01*
X0037603Y0577180D01*
X0037597Y0577040D01*
X0037595Y0576900D01*
X0037595Y0311900D01*
X0037597Y0311760D01*
X0037603Y0311620D01*
X0037613Y0311480D01*
X0037626Y0311340D01*
X0037644Y0311201D01*
X0037666Y0311062D01*
X0037691Y0310925D01*
X0037720Y0310787D01*
X0037753Y0310651D01*
X0037790Y0310516D01*
X0037831Y0310382D01*
X0037876Y0310249D01*
X0037924Y0310117D01*
X0037976Y0309987D01*
X0038031Y0309858D01*
X0038090Y0309731D01*
X0038153Y0309605D01*
X0038219Y0309481D01*
X0038288Y0309360D01*
X0038361Y0309240D01*
X0038438Y0309122D01*
X0038517Y0309007D01*
X0038600Y0308893D01*
X0038686Y0308783D01*
X0038775Y0308674D01*
X0038867Y0308568D01*
X0038962Y0308465D01*
X0039059Y0308364D01*
X0039160Y0308267D01*
X0039263Y0308172D01*
X0039369Y0308080D01*
X0039478Y0307991D01*
X0039588Y0307905D01*
X0039702Y0307822D01*
X0039817Y0307743D01*
X0039935Y0307666D01*
X0040055Y0307593D01*
X0040176Y0307524D01*
X0040300Y0307458D01*
X0040426Y0307395D01*
X0040553Y0307336D01*
X0040682Y0307281D01*
X0040812Y0307229D01*
X0040944Y0307181D01*
X0041077Y0307136D01*
X0041211Y0307095D01*
X0041346Y0307058D01*
X0041482Y0307025D01*
X0041620Y0306996D01*
X0041757Y0306971D01*
X0041896Y0306949D01*
X0042035Y0306931D01*
X0042175Y0306918D01*
X0042315Y0306908D01*
X0042455Y0306902D01*
X0042595Y0306900D01*
D11*
X0044436Y0325778D02*
X0044438Y0325857D01*
X0044444Y0325936D01*
X0044454Y0326015D01*
X0044468Y0326093D01*
X0044485Y0326170D01*
X0044507Y0326246D01*
X0044532Y0326321D01*
X0044562Y0326394D01*
X0044594Y0326466D01*
X0044631Y0326537D01*
X0044671Y0326605D01*
X0044714Y0326671D01*
X0044760Y0326735D01*
X0044810Y0326797D01*
X0044863Y0326856D01*
X0044918Y0326912D01*
X0044977Y0326966D01*
X0045038Y0327016D01*
X0045101Y0327064D01*
X0045167Y0327108D01*
X0045235Y0327149D01*
X0045305Y0327186D01*
X0045376Y0327220D01*
X0045450Y0327250D01*
X0045524Y0327276D01*
X0045600Y0327298D01*
X0045677Y0327317D01*
X0045755Y0327332D01*
X0045833Y0327343D01*
X0045912Y0327350D01*
X0045991Y0327353D01*
X0046070Y0327352D01*
X0046149Y0327347D01*
X0046228Y0327338D01*
X0046306Y0327325D01*
X0046383Y0327308D01*
X0046460Y0327288D01*
X0046535Y0327263D01*
X0046609Y0327235D01*
X0046682Y0327203D01*
X0046752Y0327168D01*
X0046821Y0327129D01*
X0046888Y0327086D01*
X0046953Y0327040D01*
X0047015Y0326992D01*
X0047075Y0326940D01*
X0047132Y0326885D01*
X0047186Y0326827D01*
X0047237Y0326767D01*
X0047285Y0326704D01*
X0047330Y0326639D01*
X0047372Y0326571D01*
X0047410Y0326502D01*
X0047444Y0326431D01*
X0047475Y0326358D01*
X0047503Y0326283D01*
X0047526Y0326208D01*
X0047546Y0326131D01*
X0047562Y0326054D01*
X0047574Y0325975D01*
X0047582Y0325897D01*
X0047586Y0325818D01*
X0047586Y0325738D01*
X0047582Y0325659D01*
X0047574Y0325581D01*
X0047562Y0325502D01*
X0047546Y0325425D01*
X0047526Y0325348D01*
X0047503Y0325273D01*
X0047475Y0325198D01*
X0047444Y0325125D01*
X0047410Y0325054D01*
X0047372Y0324985D01*
X0047330Y0324917D01*
X0047285Y0324852D01*
X0047237Y0324789D01*
X0047186Y0324729D01*
X0047132Y0324671D01*
X0047075Y0324616D01*
X0047015Y0324564D01*
X0046953Y0324516D01*
X0046888Y0324470D01*
X0046821Y0324427D01*
X0046752Y0324388D01*
X0046682Y0324353D01*
X0046609Y0324321D01*
X0046535Y0324293D01*
X0046460Y0324268D01*
X0046383Y0324248D01*
X0046306Y0324231D01*
X0046228Y0324218D01*
X0046149Y0324209D01*
X0046070Y0324204D01*
X0045991Y0324203D01*
X0045912Y0324206D01*
X0045833Y0324213D01*
X0045755Y0324224D01*
X0045677Y0324239D01*
X0045600Y0324258D01*
X0045524Y0324280D01*
X0045450Y0324306D01*
X0045376Y0324336D01*
X0045305Y0324370D01*
X0045235Y0324407D01*
X0045167Y0324448D01*
X0045101Y0324492D01*
X0045038Y0324540D01*
X0044977Y0324590D01*
X0044918Y0324644D01*
X0044863Y0324700D01*
X0044810Y0324759D01*
X0044760Y0324821D01*
X0044714Y0324885D01*
X0044671Y0324951D01*
X0044631Y0325019D01*
X0044594Y0325090D01*
X0044562Y0325162D01*
X0044532Y0325235D01*
X0044507Y0325310D01*
X0044485Y0325386D01*
X0044468Y0325463D01*
X0044454Y0325541D01*
X0044444Y0325620D01*
X0044438Y0325699D01*
X0044436Y0325778D01*
X0068649Y0349991D02*
X0068651Y0350070D01*
X0068657Y0350149D01*
X0068667Y0350228D01*
X0068681Y0350306D01*
X0068698Y0350383D01*
X0068720Y0350459D01*
X0068745Y0350534D01*
X0068775Y0350607D01*
X0068807Y0350679D01*
X0068844Y0350750D01*
X0068884Y0350818D01*
X0068927Y0350884D01*
X0068973Y0350948D01*
X0069023Y0351010D01*
X0069076Y0351069D01*
X0069131Y0351125D01*
X0069190Y0351179D01*
X0069251Y0351229D01*
X0069314Y0351277D01*
X0069380Y0351321D01*
X0069448Y0351362D01*
X0069518Y0351399D01*
X0069589Y0351433D01*
X0069663Y0351463D01*
X0069737Y0351489D01*
X0069813Y0351511D01*
X0069890Y0351530D01*
X0069968Y0351545D01*
X0070046Y0351556D01*
X0070125Y0351563D01*
X0070204Y0351566D01*
X0070283Y0351565D01*
X0070362Y0351560D01*
X0070441Y0351551D01*
X0070519Y0351538D01*
X0070596Y0351521D01*
X0070673Y0351501D01*
X0070748Y0351476D01*
X0070822Y0351448D01*
X0070895Y0351416D01*
X0070965Y0351381D01*
X0071034Y0351342D01*
X0071101Y0351299D01*
X0071166Y0351253D01*
X0071228Y0351205D01*
X0071288Y0351153D01*
X0071345Y0351098D01*
X0071399Y0351040D01*
X0071450Y0350980D01*
X0071498Y0350917D01*
X0071543Y0350852D01*
X0071585Y0350784D01*
X0071623Y0350715D01*
X0071657Y0350644D01*
X0071688Y0350571D01*
X0071716Y0350496D01*
X0071739Y0350421D01*
X0071759Y0350344D01*
X0071775Y0350267D01*
X0071787Y0350188D01*
X0071795Y0350110D01*
X0071799Y0350031D01*
X0071799Y0349951D01*
X0071795Y0349872D01*
X0071787Y0349794D01*
X0071775Y0349715D01*
X0071759Y0349638D01*
X0071739Y0349561D01*
X0071716Y0349486D01*
X0071688Y0349411D01*
X0071657Y0349338D01*
X0071623Y0349267D01*
X0071585Y0349198D01*
X0071543Y0349130D01*
X0071498Y0349065D01*
X0071450Y0349002D01*
X0071399Y0348942D01*
X0071345Y0348884D01*
X0071288Y0348829D01*
X0071228Y0348777D01*
X0071166Y0348729D01*
X0071101Y0348683D01*
X0071034Y0348640D01*
X0070965Y0348601D01*
X0070895Y0348566D01*
X0070822Y0348534D01*
X0070748Y0348506D01*
X0070673Y0348481D01*
X0070596Y0348461D01*
X0070519Y0348444D01*
X0070441Y0348431D01*
X0070362Y0348422D01*
X0070283Y0348417D01*
X0070204Y0348416D01*
X0070125Y0348419D01*
X0070046Y0348426D01*
X0069968Y0348437D01*
X0069890Y0348452D01*
X0069813Y0348471D01*
X0069737Y0348493D01*
X0069663Y0348519D01*
X0069589Y0348549D01*
X0069518Y0348583D01*
X0069448Y0348620D01*
X0069380Y0348661D01*
X0069314Y0348705D01*
X0069251Y0348753D01*
X0069190Y0348803D01*
X0069131Y0348857D01*
X0069076Y0348913D01*
X0069023Y0348972D01*
X0068973Y0349034D01*
X0068927Y0349098D01*
X0068884Y0349164D01*
X0068844Y0349232D01*
X0068807Y0349303D01*
X0068775Y0349375D01*
X0068745Y0349448D01*
X0068720Y0349523D01*
X0068698Y0349599D01*
X0068681Y0349676D01*
X0068667Y0349754D01*
X0068657Y0349833D01*
X0068651Y0349912D01*
X0068649Y0349991D01*
X0100943Y0330542D02*
X0100945Y0330623D01*
X0100951Y0330705D01*
X0100961Y0330786D01*
X0100975Y0330866D01*
X0100992Y0330945D01*
X0101014Y0331024D01*
X0101039Y0331101D01*
X0101068Y0331178D01*
X0101101Y0331252D01*
X0101138Y0331325D01*
X0101177Y0331396D01*
X0101221Y0331465D01*
X0101267Y0331532D01*
X0101317Y0331596D01*
X0101370Y0331658D01*
X0101426Y0331718D01*
X0101484Y0331774D01*
X0101546Y0331828D01*
X0101610Y0331879D01*
X0101676Y0331926D01*
X0101744Y0331970D01*
X0101815Y0332011D01*
X0101887Y0332048D01*
X0101962Y0332082D01*
X0102037Y0332112D01*
X0102115Y0332138D01*
X0102193Y0332161D01*
X0102272Y0332179D01*
X0102352Y0332194D01*
X0102433Y0332205D01*
X0102514Y0332212D01*
X0102596Y0332215D01*
X0102677Y0332214D01*
X0102758Y0332209D01*
X0102839Y0332200D01*
X0102920Y0332187D01*
X0103000Y0332170D01*
X0103078Y0332150D01*
X0103156Y0332125D01*
X0103233Y0332097D01*
X0103308Y0332065D01*
X0103381Y0332030D01*
X0103452Y0331991D01*
X0103522Y0331948D01*
X0103589Y0331903D01*
X0103655Y0331854D01*
X0103717Y0331802D01*
X0103777Y0331746D01*
X0103834Y0331688D01*
X0103889Y0331628D01*
X0103940Y0331564D01*
X0103988Y0331499D01*
X0104033Y0331431D01*
X0104075Y0331361D01*
X0104113Y0331289D01*
X0104148Y0331215D01*
X0104179Y0331140D01*
X0104206Y0331063D01*
X0104229Y0330985D01*
X0104249Y0330906D01*
X0104265Y0330826D01*
X0104277Y0330745D01*
X0104285Y0330664D01*
X0104289Y0330583D01*
X0104289Y0330501D01*
X0104285Y0330420D01*
X0104277Y0330339D01*
X0104265Y0330258D01*
X0104249Y0330178D01*
X0104229Y0330099D01*
X0104206Y0330021D01*
X0104179Y0329944D01*
X0104148Y0329869D01*
X0104113Y0329795D01*
X0104075Y0329723D01*
X0104033Y0329653D01*
X0103988Y0329585D01*
X0103940Y0329520D01*
X0103889Y0329456D01*
X0103834Y0329396D01*
X0103777Y0329338D01*
X0103717Y0329282D01*
X0103655Y0329230D01*
X0103589Y0329181D01*
X0103522Y0329136D01*
X0103453Y0329093D01*
X0103381Y0329054D01*
X0103308Y0329019D01*
X0103233Y0328987D01*
X0103156Y0328959D01*
X0103078Y0328934D01*
X0103000Y0328914D01*
X0102920Y0328897D01*
X0102839Y0328884D01*
X0102758Y0328875D01*
X0102677Y0328870D01*
X0102596Y0328869D01*
X0102514Y0328872D01*
X0102433Y0328879D01*
X0102352Y0328890D01*
X0102272Y0328905D01*
X0102193Y0328923D01*
X0102115Y0328946D01*
X0102037Y0328972D01*
X0101962Y0329002D01*
X0101887Y0329036D01*
X0101815Y0329073D01*
X0101744Y0329114D01*
X0101676Y0329158D01*
X0101610Y0329205D01*
X0101546Y0329256D01*
X0101484Y0329310D01*
X0101426Y0329366D01*
X0101370Y0329426D01*
X0101317Y0329488D01*
X0101267Y0329552D01*
X0101221Y0329619D01*
X0101177Y0329688D01*
X0101138Y0329759D01*
X0101101Y0329832D01*
X0101068Y0329906D01*
X0101039Y0329983D01*
X0101014Y0330060D01*
X0100992Y0330139D01*
X0100975Y0330218D01*
X0100961Y0330298D01*
X0100951Y0330379D01*
X0100945Y0330461D01*
X0100943Y0330542D01*
X0100943Y0318731D02*
X0100945Y0318812D01*
X0100951Y0318894D01*
X0100961Y0318975D01*
X0100975Y0319055D01*
X0100992Y0319134D01*
X0101014Y0319213D01*
X0101039Y0319290D01*
X0101068Y0319367D01*
X0101101Y0319441D01*
X0101138Y0319514D01*
X0101177Y0319585D01*
X0101221Y0319654D01*
X0101267Y0319721D01*
X0101317Y0319785D01*
X0101370Y0319847D01*
X0101426Y0319907D01*
X0101484Y0319963D01*
X0101546Y0320017D01*
X0101610Y0320068D01*
X0101676Y0320115D01*
X0101744Y0320159D01*
X0101815Y0320200D01*
X0101887Y0320237D01*
X0101962Y0320271D01*
X0102037Y0320301D01*
X0102115Y0320327D01*
X0102193Y0320350D01*
X0102272Y0320368D01*
X0102352Y0320383D01*
X0102433Y0320394D01*
X0102514Y0320401D01*
X0102596Y0320404D01*
X0102677Y0320403D01*
X0102758Y0320398D01*
X0102839Y0320389D01*
X0102920Y0320376D01*
X0103000Y0320359D01*
X0103078Y0320339D01*
X0103156Y0320314D01*
X0103233Y0320286D01*
X0103308Y0320254D01*
X0103381Y0320219D01*
X0103452Y0320180D01*
X0103522Y0320137D01*
X0103589Y0320092D01*
X0103655Y0320043D01*
X0103717Y0319991D01*
X0103777Y0319935D01*
X0103834Y0319877D01*
X0103889Y0319817D01*
X0103940Y0319753D01*
X0103988Y0319688D01*
X0104033Y0319620D01*
X0104075Y0319550D01*
X0104113Y0319478D01*
X0104148Y0319404D01*
X0104179Y0319329D01*
X0104206Y0319252D01*
X0104229Y0319174D01*
X0104249Y0319095D01*
X0104265Y0319015D01*
X0104277Y0318934D01*
X0104285Y0318853D01*
X0104289Y0318772D01*
X0104289Y0318690D01*
X0104285Y0318609D01*
X0104277Y0318528D01*
X0104265Y0318447D01*
X0104249Y0318367D01*
X0104229Y0318288D01*
X0104206Y0318210D01*
X0104179Y0318133D01*
X0104148Y0318058D01*
X0104113Y0317984D01*
X0104075Y0317912D01*
X0104033Y0317842D01*
X0103988Y0317774D01*
X0103940Y0317709D01*
X0103889Y0317645D01*
X0103834Y0317585D01*
X0103777Y0317527D01*
X0103717Y0317471D01*
X0103655Y0317419D01*
X0103589Y0317370D01*
X0103522Y0317325D01*
X0103453Y0317282D01*
X0103381Y0317243D01*
X0103308Y0317208D01*
X0103233Y0317176D01*
X0103156Y0317148D01*
X0103078Y0317123D01*
X0103000Y0317103D01*
X0102920Y0317086D01*
X0102839Y0317073D01*
X0102758Y0317064D01*
X0102677Y0317059D01*
X0102596Y0317058D01*
X0102514Y0317061D01*
X0102433Y0317068D01*
X0102352Y0317079D01*
X0102272Y0317094D01*
X0102193Y0317112D01*
X0102115Y0317135D01*
X0102037Y0317161D01*
X0101962Y0317191D01*
X0101887Y0317225D01*
X0101815Y0317262D01*
X0101744Y0317303D01*
X0101676Y0317347D01*
X0101610Y0317394D01*
X0101546Y0317445D01*
X0101484Y0317499D01*
X0101426Y0317555D01*
X0101370Y0317615D01*
X0101317Y0317677D01*
X0101267Y0317741D01*
X0101221Y0317808D01*
X0101177Y0317877D01*
X0101138Y0317948D01*
X0101101Y0318021D01*
X0101068Y0318095D01*
X0101039Y0318172D01*
X0101014Y0318249D01*
X0100992Y0318328D01*
X0100975Y0318407D01*
X0100961Y0318487D01*
X0100951Y0318568D01*
X0100945Y0318650D01*
X0100943Y0318731D01*
X0041095Y0571900D02*
X0041097Y0572061D01*
X0041103Y0572221D01*
X0041113Y0572382D01*
X0041127Y0572542D01*
X0041145Y0572702D01*
X0041166Y0572861D01*
X0041192Y0573020D01*
X0041222Y0573178D01*
X0041255Y0573335D01*
X0041293Y0573492D01*
X0041334Y0573647D01*
X0041379Y0573801D01*
X0041428Y0573954D01*
X0041481Y0574106D01*
X0041537Y0574257D01*
X0041598Y0574406D01*
X0041661Y0574554D01*
X0041729Y0574700D01*
X0041800Y0574844D01*
X0041874Y0574986D01*
X0041952Y0575127D01*
X0042034Y0575265D01*
X0042119Y0575402D01*
X0042207Y0575536D01*
X0042299Y0575668D01*
X0042394Y0575798D01*
X0042492Y0575926D01*
X0042593Y0576051D01*
X0042697Y0576173D01*
X0042804Y0576293D01*
X0042914Y0576410D01*
X0043027Y0576525D01*
X0043143Y0576636D01*
X0043262Y0576745D01*
X0043383Y0576850D01*
X0043507Y0576953D01*
X0043633Y0577053D01*
X0043761Y0577149D01*
X0043892Y0577242D01*
X0044026Y0577332D01*
X0044161Y0577419D01*
X0044299Y0577502D01*
X0044438Y0577582D01*
X0044580Y0577658D01*
X0044723Y0577731D01*
X0044868Y0577800D01*
X0045015Y0577866D01*
X0045163Y0577928D01*
X0045313Y0577986D01*
X0045464Y0578041D01*
X0045617Y0578092D01*
X0045771Y0578139D01*
X0045926Y0578182D01*
X0046082Y0578221D01*
X0046238Y0578257D01*
X0046396Y0578288D01*
X0046554Y0578316D01*
X0046713Y0578340D01*
X0046873Y0578360D01*
X0047033Y0578376D01*
X0047193Y0578388D01*
X0047354Y0578396D01*
X0047515Y0578400D01*
X0047675Y0578400D01*
X0047836Y0578396D01*
X0047997Y0578388D01*
X0048157Y0578376D01*
X0048317Y0578360D01*
X0048477Y0578340D01*
X0048636Y0578316D01*
X0048794Y0578288D01*
X0048952Y0578257D01*
X0049108Y0578221D01*
X0049264Y0578182D01*
X0049419Y0578139D01*
X0049573Y0578092D01*
X0049726Y0578041D01*
X0049877Y0577986D01*
X0050027Y0577928D01*
X0050175Y0577866D01*
X0050322Y0577800D01*
X0050467Y0577731D01*
X0050610Y0577658D01*
X0050752Y0577582D01*
X0050891Y0577502D01*
X0051029Y0577419D01*
X0051164Y0577332D01*
X0051298Y0577242D01*
X0051429Y0577149D01*
X0051557Y0577053D01*
X0051683Y0576953D01*
X0051807Y0576850D01*
X0051928Y0576745D01*
X0052047Y0576636D01*
X0052163Y0576525D01*
X0052276Y0576410D01*
X0052386Y0576293D01*
X0052493Y0576173D01*
X0052597Y0576051D01*
X0052698Y0575926D01*
X0052796Y0575798D01*
X0052891Y0575668D01*
X0052983Y0575536D01*
X0053071Y0575402D01*
X0053156Y0575265D01*
X0053238Y0575127D01*
X0053316Y0574986D01*
X0053390Y0574844D01*
X0053461Y0574700D01*
X0053529Y0574554D01*
X0053592Y0574406D01*
X0053653Y0574257D01*
X0053709Y0574106D01*
X0053762Y0573954D01*
X0053811Y0573801D01*
X0053856Y0573647D01*
X0053897Y0573492D01*
X0053935Y0573335D01*
X0053968Y0573178D01*
X0053998Y0573020D01*
X0054024Y0572861D01*
X0054045Y0572702D01*
X0054063Y0572542D01*
X0054077Y0572382D01*
X0054087Y0572221D01*
X0054093Y0572061D01*
X0054095Y0571900D01*
X0054093Y0571739D01*
X0054087Y0571579D01*
X0054077Y0571418D01*
X0054063Y0571258D01*
X0054045Y0571098D01*
X0054024Y0570939D01*
X0053998Y0570780D01*
X0053968Y0570622D01*
X0053935Y0570465D01*
X0053897Y0570308D01*
X0053856Y0570153D01*
X0053811Y0569999D01*
X0053762Y0569846D01*
X0053709Y0569694D01*
X0053653Y0569543D01*
X0053592Y0569394D01*
X0053529Y0569246D01*
X0053461Y0569100D01*
X0053390Y0568956D01*
X0053316Y0568814D01*
X0053238Y0568673D01*
X0053156Y0568535D01*
X0053071Y0568398D01*
X0052983Y0568264D01*
X0052891Y0568132D01*
X0052796Y0568002D01*
X0052698Y0567874D01*
X0052597Y0567749D01*
X0052493Y0567627D01*
X0052386Y0567507D01*
X0052276Y0567390D01*
X0052163Y0567275D01*
X0052047Y0567164D01*
X0051928Y0567055D01*
X0051807Y0566950D01*
X0051683Y0566847D01*
X0051557Y0566747D01*
X0051429Y0566651D01*
X0051298Y0566558D01*
X0051164Y0566468D01*
X0051029Y0566381D01*
X0050891Y0566298D01*
X0050752Y0566218D01*
X0050610Y0566142D01*
X0050467Y0566069D01*
X0050322Y0566000D01*
X0050175Y0565934D01*
X0050027Y0565872D01*
X0049877Y0565814D01*
X0049726Y0565759D01*
X0049573Y0565708D01*
X0049419Y0565661D01*
X0049264Y0565618D01*
X0049108Y0565579D01*
X0048952Y0565543D01*
X0048794Y0565512D01*
X0048636Y0565484D01*
X0048477Y0565460D01*
X0048317Y0565440D01*
X0048157Y0565424D01*
X0047997Y0565412D01*
X0047836Y0565404D01*
X0047675Y0565400D01*
X0047515Y0565400D01*
X0047354Y0565404D01*
X0047193Y0565412D01*
X0047033Y0565424D01*
X0046873Y0565440D01*
X0046713Y0565460D01*
X0046554Y0565484D01*
X0046396Y0565512D01*
X0046238Y0565543D01*
X0046082Y0565579D01*
X0045926Y0565618D01*
X0045771Y0565661D01*
X0045617Y0565708D01*
X0045464Y0565759D01*
X0045313Y0565814D01*
X0045163Y0565872D01*
X0045015Y0565934D01*
X0044868Y0566000D01*
X0044723Y0566069D01*
X0044580Y0566142D01*
X0044438Y0566218D01*
X0044299Y0566298D01*
X0044161Y0566381D01*
X0044026Y0566468D01*
X0043892Y0566558D01*
X0043761Y0566651D01*
X0043633Y0566747D01*
X0043507Y0566847D01*
X0043383Y0566950D01*
X0043262Y0567055D01*
X0043143Y0567164D01*
X0043027Y0567275D01*
X0042914Y0567390D01*
X0042804Y0567507D01*
X0042697Y0567627D01*
X0042593Y0567749D01*
X0042492Y0567874D01*
X0042394Y0568002D01*
X0042299Y0568132D01*
X0042207Y0568264D01*
X0042119Y0568398D01*
X0042034Y0568535D01*
X0041952Y0568673D01*
X0041874Y0568814D01*
X0041800Y0568956D01*
X0041729Y0569100D01*
X0041661Y0569246D01*
X0041598Y0569394D01*
X0041537Y0569543D01*
X0041481Y0569694D01*
X0041428Y0569846D01*
X0041379Y0569999D01*
X0041334Y0570153D01*
X0041293Y0570308D01*
X0041255Y0570465D01*
X0041222Y0570622D01*
X0041192Y0570780D01*
X0041166Y0570939D01*
X0041145Y0571098D01*
X0041127Y0571258D01*
X0041113Y0571418D01*
X0041103Y0571579D01*
X0041097Y0571739D01*
X0041095Y0571900D01*
X0393767Y0486900D02*
X0393769Y0486981D01*
X0393775Y0487063D01*
X0393785Y0487144D01*
X0393799Y0487224D01*
X0393816Y0487303D01*
X0393838Y0487382D01*
X0393863Y0487459D01*
X0393892Y0487536D01*
X0393925Y0487610D01*
X0393962Y0487683D01*
X0394001Y0487754D01*
X0394045Y0487823D01*
X0394091Y0487890D01*
X0394141Y0487954D01*
X0394194Y0488016D01*
X0394250Y0488076D01*
X0394308Y0488132D01*
X0394370Y0488186D01*
X0394434Y0488237D01*
X0394500Y0488284D01*
X0394568Y0488328D01*
X0394639Y0488369D01*
X0394711Y0488406D01*
X0394786Y0488440D01*
X0394861Y0488470D01*
X0394939Y0488496D01*
X0395017Y0488519D01*
X0395096Y0488537D01*
X0395176Y0488552D01*
X0395257Y0488563D01*
X0395338Y0488570D01*
X0395420Y0488573D01*
X0395501Y0488572D01*
X0395582Y0488567D01*
X0395663Y0488558D01*
X0395744Y0488545D01*
X0395824Y0488528D01*
X0395902Y0488508D01*
X0395980Y0488483D01*
X0396057Y0488455D01*
X0396132Y0488423D01*
X0396205Y0488388D01*
X0396276Y0488349D01*
X0396346Y0488306D01*
X0396413Y0488261D01*
X0396479Y0488212D01*
X0396541Y0488160D01*
X0396601Y0488104D01*
X0396658Y0488046D01*
X0396713Y0487986D01*
X0396764Y0487922D01*
X0396812Y0487857D01*
X0396857Y0487789D01*
X0396899Y0487719D01*
X0396937Y0487647D01*
X0396972Y0487573D01*
X0397003Y0487498D01*
X0397030Y0487421D01*
X0397053Y0487343D01*
X0397073Y0487264D01*
X0397089Y0487184D01*
X0397101Y0487103D01*
X0397109Y0487022D01*
X0397113Y0486941D01*
X0397113Y0486859D01*
X0397109Y0486778D01*
X0397101Y0486697D01*
X0397089Y0486616D01*
X0397073Y0486536D01*
X0397053Y0486457D01*
X0397030Y0486379D01*
X0397003Y0486302D01*
X0396972Y0486227D01*
X0396937Y0486153D01*
X0396899Y0486081D01*
X0396857Y0486011D01*
X0396812Y0485943D01*
X0396764Y0485878D01*
X0396713Y0485814D01*
X0396658Y0485754D01*
X0396601Y0485696D01*
X0396541Y0485640D01*
X0396479Y0485588D01*
X0396413Y0485539D01*
X0396346Y0485494D01*
X0396277Y0485451D01*
X0396205Y0485412D01*
X0396132Y0485377D01*
X0396057Y0485345D01*
X0395980Y0485317D01*
X0395902Y0485292D01*
X0395824Y0485272D01*
X0395744Y0485255D01*
X0395663Y0485242D01*
X0395582Y0485233D01*
X0395501Y0485228D01*
X0395420Y0485227D01*
X0395338Y0485230D01*
X0395257Y0485237D01*
X0395176Y0485248D01*
X0395096Y0485263D01*
X0395017Y0485281D01*
X0394939Y0485304D01*
X0394861Y0485330D01*
X0394786Y0485360D01*
X0394711Y0485394D01*
X0394639Y0485431D01*
X0394568Y0485472D01*
X0394500Y0485516D01*
X0394434Y0485563D01*
X0394370Y0485614D01*
X0394308Y0485668D01*
X0394250Y0485724D01*
X0394194Y0485784D01*
X0394141Y0485846D01*
X0394091Y0485910D01*
X0394045Y0485977D01*
X0394001Y0486046D01*
X0393962Y0486117D01*
X0393925Y0486190D01*
X0393892Y0486264D01*
X0393863Y0486341D01*
X0393838Y0486418D01*
X0393816Y0486497D01*
X0393799Y0486576D01*
X0393785Y0486656D01*
X0393775Y0486737D01*
X0393769Y0486819D01*
X0393767Y0486900D01*
X0405578Y0486900D02*
X0405580Y0486981D01*
X0405586Y0487063D01*
X0405596Y0487144D01*
X0405610Y0487224D01*
X0405627Y0487303D01*
X0405649Y0487382D01*
X0405674Y0487459D01*
X0405703Y0487536D01*
X0405736Y0487610D01*
X0405773Y0487683D01*
X0405812Y0487754D01*
X0405856Y0487823D01*
X0405902Y0487890D01*
X0405952Y0487954D01*
X0406005Y0488016D01*
X0406061Y0488076D01*
X0406119Y0488132D01*
X0406181Y0488186D01*
X0406245Y0488237D01*
X0406311Y0488284D01*
X0406379Y0488328D01*
X0406450Y0488369D01*
X0406522Y0488406D01*
X0406597Y0488440D01*
X0406672Y0488470D01*
X0406750Y0488496D01*
X0406828Y0488519D01*
X0406907Y0488537D01*
X0406987Y0488552D01*
X0407068Y0488563D01*
X0407149Y0488570D01*
X0407231Y0488573D01*
X0407312Y0488572D01*
X0407393Y0488567D01*
X0407474Y0488558D01*
X0407555Y0488545D01*
X0407635Y0488528D01*
X0407713Y0488508D01*
X0407791Y0488483D01*
X0407868Y0488455D01*
X0407943Y0488423D01*
X0408016Y0488388D01*
X0408087Y0488349D01*
X0408157Y0488306D01*
X0408224Y0488261D01*
X0408290Y0488212D01*
X0408352Y0488160D01*
X0408412Y0488104D01*
X0408469Y0488046D01*
X0408524Y0487986D01*
X0408575Y0487922D01*
X0408623Y0487857D01*
X0408668Y0487789D01*
X0408710Y0487719D01*
X0408748Y0487647D01*
X0408783Y0487573D01*
X0408814Y0487498D01*
X0408841Y0487421D01*
X0408864Y0487343D01*
X0408884Y0487264D01*
X0408900Y0487184D01*
X0408912Y0487103D01*
X0408920Y0487022D01*
X0408924Y0486941D01*
X0408924Y0486859D01*
X0408920Y0486778D01*
X0408912Y0486697D01*
X0408900Y0486616D01*
X0408884Y0486536D01*
X0408864Y0486457D01*
X0408841Y0486379D01*
X0408814Y0486302D01*
X0408783Y0486227D01*
X0408748Y0486153D01*
X0408710Y0486081D01*
X0408668Y0486011D01*
X0408623Y0485943D01*
X0408575Y0485878D01*
X0408524Y0485814D01*
X0408469Y0485754D01*
X0408412Y0485696D01*
X0408352Y0485640D01*
X0408290Y0485588D01*
X0408224Y0485539D01*
X0408157Y0485494D01*
X0408088Y0485451D01*
X0408016Y0485412D01*
X0407943Y0485377D01*
X0407868Y0485345D01*
X0407791Y0485317D01*
X0407713Y0485292D01*
X0407635Y0485272D01*
X0407555Y0485255D01*
X0407474Y0485242D01*
X0407393Y0485233D01*
X0407312Y0485228D01*
X0407231Y0485227D01*
X0407149Y0485230D01*
X0407068Y0485237D01*
X0406987Y0485248D01*
X0406907Y0485263D01*
X0406828Y0485281D01*
X0406750Y0485304D01*
X0406672Y0485330D01*
X0406597Y0485360D01*
X0406522Y0485394D01*
X0406450Y0485431D01*
X0406379Y0485472D01*
X0406311Y0485516D01*
X0406245Y0485563D01*
X0406181Y0485614D01*
X0406119Y0485668D01*
X0406061Y0485724D01*
X0406005Y0485784D01*
X0405952Y0485846D01*
X0405902Y0485910D01*
X0405856Y0485977D01*
X0405812Y0486046D01*
X0405773Y0486117D01*
X0405736Y0486190D01*
X0405703Y0486264D01*
X0405674Y0486341D01*
X0405649Y0486418D01*
X0405627Y0486497D01*
X0405610Y0486576D01*
X0405596Y0486656D01*
X0405586Y0486737D01*
X0405580Y0486819D01*
X0405578Y0486900D01*
X0471095Y0571900D02*
X0471097Y0572061D01*
X0471103Y0572221D01*
X0471113Y0572382D01*
X0471127Y0572542D01*
X0471145Y0572702D01*
X0471166Y0572861D01*
X0471192Y0573020D01*
X0471222Y0573178D01*
X0471255Y0573335D01*
X0471293Y0573492D01*
X0471334Y0573647D01*
X0471379Y0573801D01*
X0471428Y0573954D01*
X0471481Y0574106D01*
X0471537Y0574257D01*
X0471598Y0574406D01*
X0471661Y0574554D01*
X0471729Y0574700D01*
X0471800Y0574844D01*
X0471874Y0574986D01*
X0471952Y0575127D01*
X0472034Y0575265D01*
X0472119Y0575402D01*
X0472207Y0575536D01*
X0472299Y0575668D01*
X0472394Y0575798D01*
X0472492Y0575926D01*
X0472593Y0576051D01*
X0472697Y0576173D01*
X0472804Y0576293D01*
X0472914Y0576410D01*
X0473027Y0576525D01*
X0473143Y0576636D01*
X0473262Y0576745D01*
X0473383Y0576850D01*
X0473507Y0576953D01*
X0473633Y0577053D01*
X0473761Y0577149D01*
X0473892Y0577242D01*
X0474026Y0577332D01*
X0474161Y0577419D01*
X0474299Y0577502D01*
X0474438Y0577582D01*
X0474580Y0577658D01*
X0474723Y0577731D01*
X0474868Y0577800D01*
X0475015Y0577866D01*
X0475163Y0577928D01*
X0475313Y0577986D01*
X0475464Y0578041D01*
X0475617Y0578092D01*
X0475771Y0578139D01*
X0475926Y0578182D01*
X0476082Y0578221D01*
X0476238Y0578257D01*
X0476396Y0578288D01*
X0476554Y0578316D01*
X0476713Y0578340D01*
X0476873Y0578360D01*
X0477033Y0578376D01*
X0477193Y0578388D01*
X0477354Y0578396D01*
X0477515Y0578400D01*
X0477675Y0578400D01*
X0477836Y0578396D01*
X0477997Y0578388D01*
X0478157Y0578376D01*
X0478317Y0578360D01*
X0478477Y0578340D01*
X0478636Y0578316D01*
X0478794Y0578288D01*
X0478952Y0578257D01*
X0479108Y0578221D01*
X0479264Y0578182D01*
X0479419Y0578139D01*
X0479573Y0578092D01*
X0479726Y0578041D01*
X0479877Y0577986D01*
X0480027Y0577928D01*
X0480175Y0577866D01*
X0480322Y0577800D01*
X0480467Y0577731D01*
X0480610Y0577658D01*
X0480752Y0577582D01*
X0480891Y0577502D01*
X0481029Y0577419D01*
X0481164Y0577332D01*
X0481298Y0577242D01*
X0481429Y0577149D01*
X0481557Y0577053D01*
X0481683Y0576953D01*
X0481807Y0576850D01*
X0481928Y0576745D01*
X0482047Y0576636D01*
X0482163Y0576525D01*
X0482276Y0576410D01*
X0482386Y0576293D01*
X0482493Y0576173D01*
X0482597Y0576051D01*
X0482698Y0575926D01*
X0482796Y0575798D01*
X0482891Y0575668D01*
X0482983Y0575536D01*
X0483071Y0575402D01*
X0483156Y0575265D01*
X0483238Y0575127D01*
X0483316Y0574986D01*
X0483390Y0574844D01*
X0483461Y0574700D01*
X0483529Y0574554D01*
X0483592Y0574406D01*
X0483653Y0574257D01*
X0483709Y0574106D01*
X0483762Y0573954D01*
X0483811Y0573801D01*
X0483856Y0573647D01*
X0483897Y0573492D01*
X0483935Y0573335D01*
X0483968Y0573178D01*
X0483998Y0573020D01*
X0484024Y0572861D01*
X0484045Y0572702D01*
X0484063Y0572542D01*
X0484077Y0572382D01*
X0484087Y0572221D01*
X0484093Y0572061D01*
X0484095Y0571900D01*
X0484093Y0571739D01*
X0484087Y0571579D01*
X0484077Y0571418D01*
X0484063Y0571258D01*
X0484045Y0571098D01*
X0484024Y0570939D01*
X0483998Y0570780D01*
X0483968Y0570622D01*
X0483935Y0570465D01*
X0483897Y0570308D01*
X0483856Y0570153D01*
X0483811Y0569999D01*
X0483762Y0569846D01*
X0483709Y0569694D01*
X0483653Y0569543D01*
X0483592Y0569394D01*
X0483529Y0569246D01*
X0483461Y0569100D01*
X0483390Y0568956D01*
X0483316Y0568814D01*
X0483238Y0568673D01*
X0483156Y0568535D01*
X0483071Y0568398D01*
X0482983Y0568264D01*
X0482891Y0568132D01*
X0482796Y0568002D01*
X0482698Y0567874D01*
X0482597Y0567749D01*
X0482493Y0567627D01*
X0482386Y0567507D01*
X0482276Y0567390D01*
X0482163Y0567275D01*
X0482047Y0567164D01*
X0481928Y0567055D01*
X0481807Y0566950D01*
X0481683Y0566847D01*
X0481557Y0566747D01*
X0481429Y0566651D01*
X0481298Y0566558D01*
X0481164Y0566468D01*
X0481029Y0566381D01*
X0480891Y0566298D01*
X0480752Y0566218D01*
X0480610Y0566142D01*
X0480467Y0566069D01*
X0480322Y0566000D01*
X0480175Y0565934D01*
X0480027Y0565872D01*
X0479877Y0565814D01*
X0479726Y0565759D01*
X0479573Y0565708D01*
X0479419Y0565661D01*
X0479264Y0565618D01*
X0479108Y0565579D01*
X0478952Y0565543D01*
X0478794Y0565512D01*
X0478636Y0565484D01*
X0478477Y0565460D01*
X0478317Y0565440D01*
X0478157Y0565424D01*
X0477997Y0565412D01*
X0477836Y0565404D01*
X0477675Y0565400D01*
X0477515Y0565400D01*
X0477354Y0565404D01*
X0477193Y0565412D01*
X0477033Y0565424D01*
X0476873Y0565440D01*
X0476713Y0565460D01*
X0476554Y0565484D01*
X0476396Y0565512D01*
X0476238Y0565543D01*
X0476082Y0565579D01*
X0475926Y0565618D01*
X0475771Y0565661D01*
X0475617Y0565708D01*
X0475464Y0565759D01*
X0475313Y0565814D01*
X0475163Y0565872D01*
X0475015Y0565934D01*
X0474868Y0566000D01*
X0474723Y0566069D01*
X0474580Y0566142D01*
X0474438Y0566218D01*
X0474299Y0566298D01*
X0474161Y0566381D01*
X0474026Y0566468D01*
X0473892Y0566558D01*
X0473761Y0566651D01*
X0473633Y0566747D01*
X0473507Y0566847D01*
X0473383Y0566950D01*
X0473262Y0567055D01*
X0473143Y0567164D01*
X0473027Y0567275D01*
X0472914Y0567390D01*
X0472804Y0567507D01*
X0472697Y0567627D01*
X0472593Y0567749D01*
X0472492Y0567874D01*
X0472394Y0568002D01*
X0472299Y0568132D01*
X0472207Y0568264D01*
X0472119Y0568398D01*
X0472034Y0568535D01*
X0471952Y0568673D01*
X0471874Y0568814D01*
X0471800Y0568956D01*
X0471729Y0569100D01*
X0471661Y0569246D01*
X0471598Y0569394D01*
X0471537Y0569543D01*
X0471481Y0569694D01*
X0471428Y0569846D01*
X0471379Y0569999D01*
X0471334Y0570153D01*
X0471293Y0570308D01*
X0471255Y0570465D01*
X0471222Y0570622D01*
X0471192Y0570780D01*
X0471166Y0570939D01*
X0471145Y0571098D01*
X0471127Y0571258D01*
X0471113Y0571418D01*
X0471103Y0571579D01*
X0471097Y0571739D01*
X0471095Y0571900D01*
M02*
