%
M48
M72
T01C0.0150
T02C0.0200
T03C0.0315
T04C0.0335
T05C0.0394
T06C0.1180
T07C0.1260
T08C0.1300
T09C0.1575
%
T01
X12260Y32690
X15822Y36940
X17240Y38040
X20010Y37003
X21062Y38010
X21760Y40565
X22760Y42128
X22385Y43440
X20635Y44440
X20635Y46378
X21635Y46753
X22385Y46565
X23760Y46690
X24510Y46190
X24072Y45315
X24697Y44315
X25760Y43753
X26322Y42065
X27822Y43253
X29322Y42065
X30115Y43385
X31260Y46503
X29835Y46835
X27697Y46503
X25510Y46503
X28760Y50690
X28697Y52940
X27822Y53878
X25385Y52065
X24697Y53815
X21635Y53878
X18510Y53940
X15697Y54003
X13760Y52440
X13760Y50565
X13635Y49315
X15010Y49315
X15510Y50190
X13947Y47440
X10885Y45253
X10447Y41878
X10447Y40690
X10385Y38878
X12500Y40540
X16760Y41690
X17822Y46628
X11977Y51323
X10572Y50753
X10947Y54503
X23760Y37190
X25260Y38010
X25135Y40440
X28197Y37128
X29147Y38030
X28635Y40440
X31385Y40440
X33310Y37990
X31385Y37253
X35297Y41828
X35297Y42228
X35310Y42603
X35285Y42990
X35285Y43390
X36672Y43353
X37947Y42003
X39010Y42378
X40015Y42730
X40010Y43065
X40456Y43090
X40947Y43065
X41385Y43065
X41760Y43065
X41760Y42690
X39842Y40725
X41885Y40315
X42360Y36440
X38885Y36815
X37960Y38635
X37272Y38073
X36260Y37128
X36010Y40253
X33572Y44628
X36960Y45465
X35635Y52128
X35510Y54065
X37660Y57153
X42135Y50190
X7960Y35790
T02
X37010Y40190
X40130Y48684
X38510Y54565
T03
X7022Y34999
X4601Y32578
T04
X10262Y31873
X10262Y33054
X39544Y48690
X40725Y48690
T05
X36010Y49186
X35510Y48438
X36010Y47690
X35010Y47690
X34510Y48438
X35010Y49186
X35510Y49934
X34510Y49934
X34010Y49186
X33510Y48438
X34010Y47690
X33010Y47690
X32510Y48438
X33010Y49186
X33510Y49934
X32510Y49934
X32010Y49186
X31510Y48438
X32010Y47690
X31010Y47690
X30510Y48438
X31010Y49186
X31510Y49934
X30510Y49934
X30010Y49186
X29510Y48438
X30010Y47690
X29010Y47690
X28510Y48438
X29010Y49186
X29510Y49934
X28510Y49934
X28010Y49186
X27510Y48438
X28010Y47690
X27010Y47690
X26510Y48438
X27010Y49186
X27510Y49934
X26510Y49934
X26010Y49186
X25510Y48438
X26010Y47690
X25010Y47690
X24510Y48438
X25010Y49186
X25510Y49934
X24510Y49934
X24010Y49186
X23510Y48438
X24010Y47690
X23010Y47690
X22510Y48438
X23010Y49186
X23510Y49934
X22510Y49934
X22010Y49186
X21510Y48438
X22010Y47690
X21010Y47690
X20510Y48438
X21010Y49186
X21510Y49934
X20510Y49934
X20010Y49186
X19510Y48438
X20010Y47690
X19010Y47690
X18510Y48438
X19010Y49186
X19510Y49934
X18510Y49934
X18010Y49186
X17510Y48438
X18010Y47690
X17010Y47690
X16510Y48438
X17010Y49186
X17510Y49934
X16510Y49934
T06
X44429Y35690
X46060Y34219
T07
X43178Y34209
T08
X47760Y57190
X4760Y57190
T09
X5612Y52964
X7912Y52964
X7912Y49464
X5612Y49464
X5612Y45964
X7912Y45964
X7912Y42464
X5612Y42464
X5612Y38964
X7912Y38964
X14262Y34864
X14262Y32564
X18262Y32564
X18262Y34864
X22262Y34864
X22262Y32564
X26262Y32564
X26262Y34864
X30262Y34864
X30262Y32564
X34262Y32564
X34262Y34864
X38262Y34864
X38262Y32564
X44612Y38964
X46912Y38964
X46912Y42464
X44612Y42464
X44610Y45940
X46910Y45940
X46912Y49464
X44612Y49464
X44612Y52964
X46912Y52964
M30
