G75*
%MOIN*%
%OFA0B0*%
%FSLAX25Y25*%
%IPPOS*%
%LPD*%
%AMOC8*
5,1,8,0,0,1.08239X$1,22.5*
%
%ADD10R,0.06500X0.03937*%
%ADD11R,0.12598X0.09843*%
%ADD12R,0.04528X0.03937*%
%ADD13R,0.04331X0.03937*%
%ADD14R,0.05512X0.07874*%
%ADD15C,0.00197*%
%ADD16C,0.00500*%
%ADD17R,0.03937X0.04331*%
%ADD18R,0.05512X0.06299*%
%ADD19R,0.03937X0.04528*%
%ADD20R,0.04800X0.08800*%
%ADD21R,0.14173X0.08661*%
%ADD22R,0.03268X0.02480*%
%ADD23R,0.04724X0.03150*%
%ADD24R,0.01200X0.03900*%
%ADD25C,0.01181*%
%ADD26R,0.06299X0.07087*%
%ADD27R,0.03858X0.13386*%
%ADD28R,0.03543X0.03150*%
D10*
X0182470Y0413337D03*
X0182470Y0425935D03*
X0202761Y0425935D03*
X0202761Y0413337D03*
X0217470Y0413337D03*
X0217470Y0425935D03*
X0237761Y0425935D03*
X0237761Y0413337D03*
X0252470Y0413337D03*
X0252470Y0425935D03*
X0272761Y0425935D03*
X0272761Y0413337D03*
X0287470Y0413337D03*
X0287470Y0425935D03*
X0307761Y0425935D03*
X0307761Y0413337D03*
X0322470Y0413337D03*
X0322470Y0425935D03*
X0342761Y0425935D03*
X0342761Y0413337D03*
D11*
X0077114Y0334636D03*
X0045618Y0334636D03*
D12*
X0091494Y0314794D03*
X0091494Y0324636D03*
X0091494Y0334479D03*
X0113738Y0334479D03*
X0113738Y0324636D03*
X0113738Y0314794D03*
D13*
X0095942Y0351900D03*
X0089249Y0351900D03*
X0139349Y0373000D03*
X0146042Y0373000D03*
X0179049Y0372900D03*
X0185742Y0372900D03*
X0188669Y0403586D03*
X0195362Y0403586D03*
X0219149Y0372600D03*
X0225842Y0372600D03*
X0224369Y0403336D03*
X0231062Y0403336D03*
X0259169Y0403836D03*
X0265862Y0403836D03*
X0265942Y0372600D03*
X0259249Y0372600D03*
X0294269Y0403611D03*
X0300962Y0403611D03*
X0298769Y0373036D03*
X0305462Y0373036D03*
X0329269Y0403836D03*
X0335962Y0403836D03*
X0339749Y0372400D03*
X0346442Y0372400D03*
X0378749Y0372600D03*
X0385442Y0372600D03*
X0370317Y0422525D03*
X0363624Y0422525D03*
X0367374Y0439650D03*
X0374067Y0439650D03*
X0395499Y0439400D03*
X0402192Y0439400D03*
D14*
X0390688Y0388850D03*
X0373366Y0388850D03*
X0351688Y0388650D03*
X0334366Y0388650D03*
X0309675Y0389030D03*
X0292352Y0389030D03*
X0271188Y0388850D03*
X0253866Y0388850D03*
X0231088Y0388850D03*
X0213766Y0388850D03*
X0190988Y0389150D03*
X0173666Y0389150D03*
X0151288Y0389250D03*
X0133966Y0389250D03*
D15*
X0378006Y0427358D02*
X0378009Y0427422D01*
X0378009Y0427894D01*
X0378036Y0427951D01*
X0378083Y0427994D01*
X0378143Y0428015D01*
X0378206Y0428012D01*
X0380017Y0428012D01*
X0380077Y0428000D01*
X0380129Y0427966D01*
X0380163Y0427915D01*
X0380175Y0427855D01*
X0380175Y0427422D01*
X0380173Y0427355D01*
X0380147Y0427295D01*
X0380099Y0427249D01*
X0380037Y0427225D01*
X0378127Y0427225D01*
X0378070Y0427252D01*
X0378028Y0427299D01*
X0378006Y0427358D01*
X0378009Y0427438D02*
X0380175Y0427438D01*
X0380175Y0427634D02*
X0378009Y0427634D01*
X0378009Y0427829D02*
X0380175Y0427829D01*
X0380083Y0427243D02*
X0378089Y0427243D01*
X0378108Y0429193D02*
X0378050Y0429220D01*
X0378008Y0429267D01*
X0377987Y0429327D01*
X0377990Y0429390D01*
X0377990Y0429863D01*
X0378017Y0429920D01*
X0378064Y0429962D01*
X0378123Y0429984D01*
X0378186Y0429981D01*
X0379998Y0429981D01*
X0380058Y0429969D01*
X0380109Y0429935D01*
X0380143Y0429883D01*
X0380155Y0429823D01*
X0380155Y0429390D01*
X0380154Y0429324D01*
X0380127Y0429263D01*
X0380079Y0429217D01*
X0380017Y0429193D01*
X0378108Y0429193D01*
X0378101Y0429196D02*
X0380025Y0429196D01*
X0380155Y0429392D02*
X0377990Y0429392D01*
X0377990Y0429587D02*
X0380155Y0429587D01*
X0380155Y0429783D02*
X0377990Y0429783D01*
X0378107Y0429978D02*
X0380012Y0429978D01*
X0382249Y0430977D02*
X0382270Y0430945D01*
X0382302Y0430923D01*
X0382340Y0430916D01*
X0382931Y0430916D01*
X0382968Y0430923D01*
X0383000Y0430945D01*
X0383022Y0430977D01*
X0383029Y0431014D01*
X0383029Y0432884D01*
X0383022Y0432922D01*
X0383000Y0432954D01*
X0382968Y0432975D01*
X0382931Y0432983D01*
X0382340Y0432983D01*
X0382302Y0432975D01*
X0382270Y0432954D01*
X0382249Y0432922D01*
X0382242Y0432884D01*
X0382242Y0431014D01*
X0382249Y0430977D01*
X0382264Y0430955D02*
X0383007Y0430955D01*
X0383029Y0431150D02*
X0382242Y0431150D01*
X0382242Y0431345D02*
X0383029Y0431345D01*
X0383029Y0431541D02*
X0382242Y0431541D01*
X0382242Y0431736D02*
X0383029Y0431736D01*
X0383029Y0431931D02*
X0382242Y0431931D01*
X0382242Y0432127D02*
X0383029Y0432127D01*
X0383029Y0432322D02*
X0382242Y0432322D01*
X0382242Y0432518D02*
X0383029Y0432518D01*
X0383029Y0432713D02*
X0382242Y0432713D01*
X0382246Y0432908D02*
X0383024Y0432908D01*
X0382931Y0433967D02*
X0382968Y0433974D01*
X0383000Y0433996D01*
X0383022Y0434028D01*
X0383029Y0434065D01*
X0383029Y0435935D01*
X0383022Y0435973D01*
X0383000Y0436005D01*
X0382968Y0436026D01*
X0382931Y0436034D01*
X0382340Y0436034D01*
X0382302Y0436026D01*
X0382270Y0436005D01*
X0382249Y0435973D01*
X0382242Y0435935D01*
X0382242Y0434065D01*
X0382249Y0434028D01*
X0382270Y0433996D01*
X0382302Y0433974D01*
X0382340Y0433967D01*
X0382931Y0433967D01*
X0383029Y0434080D02*
X0382242Y0434080D01*
X0382242Y0434276D02*
X0383029Y0434276D01*
X0383029Y0434471D02*
X0382242Y0434471D01*
X0382242Y0434667D02*
X0383029Y0434667D01*
X0383029Y0434862D02*
X0382242Y0434862D01*
X0382242Y0435057D02*
X0383029Y0435057D01*
X0383029Y0435253D02*
X0382242Y0435253D01*
X0382242Y0435448D02*
X0383029Y0435448D01*
X0383029Y0435643D02*
X0382242Y0435643D01*
X0382242Y0435839D02*
X0383029Y0435839D01*
X0384203Y0435897D02*
X0384210Y0435837D01*
X0384210Y0433376D01*
X0384218Y0433339D01*
X0384239Y0433307D01*
X0384271Y0433285D01*
X0384309Y0433278D01*
X0384899Y0433278D01*
X0384937Y0433285D01*
X0384969Y0433307D01*
X0384990Y0433339D01*
X0384998Y0433376D01*
X0384998Y0435935D01*
X0384990Y0435973D01*
X0384969Y0436005D01*
X0384937Y0436026D01*
X0384899Y0436034D01*
X0384309Y0436034D01*
X0384256Y0436004D01*
X0384219Y0435956D01*
X0384203Y0435897D01*
X0384210Y0435839D02*
X0384998Y0435839D01*
X0384998Y0435643D02*
X0384210Y0435643D01*
X0384210Y0435448D02*
X0384998Y0435448D01*
X0384998Y0435253D02*
X0384210Y0435253D01*
X0384210Y0435057D02*
X0384998Y0435057D01*
X0384998Y0434862D02*
X0384210Y0434862D01*
X0384210Y0434667D02*
X0384998Y0434667D01*
X0384998Y0434471D02*
X0384210Y0434471D01*
X0384210Y0434276D02*
X0384998Y0434276D01*
X0384998Y0434080D02*
X0384210Y0434080D01*
X0384210Y0433885D02*
X0384998Y0433885D01*
X0384998Y0433690D02*
X0384210Y0433690D01*
X0384210Y0433494D02*
X0384998Y0433494D01*
X0384957Y0433299D02*
X0384251Y0433299D01*
X0384309Y0432294D02*
X0384256Y0432264D01*
X0384219Y0432216D01*
X0384203Y0432157D01*
X0384210Y0432097D01*
X0384210Y0429636D01*
X0384218Y0429599D01*
X0384239Y0429567D01*
X0384271Y0429545D01*
X0384309Y0429538D01*
X0384899Y0429538D01*
X0384937Y0429545D01*
X0384969Y0429567D01*
X0384990Y0429599D01*
X0384998Y0429636D01*
X0384998Y0432195D01*
X0384990Y0432233D01*
X0384969Y0432265D01*
X0384937Y0432286D01*
X0384899Y0432294D01*
X0384309Y0432294D01*
X0384206Y0432127D02*
X0384998Y0432127D01*
X0384998Y0431931D02*
X0384210Y0431931D01*
X0384210Y0431736D02*
X0384998Y0431736D01*
X0384998Y0431541D02*
X0384210Y0431541D01*
X0384210Y0431345D02*
X0384998Y0431345D01*
X0384998Y0431150D02*
X0384210Y0431150D01*
X0384210Y0430955D02*
X0384998Y0430955D01*
X0384998Y0430759D02*
X0384210Y0430759D01*
X0384210Y0430564D02*
X0384998Y0430564D01*
X0384998Y0430369D02*
X0384210Y0430369D01*
X0384210Y0430173D02*
X0384998Y0430173D01*
X0384998Y0429978D02*
X0384210Y0429978D01*
X0384210Y0429783D02*
X0384998Y0429783D01*
X0384982Y0429587D02*
X0384225Y0429587D01*
X0386207Y0430945D02*
X0386239Y0430923D01*
X0386277Y0430916D01*
X0386868Y0430916D01*
X0386905Y0430923D01*
X0386937Y0430945D01*
X0386959Y0430977D01*
X0386966Y0431014D01*
X0386966Y0432884D01*
X0386959Y0432922D01*
X0386937Y0432954D01*
X0386905Y0432975D01*
X0386868Y0432983D01*
X0386277Y0432983D01*
X0386239Y0432975D01*
X0386207Y0432954D01*
X0386186Y0432922D01*
X0386179Y0432884D01*
X0386179Y0431014D01*
X0386186Y0430977D01*
X0386207Y0430945D01*
X0386201Y0430955D02*
X0386944Y0430955D01*
X0386966Y0431150D02*
X0386179Y0431150D01*
X0386179Y0431345D02*
X0386966Y0431345D01*
X0386966Y0431541D02*
X0386179Y0431541D01*
X0386179Y0431736D02*
X0386966Y0431736D01*
X0386966Y0431931D02*
X0386179Y0431931D01*
X0386179Y0432127D02*
X0386966Y0432127D01*
X0386966Y0432322D02*
X0386179Y0432322D01*
X0386179Y0432518D02*
X0386966Y0432518D01*
X0386966Y0432713D02*
X0386179Y0432713D01*
X0386183Y0432908D02*
X0386961Y0432908D01*
X0386868Y0433967D02*
X0386905Y0433974D01*
X0386937Y0433996D01*
X0386959Y0434028D01*
X0386966Y0434065D01*
X0386966Y0435935D01*
X0386959Y0435973D01*
X0386937Y0436005D01*
X0386905Y0436026D01*
X0386868Y0436034D01*
X0386277Y0436034D01*
X0386239Y0436026D01*
X0386207Y0436005D01*
X0386186Y0435973D01*
X0386179Y0435935D01*
X0386179Y0434065D01*
X0386186Y0434028D01*
X0386207Y0433996D01*
X0386239Y0433974D01*
X0386277Y0433967D01*
X0386868Y0433967D01*
X0386966Y0434080D02*
X0386179Y0434080D01*
X0386179Y0434276D02*
X0386966Y0434276D01*
X0386966Y0434471D02*
X0386179Y0434471D01*
X0386179Y0434667D02*
X0386966Y0434667D01*
X0386966Y0434862D02*
X0386179Y0434862D01*
X0386179Y0435057D02*
X0386966Y0435057D01*
X0386966Y0435253D02*
X0386179Y0435253D01*
X0386179Y0435448D02*
X0386966Y0435448D01*
X0386966Y0435643D02*
X0386179Y0435643D01*
X0386179Y0435839D02*
X0386966Y0435839D01*
X0389107Y0429962D02*
X0389167Y0429984D01*
X0389230Y0429981D01*
X0391041Y0429981D01*
X0391101Y0429969D01*
X0391152Y0429935D01*
X0391186Y0429883D01*
X0391198Y0429823D01*
X0391198Y0429390D01*
X0391197Y0429324D01*
X0391170Y0429263D01*
X0391122Y0429217D01*
X0391060Y0429193D01*
X0389151Y0429193D01*
X0389094Y0429220D01*
X0389051Y0429267D01*
X0389030Y0429327D01*
X0389033Y0429390D01*
X0389033Y0429863D01*
X0389060Y0429920D01*
X0389107Y0429962D01*
X0389150Y0429978D02*
X0391055Y0429978D01*
X0391198Y0429783D02*
X0389033Y0429783D01*
X0389033Y0429587D02*
X0391198Y0429587D01*
X0391198Y0429392D02*
X0389033Y0429392D01*
X0389144Y0429196D02*
X0391069Y0429196D01*
X0391021Y0428012D02*
X0391081Y0428000D01*
X0391132Y0427966D01*
X0391167Y0427915D01*
X0391179Y0427855D01*
X0391179Y0427422D01*
X0391177Y0427355D01*
X0391150Y0427295D01*
X0391103Y0427249D01*
X0391041Y0427225D01*
X0389131Y0427225D01*
X0389074Y0427252D01*
X0389032Y0427299D01*
X0389010Y0427358D01*
X0389013Y0427422D01*
X0389013Y0427894D01*
X0389040Y0427951D01*
X0389087Y0427994D01*
X0389147Y0428015D01*
X0389210Y0428012D01*
X0391021Y0428012D01*
X0391179Y0427829D02*
X0389013Y0427829D01*
X0389013Y0427634D02*
X0391179Y0427634D01*
X0391179Y0427438D02*
X0389013Y0427438D01*
X0389093Y0427243D02*
X0391087Y0427243D01*
X0387931Y0426595D02*
X0387931Y0424685D01*
X0387904Y0424628D01*
X0387857Y0424586D01*
X0387797Y0424564D01*
X0387734Y0424567D01*
X0387281Y0424567D01*
X0387224Y0424594D01*
X0387181Y0424641D01*
X0387160Y0424701D01*
X0387163Y0424764D01*
X0387143Y0426575D01*
X0387155Y0426635D01*
X0387189Y0426687D01*
X0387240Y0426721D01*
X0387301Y0426733D01*
X0387734Y0426733D01*
X0387800Y0426731D01*
X0387861Y0426705D01*
X0387907Y0426657D01*
X0387931Y0426595D01*
X0387906Y0426657D02*
X0387169Y0426657D01*
X0387144Y0426461D02*
X0387931Y0426461D01*
X0387931Y0426266D02*
X0387147Y0426266D01*
X0387149Y0426071D02*
X0387931Y0426071D01*
X0387931Y0425875D02*
X0387151Y0425875D01*
X0387153Y0425680D02*
X0387931Y0425680D01*
X0387931Y0425485D02*
X0387155Y0425485D01*
X0387157Y0425289D02*
X0387931Y0425289D01*
X0387931Y0425094D02*
X0387159Y0425094D01*
X0387161Y0424898D02*
X0387931Y0424898D01*
X0387931Y0424703D02*
X0387160Y0424703D01*
X0385982Y0424703D02*
X0385191Y0424703D01*
X0385191Y0424701D02*
X0385194Y0424764D01*
X0385194Y0426575D01*
X0385206Y0426635D01*
X0385240Y0426687D01*
X0385292Y0426721D01*
X0385352Y0426733D01*
X0385785Y0426733D01*
X0385851Y0426731D01*
X0385912Y0426705D01*
X0385958Y0426657D01*
X0385221Y0426657D01*
X0385194Y0426461D02*
X0385982Y0426461D01*
X0385982Y0426595D02*
X0385982Y0424685D01*
X0385955Y0424628D01*
X0385908Y0424586D01*
X0385848Y0424564D01*
X0385785Y0424567D01*
X0385312Y0424567D01*
X0385255Y0424594D01*
X0385213Y0424641D01*
X0385191Y0424701D01*
X0385194Y0424898D02*
X0385982Y0424898D01*
X0385982Y0425094D02*
X0385194Y0425094D01*
X0385194Y0425289D02*
X0385982Y0425289D01*
X0385982Y0425485D02*
X0385194Y0425485D01*
X0385194Y0425680D02*
X0385982Y0425680D01*
X0385982Y0425875D02*
X0385194Y0425875D01*
X0385194Y0426071D02*
X0385982Y0426071D01*
X0385982Y0426266D02*
X0385194Y0426266D01*
X0385982Y0426595D02*
X0385958Y0426657D01*
X0384013Y0426595D02*
X0384013Y0424685D01*
X0383986Y0424628D01*
X0383939Y0424586D01*
X0383880Y0424564D01*
X0383816Y0424567D01*
X0383344Y0424567D01*
X0383299Y0424576D01*
X0383260Y0424602D01*
X0383235Y0424640D01*
X0383226Y0424685D01*
X0383226Y0426575D01*
X0383238Y0426635D01*
X0383272Y0426687D01*
X0383323Y0426721D01*
X0383383Y0426733D01*
X0383816Y0426733D01*
X0383883Y0426731D01*
X0383943Y0426705D01*
X0383989Y0426657D01*
X0383252Y0426657D01*
X0383226Y0426461D02*
X0384013Y0426461D01*
X0384013Y0426595D02*
X0383989Y0426657D01*
X0384013Y0426266D02*
X0383226Y0426266D01*
X0383226Y0426071D02*
X0384013Y0426071D01*
X0384013Y0425875D02*
X0383226Y0425875D01*
X0383226Y0425680D02*
X0384013Y0425680D01*
X0384013Y0425485D02*
X0383226Y0425485D01*
X0383226Y0425289D02*
X0384013Y0425289D01*
X0384013Y0425094D02*
X0383226Y0425094D01*
X0383226Y0424898D02*
X0384013Y0424898D01*
X0384013Y0424703D02*
X0383226Y0424703D01*
X0382045Y0424703D02*
X0381254Y0424703D01*
X0381254Y0424701D02*
X0381257Y0424764D01*
X0381257Y0426575D01*
X0381269Y0426635D01*
X0381303Y0426687D01*
X0381355Y0426721D01*
X0381415Y0426733D01*
X0381848Y0426733D01*
X0381914Y0426731D01*
X0381975Y0426705D01*
X0382021Y0426657D01*
X0381284Y0426657D01*
X0381257Y0426461D02*
X0382045Y0426461D01*
X0382045Y0426595D02*
X0382045Y0424685D01*
X0382018Y0424628D01*
X0381971Y0424586D01*
X0381911Y0424564D01*
X0381848Y0424567D01*
X0381375Y0424567D01*
X0381318Y0424594D01*
X0381276Y0424641D01*
X0381254Y0424701D01*
X0381257Y0424898D02*
X0382045Y0424898D01*
X0382045Y0425094D02*
X0381257Y0425094D01*
X0381257Y0425289D02*
X0382045Y0425289D01*
X0382045Y0425485D02*
X0381257Y0425485D01*
X0381257Y0425680D02*
X0382045Y0425680D01*
X0382045Y0425875D02*
X0381257Y0425875D01*
X0381257Y0426071D02*
X0382045Y0426071D01*
X0382045Y0426266D02*
X0381257Y0426266D01*
X0382045Y0426595D02*
X0382021Y0426657D01*
D16*
X0379820Y0431595D02*
X0379820Y0433603D01*
X0378364Y0433603D01*
X0378364Y0433209D01*
X0379387Y0433209D01*
X0379387Y0431989D01*
X0378364Y0431989D01*
X0378364Y0431595D01*
X0378600Y0431595D01*
X0378560Y0431595D01*
X0379820Y0431595D01*
X0379820Y0432026D02*
X0379387Y0432026D01*
X0379387Y0432525D02*
X0379820Y0432525D01*
X0379820Y0433023D02*
X0379387Y0433023D01*
X0379820Y0433522D02*
X0378364Y0433522D01*
X0389387Y0433522D02*
X0390844Y0433522D01*
X0390844Y0433563D02*
X0390608Y0433563D01*
X0390647Y0433563D01*
X0389387Y0433563D01*
X0389387Y0431556D01*
X0390844Y0431556D01*
X0390844Y0431949D01*
X0389820Y0431949D01*
X0389820Y0433170D01*
X0390844Y0433170D01*
X0390844Y0433563D01*
X0389820Y0433023D02*
X0389387Y0433023D01*
X0389387Y0432525D02*
X0389820Y0432525D01*
X0389820Y0432026D02*
X0389387Y0432026D01*
D17*
X0390096Y0415246D03*
X0390096Y0408554D03*
X0407446Y0409196D03*
X0407446Y0402504D03*
X0407446Y0416054D03*
X0407446Y0422746D03*
X0413246Y0422746D03*
X0413246Y0416054D03*
X0418996Y0483754D03*
X0418996Y0490446D03*
X0410096Y0543554D03*
X0410096Y0550246D03*
X0416796Y0550954D03*
X0422796Y0550954D03*
X0422796Y0557646D03*
X0416796Y0557646D03*
X0384471Y0566054D03*
X0384471Y0572746D03*
X0357771Y0459096D03*
X0357771Y0452404D03*
X0112595Y0370246D03*
X0112595Y0363554D03*
D18*
X0394584Y0566900D03*
X0405608Y0566900D03*
D19*
X0401346Y0498022D03*
X0411188Y0498022D03*
X0411188Y0475778D03*
X0401346Y0475778D03*
X0391503Y0475778D03*
X0391503Y0498022D03*
D20*
X0393846Y0555350D03*
X0402946Y0555350D03*
X0384746Y0555350D03*
D21*
X0393846Y0530949D03*
D22*
X0342595Y0461428D03*
X0342595Y0452372D03*
X0402595Y0376428D03*
X0402595Y0367372D03*
X0412595Y0367372D03*
X0412595Y0376428D03*
D23*
X0415396Y0439607D03*
X0422046Y0439607D03*
X0422046Y0446693D03*
X0415396Y0446693D03*
X0408646Y0446693D03*
X0408646Y0439607D03*
X0360221Y0439482D03*
X0360221Y0446568D03*
X0353471Y0446568D03*
X0353471Y0439482D03*
D24*
X0151173Y0430687D03*
X0148614Y0430687D03*
X0146055Y0430687D03*
X0143496Y0430687D03*
X0140937Y0430687D03*
X0138378Y0430687D03*
X0135819Y0430687D03*
X0135819Y0407713D03*
X0138378Y0407713D03*
X0140937Y0407713D03*
X0143496Y0407713D03*
X0146055Y0407713D03*
X0148614Y0407713D03*
X0151173Y0407713D03*
D25*
X0350718Y0450744D02*
X0353474Y0450744D01*
X0350718Y0450744D02*
X0350718Y0453500D01*
X0353474Y0453500D01*
X0353474Y0450744D01*
X0353474Y0451866D02*
X0350718Y0451866D01*
X0350718Y0452988D02*
X0353474Y0452988D01*
X0353474Y0457650D02*
X0350718Y0457650D01*
X0350718Y0460406D01*
X0353474Y0460406D01*
X0353474Y0457650D01*
X0353474Y0458772D02*
X0350718Y0458772D01*
X0350718Y0459894D02*
X0353474Y0459894D01*
X0420618Y0455169D02*
X0423374Y0455169D01*
X0420618Y0455169D02*
X0420618Y0457925D01*
X0423374Y0457925D01*
X0423374Y0455169D01*
X0423374Y0456291D02*
X0420618Y0456291D01*
X0420618Y0457413D02*
X0423374Y0457413D01*
X0423374Y0462075D02*
X0420618Y0462075D01*
X0420618Y0464831D01*
X0423374Y0464831D01*
X0423374Y0462075D01*
X0423374Y0463197D02*
X0420618Y0463197D01*
X0420618Y0464319D02*
X0423374Y0464319D01*
X0423674Y0525319D02*
X0420918Y0525319D01*
X0420918Y0528075D01*
X0423674Y0528075D01*
X0423674Y0525319D01*
X0423674Y0526441D02*
X0420918Y0526441D01*
X0420918Y0527563D02*
X0423674Y0527563D01*
X0423674Y0532225D02*
X0420918Y0532225D01*
X0420918Y0534981D01*
X0423674Y0534981D01*
X0423674Y0532225D01*
X0423674Y0533347D02*
X0420918Y0533347D01*
X0420918Y0534469D02*
X0423674Y0534469D01*
D26*
X0364908Y0466700D03*
X0353884Y0466700D03*
D27*
X0379810Y0457521D03*
X0389259Y0457521D03*
D28*
X0106532Y0370640D03*
X0106532Y0363160D03*
X0098264Y0366900D03*
M02*
