G75*
%MOIN*%
%OFA0B0*%
%FSLAX25Y25*%
%IPPOS*%
%LPD*%
%AMOC8*
5,1,8,0,0,1.08239X$1,22.5*
%
%ADD10C,0.04737*%
%ADD11C,0.06706*%
%ADD12C,0.20800*%
%ADD13C,0.01000*%
%ADD14R,0.07300X0.04737*%
%ADD15R,0.13398X0.10643*%
%ADD16C,0.03950*%
%ADD17R,0.05328X0.04737*%
%ADD18C,0.04146*%
%ADD19R,0.05131X0.04737*%
%ADD20R,0.06312X0.08674*%
%ADD21C,0.00197*%
%ADD22C,0.00500*%
%ADD23R,0.04737X0.05131*%
%ADD24R,0.06312X0.07099*%
%ADD25R,0.04737X0.05328*%
%ADD26R,0.05600X0.09600*%
%ADD27R,0.14973X0.09461*%
%ADD28R,0.04068X0.03280*%
%ADD29R,0.05524X0.03950*%
%ADD30R,0.02000X0.04700*%
%ADD31C,0.01990*%
%ADD32R,0.07099X0.07887*%
%ADD33R,0.04658X0.14186*%
%ADD34R,0.04343X0.03950*%
%ADD35C,0.17398*%
%ADD36C,0.17000*%
%ADD37C,0.13800*%
D10*
X0417595Y0316900D03*
X0072595Y0576900D03*
D11*
X0165096Y0499341D03*
X0170096Y0491861D03*
X0175096Y0499341D03*
X0180096Y0491861D03*
X0185096Y0499341D03*
X0190096Y0491861D03*
X0195096Y0499341D03*
X0200096Y0491861D03*
X0205096Y0499341D03*
X0210096Y0491861D03*
X0215096Y0499341D03*
X0220096Y0491861D03*
X0225096Y0499341D03*
X0230096Y0491861D03*
X0235096Y0499341D03*
X0240096Y0491861D03*
X0245096Y0499341D03*
X0250096Y0491861D03*
X0255096Y0499341D03*
X0260096Y0491861D03*
X0265096Y0499341D03*
X0270096Y0491861D03*
X0275096Y0499341D03*
X0280096Y0491861D03*
X0285096Y0499341D03*
X0290096Y0491861D03*
X0295096Y0499341D03*
X0300096Y0491861D03*
X0305096Y0499341D03*
X0310096Y0491861D03*
X0315096Y0499341D03*
X0320096Y0491861D03*
X0325096Y0499341D03*
X0330096Y0491861D03*
X0335096Y0499341D03*
X0340096Y0491861D03*
X0345096Y0499341D03*
X0350096Y0491861D03*
X0355096Y0499341D03*
X0360096Y0491861D03*
X0355096Y0484380D03*
X0360096Y0476900D03*
X0350096Y0476900D03*
X0345096Y0484380D03*
X0340096Y0476900D03*
X0335096Y0484380D03*
X0330096Y0476900D03*
X0325096Y0484380D03*
X0320096Y0476900D03*
X0315096Y0484380D03*
X0310096Y0476900D03*
X0305096Y0484380D03*
X0300096Y0476900D03*
X0295096Y0484380D03*
X0290096Y0476900D03*
X0285096Y0484380D03*
X0280096Y0476900D03*
X0275096Y0484380D03*
X0270096Y0476900D03*
X0265096Y0484380D03*
X0260096Y0476900D03*
X0255096Y0484380D03*
X0250096Y0476900D03*
X0245096Y0484380D03*
X0240096Y0476900D03*
X0235096Y0484380D03*
X0230096Y0476900D03*
X0225096Y0484380D03*
X0220096Y0476900D03*
X0215096Y0484380D03*
X0210096Y0476900D03*
X0205096Y0484380D03*
X0200096Y0476900D03*
X0195096Y0484380D03*
X0190096Y0476900D03*
X0185096Y0484380D03*
X0180096Y0476900D03*
X0175096Y0484380D03*
X0170096Y0476900D03*
X0165096Y0484380D03*
D12*
X0079116Y0494636D03*
X0056116Y0494636D03*
X0056116Y0459636D03*
X0079116Y0459636D03*
X0079116Y0424636D03*
X0056116Y0424636D03*
X0056116Y0389636D03*
X0079116Y0389636D03*
X0142616Y0348636D03*
X0142616Y0325636D03*
X0182616Y0325636D03*
X0182616Y0348636D03*
X0222616Y0348636D03*
X0222616Y0325636D03*
X0262616Y0325636D03*
X0262616Y0348636D03*
X0302616Y0348636D03*
X0302616Y0325636D03*
X0342616Y0325636D03*
X0342616Y0348636D03*
X0382616Y0348636D03*
X0382616Y0325636D03*
X0446116Y0389636D03*
X0469116Y0389636D03*
X0469116Y0424636D03*
X0446116Y0424636D03*
X0446096Y0459400D03*
X0469096Y0459400D03*
X0469116Y0494636D03*
X0446116Y0494636D03*
X0446116Y0529636D03*
X0469116Y0529636D03*
X0079116Y0529636D03*
X0056116Y0529636D03*
D13*
X0130216Y0349236D02*
X0130216Y0309236D01*
X0155016Y0309236D01*
X0155016Y0349636D01*
X0154810Y0351309D01*
X0154369Y0352936D01*
X0153700Y0354484D01*
X0152818Y0355921D01*
X0151741Y0357217D01*
X0150490Y0358347D01*
X0149090Y0359287D01*
X0147572Y0360019D01*
X0145964Y0360527D01*
X0144301Y0360802D01*
X0142616Y0360836D01*
X0141016Y0360882D01*
X0139425Y0360702D01*
X0137877Y0360298D01*
X0136401Y0359679D01*
X0135027Y0358857D01*
X0133784Y0357850D01*
X0132695Y0356676D01*
X0131784Y0355360D01*
X0131068Y0353929D01*
X0130562Y0352410D01*
X0130276Y0350836D01*
X0130216Y0349236D01*
X0130216Y0348837D02*
X0155016Y0348837D01*
X0155016Y0347839D02*
X0130216Y0347839D01*
X0130216Y0346840D02*
X0155016Y0346840D01*
X0155016Y0345842D02*
X0130216Y0345842D01*
X0130216Y0344843D02*
X0155016Y0344843D01*
X0155016Y0343845D02*
X0130216Y0343845D01*
X0130216Y0342846D02*
X0155016Y0342846D01*
X0155016Y0341848D02*
X0130216Y0341848D01*
X0130216Y0340849D02*
X0155016Y0340849D01*
X0155016Y0339851D02*
X0130216Y0339851D01*
X0130216Y0338852D02*
X0155016Y0338852D01*
X0155016Y0337854D02*
X0130216Y0337854D01*
X0130216Y0336855D02*
X0155016Y0336855D01*
X0155016Y0335857D02*
X0130216Y0335857D01*
X0130216Y0334858D02*
X0155016Y0334858D01*
X0155016Y0333860D02*
X0130216Y0333860D01*
X0130216Y0332861D02*
X0155016Y0332861D01*
X0155016Y0331863D02*
X0130216Y0331863D01*
X0130216Y0330864D02*
X0155016Y0330864D01*
X0155016Y0329866D02*
X0130216Y0329866D01*
X0130216Y0328867D02*
X0155016Y0328867D01*
X0155016Y0327869D02*
X0130216Y0327869D01*
X0130216Y0326870D02*
X0155016Y0326870D01*
X0155016Y0325872D02*
X0130216Y0325872D01*
X0130216Y0324873D02*
X0155016Y0324873D01*
X0155016Y0323875D02*
X0130216Y0323875D01*
X0130216Y0322876D02*
X0155016Y0322876D01*
X0155016Y0321878D02*
X0130216Y0321878D01*
X0130216Y0320879D02*
X0155016Y0320879D01*
X0155016Y0319881D02*
X0130216Y0319881D01*
X0130216Y0318882D02*
X0155016Y0318882D01*
X0155016Y0317884D02*
X0130216Y0317884D01*
X0130216Y0316885D02*
X0155016Y0316885D01*
X0155016Y0315887D02*
X0130216Y0315887D01*
X0130216Y0314888D02*
X0155016Y0314888D01*
X0155016Y0313890D02*
X0130216Y0313890D01*
X0130216Y0312891D02*
X0155016Y0312891D01*
X0155016Y0311893D02*
X0130216Y0311893D01*
X0130216Y0310894D02*
X0155016Y0310894D01*
X0155016Y0309896D02*
X0130216Y0309896D01*
X0130238Y0349836D02*
X0154991Y0349836D01*
X0154868Y0350834D02*
X0130276Y0350834D01*
X0130457Y0351833D02*
X0154668Y0351833D01*
X0154397Y0352832D02*
X0130703Y0352832D01*
X0131035Y0353830D02*
X0153983Y0353830D01*
X0153488Y0354829D02*
X0131518Y0354829D01*
X0132107Y0355827D02*
X0152875Y0355827D01*
X0152066Y0356826D02*
X0132834Y0356826D01*
X0133760Y0357824D02*
X0151068Y0357824D01*
X0149782Y0358823D02*
X0134984Y0358823D01*
X0136740Y0359821D02*
X0147983Y0359821D01*
X0143422Y0360820D02*
X0140462Y0360820D01*
X0170562Y0352410D02*
X0171068Y0353929D01*
X0171784Y0355360D01*
X0172695Y0356676D01*
X0173784Y0357850D01*
X0175027Y0358857D01*
X0176401Y0359679D01*
X0177877Y0360298D01*
X0179425Y0360702D01*
X0181016Y0360882D01*
X0182616Y0360836D01*
X0184301Y0360802D01*
X0185964Y0360527D01*
X0187572Y0360019D01*
X0189090Y0359287D01*
X0190490Y0358347D01*
X0191741Y0357217D01*
X0192818Y0355921D01*
X0193700Y0354484D01*
X0194369Y0352936D01*
X0194810Y0351309D01*
X0195016Y0349636D01*
X0195016Y0309236D01*
X0170216Y0309236D01*
X0170216Y0349236D01*
X0170276Y0350836D01*
X0170562Y0352410D01*
X0170703Y0352832D02*
X0194397Y0352832D01*
X0194668Y0351833D02*
X0170457Y0351833D01*
X0170276Y0350834D02*
X0194868Y0350834D01*
X0194991Y0349836D02*
X0170238Y0349836D01*
X0170216Y0348837D02*
X0195016Y0348837D01*
X0195016Y0347839D02*
X0170216Y0347839D01*
X0170216Y0346840D02*
X0195016Y0346840D01*
X0195016Y0345842D02*
X0170216Y0345842D01*
X0170216Y0344843D02*
X0195016Y0344843D01*
X0195016Y0343845D02*
X0170216Y0343845D01*
X0170216Y0342846D02*
X0195016Y0342846D01*
X0195016Y0341848D02*
X0170216Y0341848D01*
X0170216Y0340849D02*
X0195016Y0340849D01*
X0195016Y0339851D02*
X0170216Y0339851D01*
X0170216Y0338852D02*
X0195016Y0338852D01*
X0195016Y0337854D02*
X0170216Y0337854D01*
X0170216Y0336855D02*
X0195016Y0336855D01*
X0195016Y0335857D02*
X0170216Y0335857D01*
X0170216Y0334858D02*
X0195016Y0334858D01*
X0195016Y0333860D02*
X0170216Y0333860D01*
X0170216Y0332861D02*
X0195016Y0332861D01*
X0195016Y0331863D02*
X0170216Y0331863D01*
X0170216Y0330864D02*
X0195016Y0330864D01*
X0195016Y0329866D02*
X0170216Y0329866D01*
X0170216Y0328867D02*
X0195016Y0328867D01*
X0195016Y0327869D02*
X0170216Y0327869D01*
X0170216Y0326870D02*
X0195016Y0326870D01*
X0195016Y0325872D02*
X0170216Y0325872D01*
X0170216Y0324873D02*
X0195016Y0324873D01*
X0195016Y0323875D02*
X0170216Y0323875D01*
X0170216Y0322876D02*
X0195016Y0322876D01*
X0195016Y0321878D02*
X0170216Y0321878D01*
X0170216Y0320879D02*
X0195016Y0320879D01*
X0195016Y0319881D02*
X0170216Y0319881D01*
X0170216Y0318882D02*
X0195016Y0318882D01*
X0195016Y0317884D02*
X0170216Y0317884D01*
X0170216Y0316885D02*
X0195016Y0316885D01*
X0195016Y0315887D02*
X0170216Y0315887D01*
X0170216Y0314888D02*
X0195016Y0314888D01*
X0195016Y0313890D02*
X0170216Y0313890D01*
X0170216Y0312891D02*
X0195016Y0312891D01*
X0195016Y0311893D02*
X0170216Y0311893D01*
X0170216Y0310894D02*
X0195016Y0310894D01*
X0195016Y0309896D02*
X0170216Y0309896D01*
X0171035Y0353830D02*
X0193983Y0353830D01*
X0193488Y0354829D02*
X0171518Y0354829D01*
X0172107Y0355827D02*
X0192875Y0355827D01*
X0192066Y0356826D02*
X0172834Y0356826D01*
X0173760Y0357824D02*
X0191068Y0357824D01*
X0189782Y0358823D02*
X0174984Y0358823D01*
X0176740Y0359821D02*
X0187983Y0359821D01*
X0183422Y0360820D02*
X0180462Y0360820D01*
X0210562Y0352410D02*
X0211068Y0353929D01*
X0211784Y0355360D01*
X0212695Y0356676D01*
X0213784Y0357850D01*
X0215027Y0358857D01*
X0216401Y0359679D01*
X0217877Y0360298D01*
X0219425Y0360702D01*
X0221016Y0360882D01*
X0222616Y0360836D01*
X0224301Y0360802D01*
X0225964Y0360527D01*
X0227572Y0360019D01*
X0229090Y0359287D01*
X0230490Y0358347D01*
X0231741Y0357217D01*
X0232818Y0355921D01*
X0233700Y0354484D01*
X0234369Y0352936D01*
X0234810Y0351309D01*
X0235016Y0349636D01*
X0235016Y0309236D01*
X0210216Y0309236D01*
X0210216Y0349236D01*
X0210276Y0350836D01*
X0210562Y0352410D01*
X0210703Y0352832D02*
X0234397Y0352832D01*
X0234668Y0351833D02*
X0210457Y0351833D01*
X0210276Y0350834D02*
X0234868Y0350834D01*
X0234991Y0349836D02*
X0210238Y0349836D01*
X0210216Y0348837D02*
X0235016Y0348837D01*
X0235016Y0347839D02*
X0210216Y0347839D01*
X0210216Y0346840D02*
X0235016Y0346840D01*
X0235016Y0345842D02*
X0210216Y0345842D01*
X0210216Y0344843D02*
X0235016Y0344843D01*
X0235016Y0343845D02*
X0210216Y0343845D01*
X0210216Y0342846D02*
X0235016Y0342846D01*
X0235016Y0341848D02*
X0210216Y0341848D01*
X0210216Y0340849D02*
X0235016Y0340849D01*
X0235016Y0339851D02*
X0210216Y0339851D01*
X0210216Y0338852D02*
X0235016Y0338852D01*
X0235016Y0337854D02*
X0210216Y0337854D01*
X0210216Y0336855D02*
X0235016Y0336855D01*
X0235016Y0335857D02*
X0210216Y0335857D01*
X0210216Y0334858D02*
X0235016Y0334858D01*
X0235016Y0333860D02*
X0210216Y0333860D01*
X0210216Y0332861D02*
X0235016Y0332861D01*
X0235016Y0331863D02*
X0210216Y0331863D01*
X0210216Y0330864D02*
X0235016Y0330864D01*
X0235016Y0329866D02*
X0210216Y0329866D01*
X0210216Y0328867D02*
X0235016Y0328867D01*
X0235016Y0327869D02*
X0210216Y0327869D01*
X0210216Y0326870D02*
X0235016Y0326870D01*
X0235016Y0325872D02*
X0210216Y0325872D01*
X0210216Y0324873D02*
X0235016Y0324873D01*
X0235016Y0323875D02*
X0210216Y0323875D01*
X0210216Y0322876D02*
X0235016Y0322876D01*
X0235016Y0321878D02*
X0210216Y0321878D01*
X0210216Y0320879D02*
X0235016Y0320879D01*
X0235016Y0319881D02*
X0210216Y0319881D01*
X0210216Y0318882D02*
X0235016Y0318882D01*
X0235016Y0317884D02*
X0210216Y0317884D01*
X0210216Y0316885D02*
X0235016Y0316885D01*
X0235016Y0315887D02*
X0210216Y0315887D01*
X0210216Y0314888D02*
X0235016Y0314888D01*
X0235016Y0313890D02*
X0210216Y0313890D01*
X0210216Y0312891D02*
X0235016Y0312891D01*
X0235016Y0311893D02*
X0210216Y0311893D01*
X0210216Y0310894D02*
X0235016Y0310894D01*
X0235016Y0309896D02*
X0210216Y0309896D01*
X0211035Y0353830D02*
X0233983Y0353830D01*
X0233488Y0354829D02*
X0211518Y0354829D01*
X0212107Y0355827D02*
X0232875Y0355827D01*
X0232066Y0356826D02*
X0212834Y0356826D01*
X0213760Y0357824D02*
X0231068Y0357824D01*
X0229782Y0358823D02*
X0214984Y0358823D01*
X0216740Y0359821D02*
X0227983Y0359821D01*
X0223422Y0360820D02*
X0220462Y0360820D01*
X0250562Y0352410D02*
X0251068Y0353929D01*
X0251784Y0355360D01*
X0252695Y0356676D01*
X0253784Y0357850D01*
X0255027Y0358857D01*
X0256401Y0359679D01*
X0257877Y0360298D01*
X0259425Y0360702D01*
X0261016Y0360882D01*
X0262616Y0360836D01*
X0264301Y0360802D01*
X0265964Y0360527D01*
X0267572Y0360019D01*
X0269090Y0359287D01*
X0270490Y0358347D01*
X0271741Y0357217D01*
X0272818Y0355921D01*
X0273700Y0354484D01*
X0274369Y0352936D01*
X0274810Y0351309D01*
X0275016Y0349636D01*
X0275016Y0309236D01*
X0250216Y0309236D01*
X0250216Y0349236D01*
X0250276Y0350836D01*
X0250562Y0352410D01*
X0250703Y0352832D02*
X0274397Y0352832D01*
X0274668Y0351833D02*
X0250457Y0351833D01*
X0250276Y0350834D02*
X0274868Y0350834D01*
X0274991Y0349836D02*
X0250238Y0349836D01*
X0250216Y0348837D02*
X0275016Y0348837D01*
X0275016Y0347839D02*
X0250216Y0347839D01*
X0250216Y0346840D02*
X0275016Y0346840D01*
X0275016Y0345842D02*
X0250216Y0345842D01*
X0250216Y0344843D02*
X0275016Y0344843D01*
X0275016Y0343845D02*
X0250216Y0343845D01*
X0250216Y0342846D02*
X0275016Y0342846D01*
X0275016Y0341848D02*
X0250216Y0341848D01*
X0250216Y0340849D02*
X0275016Y0340849D01*
X0275016Y0339851D02*
X0250216Y0339851D01*
X0250216Y0338852D02*
X0275016Y0338852D01*
X0275016Y0337854D02*
X0250216Y0337854D01*
X0250216Y0336855D02*
X0275016Y0336855D01*
X0275016Y0335857D02*
X0250216Y0335857D01*
X0250216Y0334858D02*
X0275016Y0334858D01*
X0275016Y0333860D02*
X0250216Y0333860D01*
X0250216Y0332861D02*
X0275016Y0332861D01*
X0275016Y0331863D02*
X0250216Y0331863D01*
X0250216Y0330864D02*
X0275016Y0330864D01*
X0275016Y0329866D02*
X0250216Y0329866D01*
X0250216Y0328867D02*
X0275016Y0328867D01*
X0275016Y0327869D02*
X0250216Y0327869D01*
X0250216Y0326870D02*
X0275016Y0326870D01*
X0275016Y0325872D02*
X0250216Y0325872D01*
X0250216Y0324873D02*
X0275016Y0324873D01*
X0275016Y0323875D02*
X0250216Y0323875D01*
X0250216Y0322876D02*
X0275016Y0322876D01*
X0275016Y0321878D02*
X0250216Y0321878D01*
X0250216Y0320879D02*
X0275016Y0320879D01*
X0275016Y0319881D02*
X0250216Y0319881D01*
X0250216Y0318882D02*
X0275016Y0318882D01*
X0275016Y0317884D02*
X0250216Y0317884D01*
X0250216Y0316885D02*
X0275016Y0316885D01*
X0275016Y0315887D02*
X0250216Y0315887D01*
X0250216Y0314888D02*
X0275016Y0314888D01*
X0275016Y0313890D02*
X0250216Y0313890D01*
X0250216Y0312891D02*
X0275016Y0312891D01*
X0275016Y0311893D02*
X0250216Y0311893D01*
X0250216Y0310894D02*
X0275016Y0310894D01*
X0275016Y0309896D02*
X0250216Y0309896D01*
X0251035Y0353830D02*
X0273983Y0353830D01*
X0273488Y0354829D02*
X0251518Y0354829D01*
X0252107Y0355827D02*
X0272875Y0355827D01*
X0272066Y0356826D02*
X0252834Y0356826D01*
X0253760Y0357824D02*
X0271068Y0357824D01*
X0269782Y0358823D02*
X0254984Y0358823D01*
X0256740Y0359821D02*
X0267983Y0359821D01*
X0263422Y0360820D02*
X0260462Y0360820D01*
X0290562Y0352410D02*
X0291068Y0353929D01*
X0291784Y0355360D01*
X0292695Y0356676D01*
X0293784Y0357850D01*
X0295027Y0358857D01*
X0296401Y0359679D01*
X0297877Y0360298D01*
X0299425Y0360702D01*
X0301016Y0360882D01*
X0302616Y0360836D01*
X0304301Y0360802D01*
X0305964Y0360527D01*
X0307572Y0360019D01*
X0309090Y0359287D01*
X0310490Y0358347D01*
X0311741Y0357217D01*
X0312818Y0355921D01*
X0313700Y0354484D01*
X0314369Y0352936D01*
X0314810Y0351309D01*
X0315016Y0349636D01*
X0315016Y0309236D01*
X0290216Y0309236D01*
X0290216Y0349236D01*
X0290276Y0350836D01*
X0290562Y0352410D01*
X0290703Y0352832D02*
X0314397Y0352832D01*
X0314668Y0351833D02*
X0290457Y0351833D01*
X0290276Y0350834D02*
X0314868Y0350834D01*
X0314991Y0349836D02*
X0290238Y0349836D01*
X0290216Y0348837D02*
X0315016Y0348837D01*
X0315016Y0347839D02*
X0290216Y0347839D01*
X0290216Y0346840D02*
X0315016Y0346840D01*
X0315016Y0345842D02*
X0290216Y0345842D01*
X0290216Y0344843D02*
X0315016Y0344843D01*
X0315016Y0343845D02*
X0290216Y0343845D01*
X0290216Y0342846D02*
X0315016Y0342846D01*
X0315016Y0341848D02*
X0290216Y0341848D01*
X0290216Y0340849D02*
X0315016Y0340849D01*
X0315016Y0339851D02*
X0290216Y0339851D01*
X0290216Y0338852D02*
X0315016Y0338852D01*
X0315016Y0337854D02*
X0290216Y0337854D01*
X0290216Y0336855D02*
X0315016Y0336855D01*
X0315016Y0335857D02*
X0290216Y0335857D01*
X0290216Y0334858D02*
X0315016Y0334858D01*
X0315016Y0333860D02*
X0290216Y0333860D01*
X0290216Y0332861D02*
X0315016Y0332861D01*
X0315016Y0331863D02*
X0290216Y0331863D01*
X0290216Y0330864D02*
X0315016Y0330864D01*
X0315016Y0329866D02*
X0290216Y0329866D01*
X0290216Y0328867D02*
X0315016Y0328867D01*
X0315016Y0327869D02*
X0290216Y0327869D01*
X0290216Y0326870D02*
X0315016Y0326870D01*
X0315016Y0325872D02*
X0290216Y0325872D01*
X0290216Y0324873D02*
X0315016Y0324873D01*
X0315016Y0323875D02*
X0290216Y0323875D01*
X0290216Y0322876D02*
X0315016Y0322876D01*
X0315016Y0321878D02*
X0290216Y0321878D01*
X0290216Y0320879D02*
X0315016Y0320879D01*
X0315016Y0319881D02*
X0290216Y0319881D01*
X0290216Y0318882D02*
X0315016Y0318882D01*
X0315016Y0317884D02*
X0290216Y0317884D01*
X0290216Y0316885D02*
X0315016Y0316885D01*
X0315016Y0315887D02*
X0290216Y0315887D01*
X0290216Y0314888D02*
X0315016Y0314888D01*
X0315016Y0313890D02*
X0290216Y0313890D01*
X0290216Y0312891D02*
X0315016Y0312891D01*
X0315016Y0311893D02*
X0290216Y0311893D01*
X0290216Y0310894D02*
X0315016Y0310894D01*
X0315016Y0309896D02*
X0290216Y0309896D01*
X0291035Y0353830D02*
X0313983Y0353830D01*
X0313488Y0354829D02*
X0291518Y0354829D01*
X0292107Y0355827D02*
X0312875Y0355827D01*
X0312066Y0356826D02*
X0292834Y0356826D01*
X0293760Y0357824D02*
X0311068Y0357824D01*
X0309782Y0358823D02*
X0294984Y0358823D01*
X0296740Y0359821D02*
X0307983Y0359821D01*
X0303422Y0360820D02*
X0300462Y0360820D01*
X0330562Y0352410D02*
X0331068Y0353929D01*
X0331784Y0355360D01*
X0332695Y0356676D01*
X0333784Y0357850D01*
X0335027Y0358857D01*
X0336401Y0359679D01*
X0337877Y0360298D01*
X0339425Y0360702D01*
X0341016Y0360882D01*
X0342616Y0360836D01*
X0344301Y0360802D01*
X0345964Y0360527D01*
X0347572Y0360019D01*
X0349090Y0359287D01*
X0350490Y0358347D01*
X0351741Y0357217D01*
X0352818Y0355921D01*
X0353700Y0354484D01*
X0354369Y0352936D01*
X0354810Y0351309D01*
X0355016Y0349636D01*
X0355016Y0309236D01*
X0330216Y0309236D01*
X0330216Y0349236D01*
X0330276Y0350836D01*
X0330562Y0352410D01*
X0330703Y0352832D02*
X0354397Y0352832D01*
X0354668Y0351833D02*
X0330457Y0351833D01*
X0330276Y0350834D02*
X0354868Y0350834D01*
X0354991Y0349836D02*
X0330238Y0349836D01*
X0330216Y0348837D02*
X0355016Y0348837D01*
X0355016Y0347839D02*
X0330216Y0347839D01*
X0330216Y0346840D02*
X0355016Y0346840D01*
X0355016Y0345842D02*
X0330216Y0345842D01*
X0330216Y0344843D02*
X0355016Y0344843D01*
X0355016Y0343845D02*
X0330216Y0343845D01*
X0330216Y0342846D02*
X0355016Y0342846D01*
X0355016Y0341848D02*
X0330216Y0341848D01*
X0330216Y0340849D02*
X0355016Y0340849D01*
X0355016Y0339851D02*
X0330216Y0339851D01*
X0330216Y0338852D02*
X0355016Y0338852D01*
X0355016Y0337854D02*
X0330216Y0337854D01*
X0330216Y0336855D02*
X0355016Y0336855D01*
X0355016Y0335857D02*
X0330216Y0335857D01*
X0330216Y0334858D02*
X0355016Y0334858D01*
X0355016Y0333860D02*
X0330216Y0333860D01*
X0330216Y0332861D02*
X0355016Y0332861D01*
X0355016Y0331863D02*
X0330216Y0331863D01*
X0330216Y0330864D02*
X0355016Y0330864D01*
X0355016Y0329866D02*
X0330216Y0329866D01*
X0330216Y0328867D02*
X0355016Y0328867D01*
X0355016Y0327869D02*
X0330216Y0327869D01*
X0330216Y0326870D02*
X0355016Y0326870D01*
X0355016Y0325872D02*
X0330216Y0325872D01*
X0330216Y0324873D02*
X0355016Y0324873D01*
X0355016Y0323875D02*
X0330216Y0323875D01*
X0330216Y0322876D02*
X0355016Y0322876D01*
X0355016Y0321878D02*
X0330216Y0321878D01*
X0330216Y0320879D02*
X0355016Y0320879D01*
X0355016Y0319881D02*
X0330216Y0319881D01*
X0330216Y0318882D02*
X0355016Y0318882D01*
X0355016Y0317884D02*
X0330216Y0317884D01*
X0330216Y0316885D02*
X0355016Y0316885D01*
X0355016Y0315887D02*
X0330216Y0315887D01*
X0330216Y0314888D02*
X0355016Y0314888D01*
X0355016Y0313890D02*
X0330216Y0313890D01*
X0330216Y0312891D02*
X0355016Y0312891D01*
X0355016Y0311893D02*
X0330216Y0311893D01*
X0330216Y0310894D02*
X0355016Y0310894D01*
X0355016Y0309896D02*
X0330216Y0309896D01*
X0331035Y0353830D02*
X0353983Y0353830D01*
X0353488Y0354829D02*
X0331518Y0354829D01*
X0332107Y0355827D02*
X0352875Y0355827D01*
X0352066Y0356826D02*
X0332834Y0356826D01*
X0333760Y0357824D02*
X0351068Y0357824D01*
X0349782Y0358823D02*
X0334984Y0358823D01*
X0336740Y0359821D02*
X0347983Y0359821D01*
X0343422Y0360820D02*
X0340462Y0360820D01*
X0370562Y0352410D02*
X0371068Y0353929D01*
X0371784Y0355360D01*
X0372695Y0356676D01*
X0373784Y0357850D01*
X0375027Y0358857D01*
X0376401Y0359679D01*
X0377877Y0360298D01*
X0379425Y0360702D01*
X0381016Y0360882D01*
X0382616Y0360836D01*
X0384301Y0360802D01*
X0385964Y0360527D01*
X0387572Y0360019D01*
X0389090Y0359287D01*
X0390490Y0358347D01*
X0391741Y0357217D01*
X0392818Y0355921D01*
X0393700Y0354484D01*
X0394369Y0352936D01*
X0394810Y0351309D01*
X0395016Y0349636D01*
X0395016Y0309236D01*
X0370216Y0309236D01*
X0370216Y0349236D01*
X0370276Y0350836D01*
X0370562Y0352410D01*
X0370703Y0352832D02*
X0394397Y0352832D01*
X0394668Y0351833D02*
X0370457Y0351833D01*
X0370276Y0350834D02*
X0394868Y0350834D01*
X0394991Y0349836D02*
X0370238Y0349836D01*
X0370216Y0348837D02*
X0395016Y0348837D01*
X0395016Y0347839D02*
X0370216Y0347839D01*
X0370216Y0346840D02*
X0395016Y0346840D01*
X0395016Y0345842D02*
X0370216Y0345842D01*
X0370216Y0344843D02*
X0395016Y0344843D01*
X0395016Y0343845D02*
X0370216Y0343845D01*
X0370216Y0342846D02*
X0395016Y0342846D01*
X0395016Y0341848D02*
X0370216Y0341848D01*
X0370216Y0340849D02*
X0395016Y0340849D01*
X0395016Y0339851D02*
X0370216Y0339851D01*
X0370216Y0338852D02*
X0395016Y0338852D01*
X0395016Y0337854D02*
X0370216Y0337854D01*
X0370216Y0336855D02*
X0395016Y0336855D01*
X0395016Y0335857D02*
X0370216Y0335857D01*
X0370216Y0334858D02*
X0395016Y0334858D01*
X0395016Y0333860D02*
X0370216Y0333860D01*
X0370216Y0332861D02*
X0395016Y0332861D01*
X0395016Y0331863D02*
X0370216Y0331863D01*
X0370216Y0330864D02*
X0395016Y0330864D01*
X0395016Y0329866D02*
X0370216Y0329866D01*
X0370216Y0328867D02*
X0395016Y0328867D01*
X0395016Y0327869D02*
X0370216Y0327869D01*
X0370216Y0326870D02*
X0395016Y0326870D01*
X0395016Y0325872D02*
X0370216Y0325872D01*
X0370216Y0324873D02*
X0395016Y0324873D01*
X0395016Y0323875D02*
X0370216Y0323875D01*
X0370216Y0322876D02*
X0395016Y0322876D01*
X0395016Y0321878D02*
X0370216Y0321878D01*
X0370216Y0320879D02*
X0395016Y0320879D01*
X0395016Y0319881D02*
X0370216Y0319881D01*
X0370216Y0318882D02*
X0395016Y0318882D01*
X0395016Y0317884D02*
X0370216Y0317884D01*
X0370216Y0316885D02*
X0395016Y0316885D01*
X0395016Y0315887D02*
X0370216Y0315887D01*
X0370216Y0314888D02*
X0395016Y0314888D01*
X0395016Y0313890D02*
X0370216Y0313890D01*
X0370216Y0312891D02*
X0395016Y0312891D01*
X0395016Y0311893D02*
X0370216Y0311893D01*
X0370216Y0310894D02*
X0395016Y0310894D01*
X0395016Y0309896D02*
X0370216Y0309896D01*
X0371035Y0353830D02*
X0393983Y0353830D01*
X0393488Y0354829D02*
X0371518Y0354829D01*
X0372107Y0355827D02*
X0392875Y0355827D01*
X0392066Y0356826D02*
X0372834Y0356826D01*
X0373760Y0357824D02*
X0391068Y0357824D01*
X0389782Y0358823D02*
X0374984Y0358823D01*
X0376740Y0359821D02*
X0387983Y0359821D01*
X0383422Y0360820D02*
X0380462Y0360820D01*
X0435073Y0383421D02*
X0434454Y0384897D01*
X0434050Y0386446D01*
X0433869Y0388036D01*
X0433916Y0389636D01*
X0433950Y0391322D01*
X0434225Y0392985D01*
X0434733Y0394592D01*
X0435464Y0396111D01*
X0436405Y0397510D01*
X0437535Y0398761D01*
X0438831Y0399839D01*
X0440268Y0400721D01*
X0441815Y0401389D01*
X0443442Y0401831D01*
X0445116Y0402036D01*
X0485516Y0402036D01*
X0485516Y0377236D01*
X0445516Y0377236D01*
X0443916Y0377297D01*
X0442341Y0377583D01*
X0440823Y0378089D01*
X0439392Y0378805D01*
X0438076Y0379716D01*
X0436902Y0380804D01*
X0435895Y0382048D01*
X0435073Y0383421D01*
X0434920Y0383785D02*
X0485516Y0383785D01*
X0485516Y0382787D02*
X0435452Y0382787D01*
X0436105Y0381788D02*
X0485516Y0381788D01*
X0485516Y0380790D02*
X0436918Y0380790D01*
X0437995Y0379791D02*
X0485516Y0379791D01*
X0485516Y0378793D02*
X0439416Y0378793D01*
X0441707Y0377794D02*
X0485516Y0377794D01*
X0485516Y0384784D02*
X0434501Y0384784D01*
X0434223Y0385782D02*
X0485516Y0385782D01*
X0485516Y0386781D02*
X0434012Y0386781D01*
X0433899Y0387779D02*
X0485516Y0387779D01*
X0485516Y0388778D02*
X0433891Y0388778D01*
X0433918Y0389776D02*
X0485516Y0389776D01*
X0485516Y0390775D02*
X0433939Y0390775D01*
X0434025Y0391773D02*
X0485516Y0391773D01*
X0485516Y0392772D02*
X0434189Y0392772D01*
X0434473Y0393770D02*
X0485516Y0393770D01*
X0485516Y0394769D02*
X0434818Y0394769D01*
X0435299Y0395768D02*
X0485516Y0395768D01*
X0485516Y0396766D02*
X0435905Y0396766D01*
X0436635Y0397765D02*
X0485516Y0397765D01*
X0485516Y0398763D02*
X0437537Y0398763D01*
X0438739Y0399762D02*
X0485516Y0399762D01*
X0485516Y0400760D02*
X0440359Y0400760D01*
X0443177Y0401759D02*
X0485516Y0401759D01*
X0485516Y0412236D02*
X0445516Y0412236D01*
X0443916Y0412297D01*
X0442341Y0412583D01*
X0440823Y0413089D01*
X0439392Y0413805D01*
X0438076Y0414716D01*
X0436902Y0415804D01*
X0435895Y0417048D01*
X0435073Y0418421D01*
X0434454Y0419897D01*
X0434050Y0421446D01*
X0433869Y0423036D01*
X0433916Y0424636D01*
X0433950Y0426322D01*
X0434225Y0427985D01*
X0434733Y0429592D01*
X0435464Y0431111D01*
X0436405Y0432510D01*
X0437535Y0433761D01*
X0438831Y0434839D01*
X0440268Y0435721D01*
X0441815Y0436389D01*
X0443442Y0436831D01*
X0445116Y0437036D01*
X0485516Y0437036D01*
X0485516Y0412236D01*
X0485516Y0412742D02*
X0441863Y0412742D01*
X0439520Y0413741D02*
X0485516Y0413741D01*
X0485516Y0414739D02*
X0438051Y0414739D01*
X0436974Y0415738D02*
X0485516Y0415738D01*
X0485516Y0416736D02*
X0436147Y0416736D01*
X0435484Y0417735D02*
X0485516Y0417735D01*
X0485516Y0418733D02*
X0434942Y0418733D01*
X0434523Y0419732D02*
X0485516Y0419732D01*
X0485516Y0420730D02*
X0434237Y0420730D01*
X0434018Y0421729D02*
X0485516Y0421729D01*
X0485516Y0422727D02*
X0433904Y0422727D01*
X0433889Y0423726D02*
X0485516Y0423726D01*
X0485516Y0424724D02*
X0433917Y0424724D01*
X0433938Y0425723D02*
X0485516Y0425723D01*
X0485516Y0426721D02*
X0434016Y0426721D01*
X0434181Y0427720D02*
X0485516Y0427720D01*
X0485516Y0428718D02*
X0434456Y0428718D01*
X0434793Y0429717D02*
X0485516Y0429717D01*
X0485516Y0430715D02*
X0435274Y0430715D01*
X0435870Y0431714D02*
X0485516Y0431714D01*
X0485516Y0432712D02*
X0436588Y0432712D01*
X0437489Y0433711D02*
X0485516Y0433711D01*
X0485516Y0434709D02*
X0438676Y0434709D01*
X0440247Y0435708D02*
X0485516Y0435708D01*
X0485516Y0436706D02*
X0442985Y0436706D01*
X0443897Y0447060D02*
X0442322Y0447347D01*
X0440803Y0447853D01*
X0439372Y0448569D01*
X0438056Y0449480D01*
X0436883Y0450568D01*
X0435875Y0451812D01*
X0435053Y0453185D01*
X0434434Y0454661D01*
X0434030Y0456210D01*
X0433850Y0457800D01*
X0433896Y0459400D01*
X0433931Y0461085D01*
X0434205Y0462749D01*
X0434713Y0464356D01*
X0435445Y0465875D01*
X0436385Y0467274D01*
X0437515Y0468525D01*
X0438812Y0469602D01*
X0440248Y0470484D01*
X0441796Y0471153D01*
X0443423Y0471595D01*
X0445096Y0471800D01*
X0485496Y0471800D01*
X0485496Y0447000D01*
X0445496Y0447000D01*
X0443897Y0447060D01*
X0441291Y0447690D02*
X0485496Y0447690D01*
X0485496Y0448689D02*
X0439199Y0448689D01*
X0437833Y0449687D02*
X0485496Y0449687D01*
X0485496Y0450686D02*
X0436787Y0450686D01*
X0435978Y0451684D02*
X0485496Y0451684D01*
X0485496Y0452683D02*
X0435354Y0452683D01*
X0434845Y0453681D02*
X0485496Y0453681D01*
X0485496Y0454680D02*
X0434429Y0454680D01*
X0434169Y0455678D02*
X0485496Y0455678D01*
X0485496Y0456677D02*
X0433977Y0456677D01*
X0433864Y0457675D02*
X0485496Y0457675D01*
X0485496Y0458674D02*
X0433875Y0458674D01*
X0433902Y0459672D02*
X0485496Y0459672D01*
X0485496Y0460671D02*
X0433922Y0460671D01*
X0434027Y0461669D02*
X0485496Y0461669D01*
X0485496Y0462668D02*
X0434192Y0462668D01*
X0434495Y0463666D02*
X0485496Y0463666D01*
X0485496Y0464665D02*
X0434862Y0464665D01*
X0435343Y0465663D02*
X0485496Y0465663D01*
X0485496Y0466662D02*
X0435974Y0466662D01*
X0436734Y0467660D02*
X0485496Y0467660D01*
X0485496Y0468659D02*
X0437676Y0468659D01*
X0438901Y0469657D02*
X0485496Y0469657D01*
X0485496Y0470656D02*
X0440645Y0470656D01*
X0443910Y0471654D02*
X0485496Y0471654D01*
X0485516Y0482236D02*
X0445516Y0482236D01*
X0443916Y0482297D01*
X0442341Y0482583D01*
X0440823Y0483089D01*
X0439392Y0483805D01*
X0438076Y0484716D01*
X0436902Y0485804D01*
X0435895Y0487048D01*
X0435073Y0488421D01*
X0434454Y0489897D01*
X0434050Y0491446D01*
X0433869Y0493036D01*
X0433916Y0494636D01*
X0433950Y0496322D01*
X0434225Y0497985D01*
X0434733Y0499592D01*
X0435464Y0501111D01*
X0436405Y0502510D01*
X0437535Y0503761D01*
X0438831Y0504839D01*
X0440268Y0505721D01*
X0441815Y0506389D01*
X0443442Y0506831D01*
X0445116Y0507036D01*
X0485516Y0507036D01*
X0485516Y0482236D01*
X0485516Y0482638D02*
X0442176Y0482638D01*
X0439728Y0483637D02*
X0485516Y0483637D01*
X0485516Y0484635D02*
X0438193Y0484635D01*
X0437086Y0485634D02*
X0485516Y0485634D01*
X0485516Y0486632D02*
X0436231Y0486632D01*
X0435546Y0487631D02*
X0485516Y0487631D01*
X0485516Y0488629D02*
X0434986Y0488629D01*
X0434567Y0489628D02*
X0485516Y0489628D01*
X0485516Y0490626D02*
X0434264Y0490626D01*
X0434030Y0491625D02*
X0485516Y0491625D01*
X0485516Y0492623D02*
X0433916Y0492623D01*
X0433886Y0493622D02*
X0485516Y0493622D01*
X0485516Y0494620D02*
X0433915Y0494620D01*
X0433936Y0495619D02*
X0485516Y0495619D01*
X0485516Y0496617D02*
X0433999Y0496617D01*
X0434164Y0497616D02*
X0485516Y0497616D01*
X0485516Y0498614D02*
X0434423Y0498614D01*
X0434742Y0499613D02*
X0485516Y0499613D01*
X0485516Y0500611D02*
X0435224Y0500611D01*
X0435800Y0501610D02*
X0485516Y0501610D01*
X0485516Y0502608D02*
X0436493Y0502608D01*
X0437395Y0503607D02*
X0485516Y0503607D01*
X0485516Y0504605D02*
X0438550Y0504605D01*
X0440078Y0505604D02*
X0485516Y0505604D01*
X0485516Y0506602D02*
X0442601Y0506602D01*
X0443916Y0517297D02*
X0442341Y0517583D01*
X0440823Y0518089D01*
X0439392Y0518805D01*
X0438076Y0519716D01*
X0436902Y0520804D01*
X0435895Y0522048D01*
X0435073Y0523421D01*
X0434454Y0524897D01*
X0434050Y0526446D01*
X0433869Y0528036D01*
X0433916Y0529636D01*
X0433950Y0531322D01*
X0434225Y0532985D01*
X0434733Y0534592D01*
X0435464Y0536111D01*
X0436405Y0537510D01*
X0437535Y0538761D01*
X0438831Y0539839D01*
X0440268Y0540721D01*
X0441815Y0541389D01*
X0443442Y0541831D01*
X0445116Y0542036D01*
X0485516Y0542036D01*
X0485516Y0517236D01*
X0445516Y0517236D01*
X0443916Y0517297D01*
X0442332Y0517586D02*
X0485516Y0517586D01*
X0485516Y0518584D02*
X0439832Y0518584D01*
X0438268Y0519583D02*
X0485516Y0519583D01*
X0485516Y0520581D02*
X0437143Y0520581D01*
X0436274Y0521580D02*
X0485516Y0521580D01*
X0485516Y0522578D02*
X0435577Y0522578D01*
X0435008Y0523577D02*
X0485516Y0523577D01*
X0485516Y0524575D02*
X0434589Y0524575D01*
X0434277Y0525574D02*
X0485516Y0525574D01*
X0485516Y0526572D02*
X0434036Y0526572D01*
X0433922Y0527571D02*
X0485516Y0527571D01*
X0485516Y0528570D02*
X0433885Y0528570D01*
X0433914Y0529568D02*
X0485516Y0529568D01*
X0485516Y0530567D02*
X0433935Y0530567D01*
X0433990Y0531565D02*
X0485516Y0531565D01*
X0485516Y0532564D02*
X0434155Y0532564D01*
X0434407Y0533562D02*
X0485516Y0533562D01*
X0485516Y0534561D02*
X0434723Y0534561D01*
X0435198Y0535559D02*
X0485516Y0535559D01*
X0485516Y0536558D02*
X0435765Y0536558D01*
X0436446Y0537556D02*
X0485516Y0537556D01*
X0485516Y0538555D02*
X0437348Y0538555D01*
X0438488Y0539553D02*
X0485516Y0539553D01*
X0485516Y0540552D02*
X0439993Y0540552D01*
X0442409Y0541550D02*
X0485516Y0541550D01*
X0091362Y0531236D02*
X0091316Y0529636D01*
X0091281Y0527951D01*
X0091007Y0526287D01*
X0090499Y0524680D01*
X0089767Y0523161D01*
X0088826Y0521762D01*
X0087696Y0520511D01*
X0086400Y0519434D01*
X0084963Y0518552D01*
X0083416Y0517883D01*
X0081789Y0517442D01*
X0080116Y0517236D01*
X0039716Y0517236D01*
X0039716Y0542036D01*
X0079716Y0542036D01*
X0081315Y0541976D01*
X0082890Y0541690D01*
X0084408Y0541184D01*
X0085840Y0540468D01*
X0087155Y0539556D01*
X0088329Y0538468D01*
X0089337Y0537225D01*
X0090158Y0535851D01*
X0090777Y0534375D01*
X0091181Y0532826D01*
X0091362Y0531236D01*
X0091324Y0531565D02*
X0039716Y0531565D01*
X0039716Y0530567D02*
X0091343Y0530567D01*
X0091314Y0529568D02*
X0039716Y0529568D01*
X0039716Y0528570D02*
X0091294Y0528570D01*
X0091218Y0527571D02*
X0039716Y0527571D01*
X0039716Y0526572D02*
X0091054Y0526572D01*
X0090781Y0525574D02*
X0039716Y0525574D01*
X0039716Y0524575D02*
X0090448Y0524575D01*
X0089967Y0523577D02*
X0039716Y0523577D01*
X0039716Y0522578D02*
X0089375Y0522578D01*
X0088662Y0521580D02*
X0039716Y0521580D01*
X0039716Y0520581D02*
X0087760Y0520581D01*
X0086579Y0519583D02*
X0039716Y0519583D01*
X0039716Y0518584D02*
X0085016Y0518584D01*
X0082320Y0517586D02*
X0039716Y0517586D01*
X0039716Y0507036D02*
X0079716Y0507036D01*
X0081315Y0506976D01*
X0082890Y0506690D01*
X0084408Y0506184D01*
X0085840Y0505468D01*
X0087155Y0504556D01*
X0088329Y0503468D01*
X0089337Y0502225D01*
X0090158Y0500851D01*
X0090777Y0499375D01*
X0091181Y0497826D01*
X0091362Y0496236D01*
X0091316Y0494636D01*
X0091281Y0492951D01*
X0091007Y0491287D01*
X0090499Y0489680D01*
X0089767Y0488161D01*
X0088826Y0486762D01*
X0087696Y0485511D01*
X0086400Y0484434D01*
X0084963Y0483552D01*
X0083416Y0482883D01*
X0081789Y0482442D01*
X0080116Y0482236D01*
X0039716Y0482236D01*
X0039716Y0507036D01*
X0039716Y0506602D02*
X0083152Y0506602D01*
X0085568Y0505604D02*
X0039716Y0505604D01*
X0039716Y0504605D02*
X0087085Y0504605D01*
X0088179Y0503607D02*
X0039716Y0503607D01*
X0039716Y0502608D02*
X0089026Y0502608D01*
X0089705Y0501610D02*
X0039716Y0501610D01*
X0039716Y0500611D02*
X0090259Y0500611D01*
X0090678Y0499613D02*
X0039716Y0499613D01*
X0039716Y0498614D02*
X0090976Y0498614D01*
X0091205Y0497616D02*
X0039716Y0497616D01*
X0039716Y0496617D02*
X0091319Y0496617D01*
X0091344Y0495619D02*
X0039716Y0495619D01*
X0039716Y0494620D02*
X0091315Y0494620D01*
X0091295Y0493622D02*
X0039716Y0493622D01*
X0039716Y0492623D02*
X0091227Y0492623D01*
X0091062Y0491625D02*
X0039716Y0491625D01*
X0039716Y0490626D02*
X0090798Y0490626D01*
X0090473Y0489628D02*
X0039716Y0489628D01*
X0039716Y0488629D02*
X0089992Y0488629D01*
X0089410Y0487631D02*
X0039716Y0487631D01*
X0039716Y0486632D02*
X0088709Y0486632D01*
X0087807Y0485634D02*
X0039716Y0485634D01*
X0039716Y0484635D02*
X0086642Y0484635D01*
X0085101Y0483637D02*
X0039716Y0483637D01*
X0039716Y0482638D02*
X0082512Y0482638D01*
X0081315Y0471976D02*
X0079716Y0472036D01*
X0039716Y0472036D01*
X0039716Y0447236D01*
X0080116Y0447236D01*
X0081789Y0447442D01*
X0083416Y0447883D01*
X0084963Y0448552D01*
X0086400Y0449434D01*
X0087696Y0450511D01*
X0088826Y0451762D01*
X0089767Y0453161D01*
X0090499Y0454680D01*
X0091007Y0456287D01*
X0091281Y0457951D01*
X0091316Y0459636D01*
X0091362Y0461236D01*
X0091181Y0462826D01*
X0090777Y0464375D01*
X0090158Y0465851D01*
X0089337Y0467225D01*
X0088329Y0468468D01*
X0087155Y0469556D01*
X0085840Y0470468D01*
X0084408Y0471184D01*
X0082890Y0471690D01*
X0081315Y0471976D01*
X0082996Y0471654D02*
X0039716Y0471654D01*
X0039716Y0470656D02*
X0085463Y0470656D01*
X0087010Y0469657D02*
X0039716Y0469657D01*
X0039716Y0468659D02*
X0088123Y0468659D01*
X0088984Y0467660D02*
X0039716Y0467660D01*
X0039716Y0466662D02*
X0089673Y0466662D01*
X0090237Y0465663D02*
X0039716Y0465663D01*
X0039716Y0464665D02*
X0090656Y0464665D01*
X0090962Y0463666D02*
X0039716Y0463666D01*
X0039716Y0462668D02*
X0091199Y0462668D01*
X0091313Y0461669D02*
X0039716Y0461669D01*
X0039716Y0460671D02*
X0091346Y0460671D01*
X0091317Y0459672D02*
X0039716Y0459672D01*
X0039716Y0458674D02*
X0091296Y0458674D01*
X0091235Y0457675D02*
X0039716Y0457675D01*
X0039716Y0456677D02*
X0091071Y0456677D01*
X0090814Y0455678D02*
X0039716Y0455678D01*
X0039716Y0454680D02*
X0090498Y0454680D01*
X0090017Y0453681D02*
X0039716Y0453681D01*
X0039716Y0452683D02*
X0089445Y0452683D01*
X0088756Y0451684D02*
X0039716Y0451684D01*
X0039716Y0450686D02*
X0087854Y0450686D01*
X0086705Y0449687D02*
X0039716Y0449687D01*
X0039716Y0448689D02*
X0085186Y0448689D01*
X0082704Y0447690D02*
X0039716Y0447690D01*
X0039716Y0437036D02*
X0079716Y0437036D01*
X0081315Y0436976D01*
X0082890Y0436690D01*
X0084408Y0436184D01*
X0085840Y0435468D01*
X0087155Y0434556D01*
X0088329Y0433468D01*
X0089337Y0432225D01*
X0090158Y0430851D01*
X0090777Y0429375D01*
X0091181Y0427826D01*
X0091362Y0426236D01*
X0091316Y0424636D01*
X0091281Y0422951D01*
X0091007Y0421287D01*
X0090499Y0419680D01*
X0089767Y0418161D01*
X0088826Y0416762D01*
X0087696Y0415511D01*
X0086400Y0414434D01*
X0084963Y0413552D01*
X0083416Y0412883D01*
X0081789Y0412442D01*
X0080116Y0412236D01*
X0039716Y0412236D01*
X0039716Y0437036D01*
X0039716Y0436706D02*
X0082797Y0436706D01*
X0085359Y0435708D02*
X0039716Y0435708D01*
X0039716Y0434709D02*
X0086934Y0434709D01*
X0088067Y0433711D02*
X0039716Y0433711D01*
X0039716Y0432712D02*
X0088941Y0432712D01*
X0089642Y0431714D02*
X0039716Y0431714D01*
X0039716Y0430715D02*
X0090215Y0430715D01*
X0090634Y0429717D02*
X0039716Y0429717D01*
X0039716Y0428718D02*
X0090949Y0428718D01*
X0091193Y0427720D02*
X0039716Y0427720D01*
X0039716Y0426721D02*
X0091307Y0426721D01*
X0091347Y0425723D02*
X0039716Y0425723D01*
X0039716Y0424724D02*
X0091318Y0424724D01*
X0091297Y0423726D02*
X0039716Y0423726D01*
X0039716Y0422727D02*
X0091244Y0422727D01*
X0091079Y0421729D02*
X0039716Y0421729D01*
X0039716Y0420730D02*
X0090831Y0420730D01*
X0090515Y0419732D02*
X0039716Y0419732D01*
X0039716Y0418733D02*
X0090042Y0418733D01*
X0089480Y0417735D02*
X0039716Y0417735D01*
X0039716Y0416736D02*
X0088803Y0416736D01*
X0087901Y0415738D02*
X0039716Y0415738D01*
X0039716Y0414739D02*
X0086767Y0414739D01*
X0085271Y0413741D02*
X0039716Y0413741D01*
X0039716Y0412742D02*
X0082896Y0412742D01*
X0081315Y0401976D02*
X0079716Y0402036D01*
X0039716Y0402036D01*
X0039716Y0377236D01*
X0080116Y0377236D01*
X0081789Y0377442D01*
X0083416Y0377883D01*
X0084963Y0378552D01*
X0086400Y0379434D01*
X0087696Y0380511D01*
X0088826Y0381762D01*
X0089767Y0383161D01*
X0090499Y0384680D01*
X0091007Y0386287D01*
X0091281Y0387951D01*
X0091316Y0389636D01*
X0091362Y0391236D01*
X0091181Y0392826D01*
X0090777Y0394375D01*
X0090158Y0395851D01*
X0089337Y0397225D01*
X0088329Y0398468D01*
X0087155Y0399556D01*
X0085840Y0400468D01*
X0084408Y0401184D01*
X0082890Y0401690D01*
X0081315Y0401976D01*
X0082511Y0401759D02*
X0039716Y0401759D01*
X0039716Y0400760D02*
X0085255Y0400760D01*
X0086859Y0399762D02*
X0039716Y0399762D01*
X0039716Y0398763D02*
X0088011Y0398763D01*
X0088899Y0397765D02*
X0039716Y0397765D01*
X0039716Y0396766D02*
X0089611Y0396766D01*
X0090193Y0395768D02*
X0039716Y0395768D01*
X0039716Y0394769D02*
X0090612Y0394769D01*
X0090935Y0393770D02*
X0039716Y0393770D01*
X0039716Y0392772D02*
X0091187Y0392772D01*
X0091301Y0391773D02*
X0039716Y0391773D01*
X0039716Y0390775D02*
X0091349Y0390775D01*
X0091320Y0389776D02*
X0039716Y0389776D01*
X0039716Y0388778D02*
X0091298Y0388778D01*
X0091253Y0387779D02*
X0039716Y0387779D01*
X0039716Y0386781D02*
X0091088Y0386781D01*
X0090847Y0385782D02*
X0039716Y0385782D01*
X0039716Y0384784D02*
X0090531Y0384784D01*
X0090067Y0383785D02*
X0039716Y0383785D01*
X0039716Y0382787D02*
X0089515Y0382787D01*
X0088844Y0381788D02*
X0039716Y0381788D01*
X0039716Y0380790D02*
X0087948Y0380790D01*
X0086830Y0379791D02*
X0039716Y0379791D01*
X0039716Y0378793D02*
X0085356Y0378793D01*
X0083088Y0377794D02*
X0039716Y0377794D01*
X0039716Y0532564D02*
X0091211Y0532564D01*
X0090989Y0533562D02*
X0039716Y0533562D01*
X0039716Y0534561D02*
X0090700Y0534561D01*
X0090281Y0535559D02*
X0039716Y0535559D01*
X0039716Y0536558D02*
X0089736Y0536558D01*
X0089068Y0537556D02*
X0039716Y0537556D01*
X0039716Y0538555D02*
X0088236Y0538555D01*
X0087159Y0539553D02*
X0039716Y0539553D01*
X0039716Y0540552D02*
X0085672Y0540552D01*
X0083308Y0541550D02*
X0039716Y0541550D01*
D14*
X0182470Y0425935D03*
X0182470Y0413337D03*
X0202761Y0413337D03*
X0202761Y0425935D03*
X0217470Y0425935D03*
X0217470Y0413337D03*
X0237761Y0413337D03*
X0237761Y0425935D03*
X0252470Y0425935D03*
X0252470Y0413337D03*
X0272761Y0413337D03*
X0272761Y0425935D03*
X0287470Y0425935D03*
X0287470Y0413337D03*
X0307761Y0413337D03*
X0307761Y0425935D03*
X0322470Y0425935D03*
X0322470Y0413337D03*
X0342761Y0413337D03*
X0342761Y0425935D03*
D15*
X0077114Y0334636D03*
X0045618Y0334636D03*
D16*
X0046011Y0325778D03*
X0070224Y0349991D03*
D17*
X0091494Y0334479D03*
X0091494Y0324636D03*
X0091494Y0314794D03*
X0113738Y0314794D03*
X0113738Y0324636D03*
X0113738Y0334479D03*
D18*
X0102616Y0330542D03*
X0102616Y0318731D03*
X0395440Y0486900D03*
X0407251Y0486900D03*
D19*
X0402192Y0439400D03*
X0395499Y0439400D03*
X0374067Y0439650D03*
X0367374Y0439650D03*
X0370317Y0422525D03*
X0363624Y0422525D03*
X0335962Y0403836D03*
X0329269Y0403836D03*
X0339749Y0372400D03*
X0346442Y0372400D03*
X0378749Y0372600D03*
X0385442Y0372600D03*
X0305462Y0373036D03*
X0298769Y0373036D03*
X0300962Y0403611D03*
X0294269Y0403611D03*
X0265862Y0403836D03*
X0259169Y0403836D03*
X0259249Y0372600D03*
X0265942Y0372600D03*
X0231062Y0403336D03*
X0224369Y0403336D03*
X0225842Y0372600D03*
X0219149Y0372600D03*
X0195362Y0403586D03*
X0188669Y0403586D03*
X0185742Y0372900D03*
X0179049Y0372900D03*
X0146042Y0373000D03*
X0139349Y0373000D03*
X0095942Y0351900D03*
X0089249Y0351900D03*
D20*
X0133966Y0389250D03*
X0151288Y0389250D03*
X0173666Y0389150D03*
X0190988Y0389150D03*
X0213766Y0388850D03*
X0231088Y0388850D03*
X0253866Y0388850D03*
X0271188Y0388850D03*
X0292352Y0389030D03*
X0309675Y0389030D03*
X0334366Y0388650D03*
X0351688Y0388650D03*
X0373366Y0388850D03*
X0390688Y0388850D03*
D21*
X0387832Y0424518D02*
X0387242Y0424518D01*
X0387185Y0424529D01*
X0387137Y0424561D01*
X0387105Y0424609D01*
X0387094Y0424666D01*
X0387094Y0426634D01*
X0387105Y0426691D01*
X0387137Y0426739D01*
X0387185Y0426771D01*
X0387242Y0426782D01*
X0387832Y0426782D01*
X0387889Y0426771D01*
X0387937Y0426739D01*
X0387969Y0426691D01*
X0387980Y0426634D01*
X0387980Y0424666D01*
X0387969Y0424609D01*
X0387937Y0424561D01*
X0387889Y0424529D01*
X0387832Y0424518D01*
X0387980Y0424703D02*
X0387094Y0424703D01*
X0387094Y0424898D02*
X0387980Y0424898D01*
X0387980Y0425094D02*
X0387094Y0425094D01*
X0387094Y0425289D02*
X0387980Y0425289D01*
X0387980Y0425485D02*
X0387094Y0425485D01*
X0387094Y0425680D02*
X0387980Y0425680D01*
X0387980Y0425875D02*
X0387094Y0425875D01*
X0387094Y0426071D02*
X0387980Y0426071D01*
X0387980Y0426266D02*
X0387094Y0426266D01*
X0387094Y0426461D02*
X0387980Y0426461D01*
X0387975Y0426657D02*
X0387098Y0426657D01*
X0386011Y0426634D02*
X0386011Y0424666D01*
X0386000Y0424609D01*
X0385968Y0424561D01*
X0385920Y0424529D01*
X0385864Y0424518D01*
X0385273Y0424518D01*
X0385217Y0424529D01*
X0385169Y0424561D01*
X0385137Y0424609D01*
X0385125Y0424666D01*
X0385125Y0426634D01*
X0385137Y0426691D01*
X0385169Y0426739D01*
X0385217Y0426771D01*
X0385273Y0426782D01*
X0385864Y0426782D01*
X0385920Y0426771D01*
X0385968Y0426739D01*
X0386000Y0426691D01*
X0386011Y0426634D01*
X0386007Y0426657D02*
X0385130Y0426657D01*
X0385125Y0426461D02*
X0386011Y0426461D01*
X0386011Y0426266D02*
X0385125Y0426266D01*
X0385125Y0426071D02*
X0386011Y0426071D01*
X0386011Y0425875D02*
X0385125Y0425875D01*
X0385125Y0425680D02*
X0386011Y0425680D01*
X0386011Y0425485D02*
X0385125Y0425485D01*
X0385125Y0425289D02*
X0386011Y0425289D01*
X0386011Y0425094D02*
X0385125Y0425094D01*
X0385125Y0424898D02*
X0386011Y0424898D01*
X0386011Y0424703D02*
X0385125Y0424703D01*
X0384200Y0424703D02*
X0383078Y0424703D01*
X0383078Y0424666D02*
X0383084Y0424589D01*
X0383114Y0424517D01*
X0383164Y0424459D01*
X0383230Y0424418D01*
X0383305Y0424400D01*
X0383895Y0424400D01*
X0383984Y0424408D01*
X0384067Y0424443D01*
X0384134Y0424502D01*
X0384180Y0424579D01*
X0384200Y0424666D01*
X0384200Y0426634D01*
X0384180Y0426721D01*
X0384134Y0426798D01*
X0384067Y0426857D01*
X0383984Y0426892D01*
X0383895Y0426900D01*
X0383305Y0426900D01*
X0383230Y0426882D01*
X0383164Y0426841D01*
X0383114Y0426783D01*
X0383084Y0426711D01*
X0383078Y0426634D01*
X0383078Y0424666D01*
X0383122Y0424508D02*
X0384138Y0424508D01*
X0384200Y0424898D02*
X0383078Y0424898D01*
X0383078Y0425094D02*
X0384200Y0425094D01*
X0384200Y0425289D02*
X0383078Y0425289D01*
X0383078Y0425485D02*
X0384200Y0425485D01*
X0384200Y0425680D02*
X0383078Y0425680D01*
X0383078Y0425875D02*
X0384200Y0425875D01*
X0384200Y0426071D02*
X0383078Y0426071D01*
X0383078Y0426266D02*
X0384200Y0426266D01*
X0384200Y0426461D02*
X0383078Y0426461D01*
X0383080Y0426657D02*
X0384195Y0426657D01*
X0384072Y0426852D02*
X0383181Y0426852D01*
X0382179Y0426716D02*
X0382192Y0426634D01*
X0382192Y0424666D01*
X0382179Y0424584D01*
X0382142Y0424510D01*
X0382083Y0424451D01*
X0382009Y0424413D01*
X0381927Y0424400D01*
X0381336Y0424400D01*
X0381261Y0424418D01*
X0381195Y0424459D01*
X0381145Y0424517D01*
X0381116Y0424589D01*
X0381110Y0424666D01*
X0381110Y0426634D01*
X0381116Y0426711D01*
X0381145Y0426783D01*
X0381195Y0426841D01*
X0381261Y0426882D01*
X0381336Y0426900D01*
X0381927Y0426900D01*
X0382009Y0426887D01*
X0382083Y0426849D01*
X0382142Y0426790D01*
X0382179Y0426716D01*
X0382189Y0426657D02*
X0381111Y0426657D01*
X0381110Y0426461D02*
X0382192Y0426461D01*
X0382192Y0426266D02*
X0381110Y0426266D01*
X0381110Y0426071D02*
X0382192Y0426071D01*
X0382192Y0425875D02*
X0381110Y0425875D01*
X0381110Y0425680D02*
X0382192Y0425680D01*
X0382192Y0425485D02*
X0381110Y0425485D01*
X0381110Y0425289D02*
X0382192Y0425289D01*
X0382192Y0425094D02*
X0381110Y0425094D01*
X0381110Y0424898D02*
X0382192Y0424898D01*
X0382192Y0424703D02*
X0381110Y0424703D01*
X0381153Y0424508D02*
X0382140Y0424508D01*
X0382077Y0426852D02*
X0381213Y0426852D01*
X0380342Y0427236D02*
X0380296Y0427159D01*
X0380228Y0427100D01*
X0380146Y0427065D01*
X0380057Y0427057D01*
X0378088Y0427057D01*
X0378006Y0427070D01*
X0377932Y0427108D01*
X0377873Y0427167D01*
X0377835Y0427241D01*
X0377822Y0427323D01*
X0377822Y0427914D01*
X0377830Y0428003D01*
X0377865Y0428085D01*
X0377924Y0428153D01*
X0378001Y0428199D01*
X0378088Y0428219D01*
X0380057Y0428219D01*
X0380151Y0428204D01*
X0380236Y0428161D01*
X0380303Y0428093D01*
X0380347Y0428008D01*
X0380362Y0427914D01*
X0380362Y0427323D01*
X0380342Y0427236D01*
X0380343Y0427243D02*
X0377835Y0427243D01*
X0377822Y0427438D02*
X0380362Y0427438D01*
X0380362Y0427634D02*
X0377822Y0427634D01*
X0377822Y0427829D02*
X0380362Y0427829D01*
X0380338Y0428024D02*
X0377839Y0428024D01*
X0378038Y0429034D02*
X0377956Y0429069D01*
X0377888Y0429128D01*
X0377842Y0429204D01*
X0377822Y0429292D01*
X0377822Y0429882D01*
X0377835Y0429964D01*
X0377873Y0430038D01*
X0377932Y0430097D01*
X0378006Y0430135D01*
X0378088Y0430148D01*
X0380057Y0430148D01*
X0380134Y0430142D01*
X0380205Y0430113D01*
X0380264Y0430063D01*
X0380304Y0429997D01*
X0380322Y0429922D01*
X0380322Y0429331D01*
X0380321Y0429247D01*
X0380295Y0429167D01*
X0380245Y0429100D01*
X0380176Y0429051D01*
X0380096Y0429026D01*
X0378127Y0429026D01*
X0378038Y0429034D01*
X0377847Y0429196D02*
X0380304Y0429196D01*
X0380322Y0429392D02*
X0377822Y0429392D01*
X0377822Y0429587D02*
X0380322Y0429587D01*
X0380322Y0429783D02*
X0377822Y0429783D01*
X0377842Y0429978D02*
X0380309Y0429978D01*
X0382279Y0431026D02*
X0382300Y0430994D01*
X0382332Y0430972D01*
X0382370Y0430965D01*
X0382862Y0430965D01*
X0382899Y0430972D01*
X0382931Y0430994D01*
X0382953Y0431026D01*
X0382960Y0431063D01*
X0382960Y0435837D01*
X0382949Y0435894D01*
X0382917Y0435941D01*
X0382869Y0435973D01*
X0382812Y0435985D01*
X0382370Y0435985D01*
X0382332Y0435977D01*
X0382300Y0435956D01*
X0382279Y0435924D01*
X0382271Y0435886D01*
X0382271Y0431063D01*
X0382279Y0431026D01*
X0382271Y0431150D02*
X0382960Y0431150D01*
X0382960Y0431345D02*
X0382271Y0431345D01*
X0382271Y0431541D02*
X0382960Y0431541D01*
X0382960Y0431736D02*
X0382271Y0431736D01*
X0382271Y0431931D02*
X0382960Y0431931D01*
X0382960Y0432127D02*
X0382271Y0432127D01*
X0382271Y0432322D02*
X0382960Y0432322D01*
X0382960Y0432518D02*
X0382271Y0432518D01*
X0382271Y0432713D02*
X0382960Y0432713D01*
X0382960Y0432908D02*
X0382271Y0432908D01*
X0382271Y0433104D02*
X0382960Y0433104D01*
X0382960Y0433299D02*
X0382271Y0433299D01*
X0382271Y0433494D02*
X0382960Y0433494D01*
X0382960Y0433690D02*
X0382271Y0433690D01*
X0382271Y0433885D02*
X0382960Y0433885D01*
X0382960Y0434080D02*
X0382271Y0434080D01*
X0382271Y0434276D02*
X0382960Y0434276D01*
X0382960Y0434471D02*
X0382271Y0434471D01*
X0382271Y0434667D02*
X0382960Y0434667D01*
X0382960Y0434862D02*
X0382271Y0434862D01*
X0382271Y0435057D02*
X0382960Y0435057D01*
X0382960Y0435253D02*
X0382271Y0435253D01*
X0382271Y0435448D02*
X0382960Y0435448D01*
X0382960Y0435643D02*
X0382271Y0435643D01*
X0382271Y0435839D02*
X0382960Y0435839D01*
X0384240Y0435839D02*
X0384929Y0435839D01*
X0384929Y0435886D02*
X0384910Y0435931D01*
X0384875Y0435966D01*
X0384830Y0435985D01*
X0384781Y0435985D01*
X0384387Y0435985D01*
X0384338Y0435985D01*
X0384293Y0435966D01*
X0384258Y0435931D01*
X0384240Y0435886D01*
X0384240Y0429636D01*
X0384255Y0429610D01*
X0384279Y0429591D01*
X0384308Y0429583D01*
X0384338Y0429587D01*
X0384830Y0429587D01*
X0384875Y0429606D01*
X0384910Y0429640D01*
X0384929Y0429686D01*
X0384929Y0429735D01*
X0384929Y0435886D01*
X0384929Y0435643D02*
X0384240Y0435643D01*
X0384240Y0435448D02*
X0384929Y0435448D01*
X0384929Y0435253D02*
X0384240Y0435253D01*
X0384240Y0435057D02*
X0384929Y0435057D01*
X0384929Y0434862D02*
X0384240Y0434862D01*
X0384240Y0434667D02*
X0384929Y0434667D01*
X0384929Y0434471D02*
X0384240Y0434471D01*
X0384240Y0434276D02*
X0384929Y0434276D01*
X0384929Y0434080D02*
X0384240Y0434080D01*
X0384240Y0433885D02*
X0384929Y0433885D01*
X0384929Y0433690D02*
X0384240Y0433690D01*
X0384240Y0433494D02*
X0384929Y0433494D01*
X0384929Y0433299D02*
X0384240Y0433299D01*
X0384240Y0433104D02*
X0384929Y0433104D01*
X0384929Y0432908D02*
X0384240Y0432908D01*
X0384240Y0432713D02*
X0384929Y0432713D01*
X0384929Y0432518D02*
X0384240Y0432518D01*
X0384240Y0432322D02*
X0384929Y0432322D01*
X0384929Y0432127D02*
X0384240Y0432127D01*
X0384240Y0431931D02*
X0384929Y0431931D01*
X0384929Y0431736D02*
X0384240Y0431736D01*
X0384240Y0431541D02*
X0384929Y0431541D01*
X0384929Y0431345D02*
X0384240Y0431345D01*
X0384240Y0431150D02*
X0384929Y0431150D01*
X0384929Y0430955D02*
X0384240Y0430955D01*
X0384240Y0430759D02*
X0384929Y0430759D01*
X0384929Y0430564D02*
X0384240Y0430564D01*
X0384240Y0430369D02*
X0384929Y0430369D01*
X0384929Y0430173D02*
X0384240Y0430173D01*
X0384240Y0429978D02*
X0384929Y0429978D01*
X0384929Y0429783D02*
X0384240Y0429783D01*
X0384294Y0429587D02*
X0384831Y0429587D01*
X0386237Y0430994D02*
X0386269Y0430972D01*
X0386307Y0430965D01*
X0386799Y0430965D01*
X0386836Y0430972D01*
X0386868Y0430994D01*
X0386890Y0431026D01*
X0386897Y0431063D01*
X0386897Y0435837D01*
X0386886Y0435894D01*
X0386854Y0435941D01*
X0386806Y0435973D01*
X0386749Y0435985D01*
X0386307Y0435985D01*
X0386269Y0435977D01*
X0386237Y0435956D01*
X0386216Y0435924D01*
X0386208Y0435886D01*
X0386208Y0431063D01*
X0386216Y0431026D01*
X0386237Y0430994D01*
X0386208Y0431150D02*
X0386897Y0431150D01*
X0386897Y0431345D02*
X0386208Y0431345D01*
X0386208Y0431541D02*
X0386897Y0431541D01*
X0386897Y0431736D02*
X0386208Y0431736D01*
X0386208Y0431931D02*
X0386897Y0431931D01*
X0386897Y0432127D02*
X0386208Y0432127D01*
X0386208Y0432322D02*
X0386897Y0432322D01*
X0386897Y0432518D02*
X0386208Y0432518D01*
X0386208Y0432713D02*
X0386897Y0432713D01*
X0386897Y0432908D02*
X0386208Y0432908D01*
X0386208Y0433104D02*
X0386897Y0433104D01*
X0386897Y0433299D02*
X0386208Y0433299D01*
X0386208Y0433494D02*
X0386897Y0433494D01*
X0386897Y0433690D02*
X0386208Y0433690D01*
X0386208Y0433885D02*
X0386897Y0433885D01*
X0386897Y0434080D02*
X0386208Y0434080D01*
X0386208Y0434276D02*
X0386897Y0434276D01*
X0386897Y0434471D02*
X0386208Y0434471D01*
X0386208Y0434667D02*
X0386897Y0434667D01*
X0386897Y0434862D02*
X0386208Y0434862D01*
X0386208Y0435057D02*
X0386897Y0435057D01*
X0386897Y0435253D02*
X0386208Y0435253D01*
X0386208Y0435448D02*
X0386897Y0435448D01*
X0386897Y0435643D02*
X0386208Y0435643D01*
X0386208Y0435839D02*
X0386897Y0435839D01*
X0389055Y0430019D02*
X0389112Y0430030D01*
X0391080Y0430030D01*
X0391137Y0430019D01*
X0391185Y0429987D01*
X0391217Y0429939D01*
X0391228Y0429882D01*
X0391228Y0429292D01*
X0391217Y0429235D01*
X0391185Y0429187D01*
X0391137Y0429155D01*
X0391080Y0429144D01*
X0389112Y0429144D01*
X0389055Y0429155D01*
X0389007Y0429187D01*
X0388975Y0429235D01*
X0388964Y0429292D01*
X0388964Y0429882D01*
X0388975Y0429939D01*
X0389007Y0429987D01*
X0389055Y0430019D01*
X0389001Y0429978D02*
X0391190Y0429978D01*
X0391228Y0429783D02*
X0388964Y0429783D01*
X0388964Y0429587D02*
X0391228Y0429587D01*
X0391228Y0429392D02*
X0388964Y0429392D01*
X0389001Y0429196D02*
X0391191Y0429196D01*
X0391080Y0428061D02*
X0391137Y0428050D01*
X0391185Y0428018D01*
X0391217Y0427970D01*
X0391228Y0427914D01*
X0391228Y0427323D01*
X0391217Y0427267D01*
X0391185Y0427219D01*
X0391137Y0427187D01*
X0391080Y0427176D01*
X0389112Y0427176D01*
X0389055Y0427187D01*
X0389007Y0427219D01*
X0388975Y0427267D01*
X0388964Y0427323D01*
X0388964Y0427914D01*
X0388975Y0427970D01*
X0389007Y0428018D01*
X0389055Y0428050D01*
X0389112Y0428061D01*
X0391080Y0428061D01*
X0391175Y0428024D02*
X0389016Y0428024D01*
X0388964Y0427829D02*
X0391228Y0427829D01*
X0391228Y0427634D02*
X0388964Y0427634D01*
X0388964Y0427438D02*
X0391228Y0427438D01*
X0391201Y0427243D02*
X0388991Y0427243D01*
D22*
X0389387Y0431556D02*
X0390844Y0431556D01*
X0390844Y0431949D01*
X0389820Y0431949D01*
X0389820Y0433170D01*
X0390844Y0433170D01*
X0390844Y0433563D01*
X0390608Y0433563D01*
X0390647Y0433563D01*
X0389387Y0433563D01*
X0389387Y0431556D01*
X0389387Y0432026D02*
X0389820Y0432026D01*
X0389820Y0432525D02*
X0389387Y0432525D01*
X0389387Y0433023D02*
X0389820Y0433023D01*
X0389387Y0433522D02*
X0390844Y0433522D01*
X0379820Y0433522D02*
X0378364Y0433522D01*
X0378364Y0433603D02*
X0378364Y0433209D01*
X0379387Y0433209D01*
X0379387Y0431989D01*
X0378364Y0431989D01*
X0378364Y0431595D01*
X0378600Y0431595D01*
X0378560Y0431595D01*
X0379820Y0431595D01*
X0379820Y0433603D01*
X0378364Y0433603D01*
X0379387Y0433023D02*
X0379820Y0433023D01*
X0379820Y0432525D02*
X0379387Y0432525D01*
X0379387Y0432026D02*
X0379820Y0432026D01*
D23*
X0390096Y0415246D03*
X0390096Y0408554D03*
X0407446Y0409196D03*
X0407446Y0402504D03*
X0407446Y0416054D03*
X0407446Y0422746D03*
X0413246Y0422746D03*
X0413246Y0416054D03*
X0418996Y0483754D03*
X0418996Y0490446D03*
X0410096Y0543554D03*
X0410096Y0550246D03*
X0416796Y0550954D03*
X0422796Y0550954D03*
X0422796Y0557646D03*
X0416796Y0557646D03*
X0384471Y0566054D03*
X0384471Y0572746D03*
X0357771Y0459096D03*
X0357771Y0452404D03*
X0112595Y0370246D03*
X0112595Y0363554D03*
D24*
X0394584Y0566900D03*
X0405608Y0566900D03*
D25*
X0401346Y0498022D03*
X0411188Y0498022D03*
X0411188Y0475778D03*
X0401346Y0475778D03*
X0391503Y0475778D03*
X0391503Y0498022D03*
D26*
X0393846Y0555350D03*
X0402946Y0555350D03*
X0384746Y0555350D03*
D27*
X0393846Y0530949D03*
D28*
X0342595Y0461428D03*
X0342595Y0452372D03*
X0402595Y0376428D03*
X0402595Y0367372D03*
X0412595Y0367372D03*
X0412595Y0376428D03*
D29*
X0415396Y0439607D03*
X0422046Y0439607D03*
X0422046Y0446693D03*
X0415396Y0446693D03*
X0408646Y0446693D03*
X0408646Y0439607D03*
X0360221Y0439482D03*
X0360221Y0446568D03*
X0353471Y0446568D03*
X0353471Y0439482D03*
D30*
X0151173Y0430687D03*
X0148614Y0430687D03*
X0146055Y0430687D03*
X0143496Y0430687D03*
X0140937Y0430687D03*
X0138378Y0430687D03*
X0135819Y0430687D03*
X0135819Y0407713D03*
X0138378Y0407713D03*
X0140937Y0407713D03*
X0143496Y0407713D03*
X0146055Y0407713D03*
X0148614Y0407713D03*
X0151173Y0407713D03*
D31*
X0350723Y0450749D02*
X0353469Y0450749D01*
X0350723Y0450749D02*
X0350723Y0453495D01*
X0353469Y0453495D01*
X0353469Y0450749D01*
X0353469Y0452639D02*
X0350723Y0452639D01*
X0350723Y0457655D02*
X0353469Y0457655D01*
X0350723Y0457655D02*
X0350723Y0460401D01*
X0353469Y0460401D01*
X0353469Y0457655D01*
X0353469Y0459545D02*
X0350723Y0459545D01*
X0420623Y0455174D02*
X0423369Y0455174D01*
X0420623Y0455174D02*
X0420623Y0457920D01*
X0423369Y0457920D01*
X0423369Y0455174D01*
X0423369Y0457064D02*
X0420623Y0457064D01*
X0420623Y0462080D02*
X0423369Y0462080D01*
X0420623Y0462080D02*
X0420623Y0464826D01*
X0423369Y0464826D01*
X0423369Y0462080D01*
X0423369Y0463970D02*
X0420623Y0463970D01*
X0420923Y0525324D02*
X0423669Y0525324D01*
X0420923Y0525324D02*
X0420923Y0528070D01*
X0423669Y0528070D01*
X0423669Y0525324D01*
X0423669Y0527214D02*
X0420923Y0527214D01*
X0420923Y0532230D02*
X0423669Y0532230D01*
X0420923Y0532230D02*
X0420923Y0534976D01*
X0423669Y0534976D01*
X0423669Y0532230D01*
X0423669Y0534120D02*
X0420923Y0534120D01*
D32*
X0364908Y0466700D03*
X0353884Y0466700D03*
D33*
X0379810Y0457521D03*
X0389259Y0457521D03*
D34*
X0106532Y0370640D03*
X0106532Y0363160D03*
X0098264Y0366900D03*
D35*
X0431780Y0342091D03*
D36*
X0444291Y0356900D03*
X0460602Y0342191D03*
D37*
X0477595Y0571900D03*
X0047595Y0571900D03*
M02*
