G75*
%MOIN*%
%OFA0B0*%
%FSLAX25Y25*%
%IPPOS*%
%LPD*%
%AMOC8*
5,1,8,0,0,1.08239X$1,22.5*
%
%ADD10C,0.04737*%
%ADD11C,0.06706*%
%ADD12C,0.20800*%
%ADD13C,0.01000*%
%ADD14C,0.03950*%
%ADD15C,0.04146*%
%ADD16C,0.17398*%
%ADD17C,0.17000*%
%ADD18C,0.13800*%
D10*
X0417595Y0316900D03*
X0072595Y0576900D03*
D11*
X0165096Y0499341D03*
X0170096Y0491861D03*
X0175096Y0499341D03*
X0180096Y0491861D03*
X0185096Y0499341D03*
X0190096Y0491861D03*
X0195096Y0499341D03*
X0200096Y0491861D03*
X0205096Y0499341D03*
X0210096Y0491861D03*
X0215096Y0499341D03*
X0220096Y0491861D03*
X0225096Y0499341D03*
X0230096Y0491861D03*
X0235096Y0499341D03*
X0240096Y0491861D03*
X0245096Y0499341D03*
X0250096Y0491861D03*
X0255096Y0499341D03*
X0260096Y0491861D03*
X0265096Y0499341D03*
X0270096Y0491861D03*
X0275096Y0499341D03*
X0280096Y0491861D03*
X0285096Y0499341D03*
X0290096Y0491861D03*
X0295096Y0499341D03*
X0300096Y0491861D03*
X0305096Y0499341D03*
X0310096Y0491861D03*
X0315096Y0499341D03*
X0320096Y0491861D03*
X0325096Y0499341D03*
X0330096Y0491861D03*
X0335096Y0499341D03*
X0340096Y0491861D03*
X0345096Y0499341D03*
X0350096Y0491861D03*
X0355096Y0499341D03*
X0360096Y0491861D03*
X0355096Y0484380D03*
X0360096Y0476900D03*
X0350096Y0476900D03*
X0345096Y0484380D03*
X0340096Y0476900D03*
X0335096Y0484380D03*
X0330096Y0476900D03*
X0325096Y0484380D03*
X0320096Y0476900D03*
X0315096Y0484380D03*
X0310096Y0476900D03*
X0305096Y0484380D03*
X0300096Y0476900D03*
X0295096Y0484380D03*
X0290096Y0476900D03*
X0285096Y0484380D03*
X0280096Y0476900D03*
X0275096Y0484380D03*
X0270096Y0476900D03*
X0265096Y0484380D03*
X0260096Y0476900D03*
X0255096Y0484380D03*
X0250096Y0476900D03*
X0245096Y0484380D03*
X0240096Y0476900D03*
X0235096Y0484380D03*
X0230096Y0476900D03*
X0225096Y0484380D03*
X0220096Y0476900D03*
X0215096Y0484380D03*
X0210096Y0476900D03*
X0205096Y0484380D03*
X0200096Y0476900D03*
X0195096Y0484380D03*
X0190096Y0476900D03*
X0185096Y0484380D03*
X0180096Y0476900D03*
X0175096Y0484380D03*
X0170096Y0476900D03*
X0165096Y0484380D03*
D12*
X0079116Y0494636D03*
X0056116Y0494636D03*
X0056116Y0459636D03*
X0079116Y0459636D03*
X0079116Y0424636D03*
X0056116Y0424636D03*
X0056116Y0389636D03*
X0079116Y0389636D03*
X0142616Y0348636D03*
X0142616Y0325636D03*
X0182616Y0325636D03*
X0182616Y0348636D03*
X0222616Y0348636D03*
X0222616Y0325636D03*
X0262616Y0325636D03*
X0262616Y0348636D03*
X0302616Y0348636D03*
X0302616Y0325636D03*
X0342616Y0325636D03*
X0342616Y0348636D03*
X0382616Y0348636D03*
X0382616Y0325636D03*
X0446116Y0389636D03*
X0469116Y0389636D03*
X0469116Y0424636D03*
X0446116Y0424636D03*
X0446096Y0459400D03*
X0469096Y0459400D03*
X0469116Y0494636D03*
X0446116Y0494636D03*
X0446116Y0529636D03*
X0469116Y0529636D03*
X0079116Y0529636D03*
X0056116Y0529636D03*
D13*
X0130316Y0349436D02*
X0130316Y0309436D01*
X0155116Y0309436D01*
X0155116Y0349836D01*
X0130331Y0349836D01*
X0130316Y0349436D02*
X0130376Y0351036D01*
X0130662Y0352610D01*
X0131168Y0354129D01*
X0131884Y0355560D01*
X0132795Y0356876D01*
X0133884Y0358050D01*
X0135127Y0359057D01*
X0136501Y0359879D01*
X0137977Y0360498D01*
X0139525Y0360902D01*
X0141116Y0361082D01*
X0142716Y0361036D01*
X0144401Y0361002D01*
X0146064Y0360727D01*
X0147672Y0360219D01*
X0149190Y0359487D01*
X0150590Y0358547D01*
X0151841Y0357417D01*
X0152918Y0356121D01*
X0153800Y0354684D01*
X0154469Y0353136D01*
X0154910Y0351509D01*
X0155116Y0349836D01*
X0155116Y0348837D02*
X0130316Y0348837D01*
X0130316Y0347839D02*
X0155116Y0347839D01*
X0155116Y0346840D02*
X0130316Y0346840D01*
X0130316Y0345842D02*
X0155116Y0345842D01*
X0155116Y0344843D02*
X0130316Y0344843D01*
X0130316Y0343845D02*
X0155116Y0343845D01*
X0155116Y0342846D02*
X0130316Y0342846D01*
X0130316Y0341848D02*
X0155116Y0341848D01*
X0155116Y0340849D02*
X0130316Y0340849D01*
X0130316Y0339851D02*
X0155116Y0339851D01*
X0155116Y0338852D02*
X0130316Y0338852D01*
X0130316Y0337854D02*
X0155116Y0337854D01*
X0155116Y0336855D02*
X0130316Y0336855D01*
X0130316Y0335857D02*
X0155116Y0335857D01*
X0155116Y0334858D02*
X0130316Y0334858D01*
X0130316Y0333860D02*
X0155116Y0333860D01*
X0155116Y0332861D02*
X0130316Y0332861D01*
X0130316Y0331863D02*
X0155116Y0331863D01*
X0155116Y0330864D02*
X0130316Y0330864D01*
X0130316Y0329866D02*
X0155116Y0329866D01*
X0155116Y0328867D02*
X0130316Y0328867D01*
X0130316Y0327869D02*
X0155116Y0327869D01*
X0155116Y0326870D02*
X0130316Y0326870D01*
X0130316Y0325872D02*
X0155116Y0325872D01*
X0155116Y0324873D02*
X0130316Y0324873D01*
X0130316Y0323875D02*
X0155116Y0323875D01*
X0155116Y0322876D02*
X0130316Y0322876D01*
X0130316Y0321878D02*
X0155116Y0321878D01*
X0155116Y0320879D02*
X0130316Y0320879D01*
X0130316Y0319881D02*
X0155116Y0319881D01*
X0155116Y0318882D02*
X0130316Y0318882D01*
X0130316Y0317884D02*
X0155116Y0317884D01*
X0155116Y0316885D02*
X0130316Y0316885D01*
X0130316Y0315887D02*
X0155116Y0315887D01*
X0155116Y0314888D02*
X0130316Y0314888D01*
X0130316Y0313890D02*
X0155116Y0313890D01*
X0155116Y0312891D02*
X0130316Y0312891D01*
X0130316Y0311893D02*
X0155116Y0311893D01*
X0155116Y0310894D02*
X0130316Y0310894D01*
X0130316Y0309896D02*
X0155116Y0309896D01*
X0170316Y0309896D02*
X0195116Y0309896D01*
X0195116Y0309436D02*
X0195116Y0349836D01*
X0170331Y0349836D01*
X0170316Y0349436D02*
X0170376Y0351036D01*
X0170662Y0352610D01*
X0171168Y0354129D01*
X0171884Y0355560D01*
X0172795Y0356876D01*
X0173884Y0358050D01*
X0175127Y0359057D01*
X0176501Y0359879D01*
X0177977Y0360498D01*
X0179525Y0360902D01*
X0181116Y0361082D01*
X0182716Y0361036D01*
X0184401Y0361002D01*
X0186064Y0360727D01*
X0187672Y0360219D01*
X0189190Y0359487D01*
X0190590Y0358547D01*
X0191841Y0357417D01*
X0192918Y0356121D01*
X0193800Y0354684D01*
X0194469Y0353136D01*
X0194910Y0351509D01*
X0195116Y0349836D01*
X0195116Y0348837D02*
X0170316Y0348837D01*
X0170316Y0349436D02*
X0170316Y0309436D01*
X0195116Y0309436D01*
X0195116Y0310894D02*
X0170316Y0310894D01*
X0170316Y0311893D02*
X0195116Y0311893D01*
X0195116Y0312891D02*
X0170316Y0312891D01*
X0170316Y0313890D02*
X0195116Y0313890D01*
X0195116Y0314888D02*
X0170316Y0314888D01*
X0170316Y0315887D02*
X0195116Y0315887D01*
X0195116Y0316885D02*
X0170316Y0316885D01*
X0170316Y0317884D02*
X0195116Y0317884D01*
X0195116Y0318882D02*
X0170316Y0318882D01*
X0170316Y0319881D02*
X0195116Y0319881D01*
X0195116Y0320879D02*
X0170316Y0320879D01*
X0170316Y0321878D02*
X0195116Y0321878D01*
X0195116Y0322876D02*
X0170316Y0322876D01*
X0170316Y0323875D02*
X0195116Y0323875D01*
X0195116Y0324873D02*
X0170316Y0324873D01*
X0170316Y0325872D02*
X0195116Y0325872D01*
X0195116Y0326870D02*
X0170316Y0326870D01*
X0170316Y0327869D02*
X0195116Y0327869D01*
X0195116Y0328867D02*
X0170316Y0328867D01*
X0170316Y0329866D02*
X0195116Y0329866D01*
X0195116Y0330864D02*
X0170316Y0330864D01*
X0170316Y0331863D02*
X0195116Y0331863D01*
X0195116Y0332861D02*
X0170316Y0332861D01*
X0170316Y0333860D02*
X0195116Y0333860D01*
X0195116Y0334858D02*
X0170316Y0334858D01*
X0170316Y0335857D02*
X0195116Y0335857D01*
X0195116Y0336855D02*
X0170316Y0336855D01*
X0170316Y0337854D02*
X0195116Y0337854D01*
X0195116Y0338852D02*
X0170316Y0338852D01*
X0170316Y0339851D02*
X0195116Y0339851D01*
X0195116Y0340849D02*
X0170316Y0340849D01*
X0170316Y0341848D02*
X0195116Y0341848D01*
X0195116Y0342846D02*
X0170316Y0342846D01*
X0170316Y0343845D02*
X0195116Y0343845D01*
X0195116Y0344843D02*
X0170316Y0344843D01*
X0170316Y0345842D02*
X0195116Y0345842D01*
X0195116Y0346840D02*
X0170316Y0346840D01*
X0170316Y0347839D02*
X0195116Y0347839D01*
X0194993Y0350834D02*
X0170368Y0350834D01*
X0170521Y0351833D02*
X0194822Y0351833D01*
X0194551Y0352832D02*
X0170736Y0352832D01*
X0171069Y0353830D02*
X0194169Y0353830D01*
X0193711Y0354829D02*
X0171518Y0354829D01*
X0172069Y0355827D02*
X0193098Y0355827D01*
X0192332Y0356826D02*
X0172761Y0356826D01*
X0173675Y0357824D02*
X0191390Y0357824D01*
X0190179Y0358823D02*
X0174838Y0358823D01*
X0176404Y0359821D02*
X0188498Y0359821D01*
X0185504Y0360820D02*
X0179210Y0360820D01*
X0154551Y0352832D02*
X0130736Y0352832D01*
X0130521Y0351833D02*
X0154822Y0351833D01*
X0154993Y0350834D02*
X0130368Y0350834D01*
X0131069Y0353830D02*
X0154169Y0353830D01*
X0153711Y0354829D02*
X0131518Y0354829D01*
X0132069Y0355827D02*
X0153098Y0355827D01*
X0152332Y0356826D02*
X0132761Y0356826D01*
X0133675Y0357824D02*
X0151390Y0357824D01*
X0150179Y0358823D02*
X0134838Y0358823D01*
X0136404Y0359821D02*
X0148498Y0359821D01*
X0145504Y0360820D02*
X0139210Y0360820D01*
X0091207Y0386187D02*
X0091481Y0387851D01*
X0091516Y0389536D01*
X0091562Y0391136D01*
X0091381Y0392726D01*
X0090977Y0394275D01*
X0090358Y0395751D01*
X0089537Y0397125D01*
X0088529Y0398368D01*
X0087355Y0399456D01*
X0086040Y0400368D01*
X0084608Y0401084D01*
X0083090Y0401590D01*
X0081515Y0401876D01*
X0079916Y0401936D01*
X0039916Y0401936D01*
X0039916Y0377136D01*
X0080316Y0377136D01*
X0081989Y0377342D01*
X0083616Y0377783D01*
X0085163Y0378452D01*
X0086600Y0379334D01*
X0087896Y0380411D01*
X0089026Y0381662D01*
X0089967Y0383061D01*
X0090699Y0384580D01*
X0091207Y0386187D01*
X0091079Y0385782D02*
X0039916Y0385782D01*
X0039916Y0384784D02*
X0090763Y0384784D01*
X0090316Y0383785D02*
X0039916Y0383785D01*
X0039916Y0382787D02*
X0089782Y0382787D01*
X0089111Y0381788D02*
X0039916Y0381788D01*
X0039916Y0380790D02*
X0088238Y0380790D01*
X0087150Y0379791D02*
X0039916Y0379791D01*
X0039916Y0378793D02*
X0085719Y0378793D01*
X0083641Y0377794D02*
X0039916Y0377794D01*
X0039916Y0386781D02*
X0091305Y0386781D01*
X0091469Y0387779D02*
X0039916Y0387779D01*
X0039916Y0388778D02*
X0091500Y0388778D01*
X0091523Y0389776D02*
X0039916Y0389776D01*
X0039916Y0390775D02*
X0091551Y0390775D01*
X0091489Y0391773D02*
X0039916Y0391773D01*
X0039916Y0392772D02*
X0091369Y0392772D01*
X0091109Y0393770D02*
X0039916Y0393770D01*
X0039916Y0394769D02*
X0090770Y0394769D01*
X0090349Y0395768D02*
X0039916Y0395768D01*
X0039916Y0396766D02*
X0089751Y0396766D01*
X0089018Y0397765D02*
X0039916Y0397765D01*
X0039916Y0398763D02*
X0088103Y0398763D01*
X0086915Y0399762D02*
X0039916Y0399762D01*
X0039916Y0400760D02*
X0085255Y0400760D01*
X0082160Y0401759D02*
X0039916Y0401759D01*
X0039916Y0412136D02*
X0080316Y0412136D01*
X0081989Y0412342D01*
X0083616Y0412783D01*
X0085163Y0413452D01*
X0086600Y0414334D01*
X0087896Y0415411D01*
X0089026Y0416662D01*
X0089967Y0418061D01*
X0090699Y0419580D01*
X0091207Y0421187D01*
X0091481Y0422851D01*
X0091516Y0424536D01*
X0091562Y0426136D01*
X0091381Y0427726D01*
X0090977Y0429275D01*
X0090358Y0430751D01*
X0089537Y0432125D01*
X0088529Y0433368D01*
X0087355Y0434456D01*
X0086040Y0435368D01*
X0084608Y0436084D01*
X0083090Y0436590D01*
X0081515Y0436876D01*
X0079916Y0436936D01*
X0039916Y0436936D01*
X0039916Y0412136D01*
X0039916Y0412742D02*
X0083465Y0412742D01*
X0085634Y0413741D02*
X0039916Y0413741D01*
X0039916Y0414739D02*
X0087088Y0414739D01*
X0088191Y0415738D02*
X0039916Y0415738D01*
X0039916Y0416736D02*
X0089076Y0416736D01*
X0089747Y0417735D02*
X0039916Y0417735D01*
X0039916Y0418733D02*
X0090291Y0418733D01*
X0090746Y0419732D02*
X0039916Y0419732D01*
X0039916Y0420730D02*
X0091062Y0420730D01*
X0091296Y0421729D02*
X0039916Y0421729D01*
X0039916Y0422727D02*
X0091461Y0422727D01*
X0091499Y0423726D02*
X0039916Y0423726D01*
X0039916Y0424724D02*
X0091521Y0424724D01*
X0091550Y0425723D02*
X0039916Y0425723D01*
X0039916Y0426721D02*
X0091495Y0426721D01*
X0091382Y0427720D02*
X0039916Y0427720D01*
X0039916Y0428718D02*
X0091123Y0428718D01*
X0090792Y0429717D02*
X0039916Y0429717D01*
X0039916Y0430715D02*
X0090373Y0430715D01*
X0089782Y0431714D02*
X0039916Y0431714D01*
X0039916Y0432712D02*
X0089060Y0432712D01*
X0088159Y0433711D02*
X0039916Y0433711D01*
X0039916Y0434709D02*
X0086990Y0434709D01*
X0085359Y0435708D02*
X0039916Y0435708D01*
X0039916Y0436706D02*
X0082447Y0436706D01*
X0081989Y0447342D02*
X0080316Y0447136D01*
X0039916Y0447136D01*
X0039916Y0471936D01*
X0079916Y0471936D01*
X0081515Y0471876D01*
X0083090Y0471590D01*
X0084608Y0471084D01*
X0086040Y0470368D01*
X0087355Y0469456D01*
X0088529Y0468368D01*
X0089537Y0467125D01*
X0090358Y0465751D01*
X0090977Y0464275D01*
X0091381Y0462726D01*
X0091562Y0461136D01*
X0091516Y0459536D01*
X0091481Y0457851D01*
X0091207Y0456187D01*
X0090699Y0454580D01*
X0089967Y0453061D01*
X0089026Y0451662D01*
X0087896Y0450411D01*
X0086600Y0449334D01*
X0085163Y0448452D01*
X0083616Y0447783D01*
X0081989Y0447342D01*
X0083273Y0447690D02*
X0039916Y0447690D01*
X0039916Y0448689D02*
X0085549Y0448689D01*
X0087025Y0449687D02*
X0039916Y0449687D01*
X0039916Y0450686D02*
X0088144Y0450686D01*
X0089041Y0451684D02*
X0039916Y0451684D01*
X0039916Y0452683D02*
X0089712Y0452683D01*
X0090265Y0453681D02*
X0039916Y0453681D01*
X0039916Y0454680D02*
X0090730Y0454680D01*
X0091046Y0455678D02*
X0039916Y0455678D01*
X0039916Y0456677D02*
X0091287Y0456677D01*
X0091452Y0457675D02*
X0039916Y0457675D01*
X0039916Y0458674D02*
X0091498Y0458674D01*
X0091520Y0459672D02*
X0039916Y0459672D01*
X0039916Y0460671D02*
X0091548Y0460671D01*
X0091501Y0461669D02*
X0039916Y0461669D01*
X0039916Y0462668D02*
X0091388Y0462668D01*
X0091136Y0463666D02*
X0039916Y0463666D01*
X0039916Y0464665D02*
X0090814Y0464665D01*
X0090395Y0465663D02*
X0039916Y0465663D01*
X0039916Y0466662D02*
X0089814Y0466662D01*
X0089103Y0467660D02*
X0039916Y0467660D01*
X0039916Y0468659D02*
X0088215Y0468659D01*
X0087065Y0469657D02*
X0039916Y0469657D01*
X0039916Y0470656D02*
X0085463Y0470656D01*
X0082734Y0471654D02*
X0039916Y0471654D01*
X0039916Y0482136D02*
X0080316Y0482136D01*
X0081989Y0482342D01*
X0083616Y0482783D01*
X0085163Y0483452D01*
X0086600Y0484334D01*
X0087896Y0485411D01*
X0089026Y0486662D01*
X0089967Y0488061D01*
X0090699Y0489580D01*
X0091207Y0491187D01*
X0091481Y0492851D01*
X0091516Y0494536D01*
X0091562Y0496136D01*
X0091381Y0497726D01*
X0090977Y0499275D01*
X0090358Y0500751D01*
X0089537Y0502125D01*
X0088529Y0503368D01*
X0087355Y0504456D01*
X0086040Y0505368D01*
X0084608Y0506084D01*
X0083090Y0506590D01*
X0081515Y0506876D01*
X0079916Y0506936D01*
X0039916Y0506936D01*
X0039916Y0482136D01*
X0039916Y0482638D02*
X0083081Y0482638D01*
X0085464Y0483637D02*
X0039916Y0483637D01*
X0039916Y0484635D02*
X0086962Y0484635D01*
X0088097Y0485634D02*
X0039916Y0485634D01*
X0039916Y0486632D02*
X0088999Y0486632D01*
X0089677Y0487631D02*
X0039916Y0487631D01*
X0039916Y0488629D02*
X0090240Y0488629D01*
X0090714Y0489628D02*
X0039916Y0489628D01*
X0039916Y0490626D02*
X0091029Y0490626D01*
X0091279Y0491625D02*
X0039916Y0491625D01*
X0039916Y0492623D02*
X0091443Y0492623D01*
X0091497Y0493622D02*
X0039916Y0493622D01*
X0039916Y0494620D02*
X0091518Y0494620D01*
X0091547Y0495619D02*
X0039916Y0495619D01*
X0039916Y0496617D02*
X0091507Y0496617D01*
X0091394Y0497616D02*
X0039916Y0497616D01*
X0039916Y0498614D02*
X0091150Y0498614D01*
X0090836Y0499613D02*
X0039916Y0499613D01*
X0039916Y0500611D02*
X0090417Y0500611D01*
X0089845Y0501610D02*
X0039916Y0501610D01*
X0039916Y0502608D02*
X0089145Y0502608D01*
X0088272Y0503607D02*
X0039916Y0503607D01*
X0039916Y0504605D02*
X0087140Y0504605D01*
X0085568Y0505604D02*
X0039916Y0505604D01*
X0039916Y0506602D02*
X0083020Y0506602D01*
X0081989Y0517342D02*
X0080316Y0517136D01*
X0039916Y0517136D01*
X0039916Y0541936D01*
X0079916Y0541936D01*
X0081515Y0541876D01*
X0083090Y0541590D01*
X0084608Y0541084D01*
X0086040Y0540368D01*
X0087355Y0539456D01*
X0088529Y0538368D01*
X0089537Y0537125D01*
X0090358Y0535751D01*
X0090977Y0534275D01*
X0091381Y0532726D01*
X0091562Y0531136D01*
X0091516Y0529536D01*
X0091481Y0527851D01*
X0091207Y0526187D01*
X0090699Y0524580D01*
X0089967Y0523061D01*
X0089026Y0521662D01*
X0087896Y0520411D01*
X0086600Y0519334D01*
X0085163Y0518452D01*
X0083616Y0517783D01*
X0081989Y0517342D01*
X0082889Y0517586D02*
X0039916Y0517586D01*
X0039916Y0518584D02*
X0085379Y0518584D01*
X0086900Y0519583D02*
X0039916Y0519583D01*
X0039916Y0520581D02*
X0088050Y0520581D01*
X0088952Y0521580D02*
X0039916Y0521580D01*
X0039916Y0522578D02*
X0089642Y0522578D01*
X0090215Y0523577D02*
X0039916Y0523577D01*
X0039916Y0524575D02*
X0090696Y0524575D01*
X0091013Y0525574D02*
X0039916Y0525574D01*
X0039916Y0526572D02*
X0091270Y0526572D01*
X0091435Y0527571D02*
X0039916Y0527571D01*
X0039916Y0528570D02*
X0091496Y0528570D01*
X0091517Y0529568D02*
X0039916Y0529568D01*
X0039916Y0530567D02*
X0091545Y0530567D01*
X0091513Y0531565D02*
X0039916Y0531565D01*
X0039916Y0532564D02*
X0091400Y0532564D01*
X0091163Y0533562D02*
X0039916Y0533562D01*
X0039916Y0534561D02*
X0090858Y0534561D01*
X0090439Y0535559D02*
X0039916Y0535559D01*
X0039916Y0536558D02*
X0089876Y0536558D01*
X0089187Y0537556D02*
X0039916Y0537556D01*
X0039916Y0538555D02*
X0088328Y0538555D01*
X0087216Y0539553D02*
X0039916Y0539553D01*
X0039916Y0540552D02*
X0085672Y0540552D01*
X0083208Y0541550D02*
X0039916Y0541550D01*
X0213884Y0358050D02*
X0215127Y0359057D01*
X0216501Y0359879D01*
X0217977Y0360498D01*
X0219525Y0360902D01*
X0221116Y0361082D01*
X0222716Y0361036D01*
X0224401Y0361002D01*
X0226064Y0360727D01*
X0227672Y0360219D01*
X0229190Y0359487D01*
X0230590Y0358547D01*
X0231841Y0357417D01*
X0232918Y0356121D01*
X0233800Y0354684D01*
X0234469Y0353136D01*
X0234910Y0351509D01*
X0235116Y0349836D01*
X0210331Y0349836D01*
X0210316Y0349436D02*
X0210376Y0351036D01*
X0210662Y0352610D01*
X0211168Y0354129D01*
X0211884Y0355560D01*
X0212795Y0356876D01*
X0213884Y0358050D01*
X0213675Y0357824D02*
X0231390Y0357824D01*
X0232332Y0356826D02*
X0212761Y0356826D01*
X0212069Y0355827D02*
X0233098Y0355827D01*
X0233711Y0354829D02*
X0211518Y0354829D01*
X0211069Y0353830D02*
X0234169Y0353830D01*
X0234551Y0352832D02*
X0210736Y0352832D01*
X0210521Y0351833D02*
X0234822Y0351833D01*
X0234993Y0350834D02*
X0210368Y0350834D01*
X0210316Y0349436D02*
X0210316Y0309436D01*
X0235116Y0309436D01*
X0235116Y0349836D01*
X0235116Y0348837D02*
X0210316Y0348837D01*
X0210316Y0347839D02*
X0235116Y0347839D01*
X0235116Y0346840D02*
X0210316Y0346840D01*
X0210316Y0345842D02*
X0235116Y0345842D01*
X0235116Y0344843D02*
X0210316Y0344843D01*
X0210316Y0343845D02*
X0235116Y0343845D01*
X0235116Y0342846D02*
X0210316Y0342846D01*
X0210316Y0341848D02*
X0235116Y0341848D01*
X0235116Y0340849D02*
X0210316Y0340849D01*
X0210316Y0339851D02*
X0235116Y0339851D01*
X0235116Y0338852D02*
X0210316Y0338852D01*
X0210316Y0337854D02*
X0235116Y0337854D01*
X0235116Y0336855D02*
X0210316Y0336855D01*
X0210316Y0335857D02*
X0235116Y0335857D01*
X0235116Y0334858D02*
X0210316Y0334858D01*
X0210316Y0333860D02*
X0235116Y0333860D01*
X0235116Y0332861D02*
X0210316Y0332861D01*
X0210316Y0331863D02*
X0235116Y0331863D01*
X0235116Y0330864D02*
X0210316Y0330864D01*
X0210316Y0329866D02*
X0235116Y0329866D01*
X0235116Y0328867D02*
X0210316Y0328867D01*
X0210316Y0327869D02*
X0235116Y0327869D01*
X0235116Y0326870D02*
X0210316Y0326870D01*
X0210316Y0325872D02*
X0235116Y0325872D01*
X0235116Y0324873D02*
X0210316Y0324873D01*
X0210316Y0323875D02*
X0235116Y0323875D01*
X0235116Y0322876D02*
X0210316Y0322876D01*
X0210316Y0321878D02*
X0235116Y0321878D01*
X0235116Y0320879D02*
X0210316Y0320879D01*
X0210316Y0319881D02*
X0235116Y0319881D01*
X0235116Y0318882D02*
X0210316Y0318882D01*
X0210316Y0317884D02*
X0235116Y0317884D01*
X0235116Y0316885D02*
X0210316Y0316885D01*
X0210316Y0315887D02*
X0235116Y0315887D01*
X0235116Y0314888D02*
X0210316Y0314888D01*
X0210316Y0313890D02*
X0235116Y0313890D01*
X0235116Y0312891D02*
X0210316Y0312891D01*
X0210316Y0311893D02*
X0235116Y0311893D01*
X0235116Y0310894D02*
X0210316Y0310894D01*
X0210316Y0309896D02*
X0235116Y0309896D01*
X0250316Y0309896D02*
X0275116Y0309896D01*
X0275116Y0309436D02*
X0275116Y0349836D01*
X0250331Y0349836D01*
X0250316Y0349436D02*
X0250376Y0351036D01*
X0250662Y0352610D01*
X0251168Y0354129D01*
X0251884Y0355560D01*
X0252795Y0356876D01*
X0253884Y0358050D01*
X0255127Y0359057D01*
X0256501Y0359879D01*
X0257977Y0360498D01*
X0259525Y0360902D01*
X0261116Y0361082D01*
X0262716Y0361036D01*
X0264401Y0361002D01*
X0266064Y0360727D01*
X0267672Y0360219D01*
X0269190Y0359487D01*
X0270590Y0358547D01*
X0271841Y0357417D01*
X0272918Y0356121D01*
X0273800Y0354684D01*
X0274469Y0353136D01*
X0274910Y0351509D01*
X0275116Y0349836D01*
X0275116Y0348837D02*
X0250316Y0348837D01*
X0250316Y0349436D02*
X0250316Y0309436D01*
X0275116Y0309436D01*
X0275116Y0310894D02*
X0250316Y0310894D01*
X0250316Y0311893D02*
X0275116Y0311893D01*
X0275116Y0312891D02*
X0250316Y0312891D01*
X0250316Y0313890D02*
X0275116Y0313890D01*
X0275116Y0314888D02*
X0250316Y0314888D01*
X0250316Y0315887D02*
X0275116Y0315887D01*
X0275116Y0316885D02*
X0250316Y0316885D01*
X0250316Y0317884D02*
X0275116Y0317884D01*
X0275116Y0318882D02*
X0250316Y0318882D01*
X0250316Y0319881D02*
X0275116Y0319881D01*
X0275116Y0320879D02*
X0250316Y0320879D01*
X0250316Y0321878D02*
X0275116Y0321878D01*
X0275116Y0322876D02*
X0250316Y0322876D01*
X0250316Y0323875D02*
X0275116Y0323875D01*
X0275116Y0324873D02*
X0250316Y0324873D01*
X0250316Y0325872D02*
X0275116Y0325872D01*
X0275116Y0326870D02*
X0250316Y0326870D01*
X0250316Y0327869D02*
X0275116Y0327869D01*
X0275116Y0328867D02*
X0250316Y0328867D01*
X0250316Y0329866D02*
X0275116Y0329866D01*
X0275116Y0330864D02*
X0250316Y0330864D01*
X0250316Y0331863D02*
X0275116Y0331863D01*
X0275116Y0332861D02*
X0250316Y0332861D01*
X0250316Y0333860D02*
X0275116Y0333860D01*
X0275116Y0334858D02*
X0250316Y0334858D01*
X0250316Y0335857D02*
X0275116Y0335857D01*
X0275116Y0336855D02*
X0250316Y0336855D01*
X0250316Y0337854D02*
X0275116Y0337854D01*
X0275116Y0338852D02*
X0250316Y0338852D01*
X0250316Y0339851D02*
X0275116Y0339851D01*
X0275116Y0340849D02*
X0250316Y0340849D01*
X0250316Y0341848D02*
X0275116Y0341848D01*
X0275116Y0342846D02*
X0250316Y0342846D01*
X0250316Y0343845D02*
X0275116Y0343845D01*
X0275116Y0344843D02*
X0250316Y0344843D01*
X0250316Y0345842D02*
X0275116Y0345842D01*
X0275116Y0346840D02*
X0250316Y0346840D01*
X0250316Y0347839D02*
X0275116Y0347839D01*
X0274993Y0350834D02*
X0250368Y0350834D01*
X0250521Y0351833D02*
X0274822Y0351833D01*
X0274551Y0352832D02*
X0250736Y0352832D01*
X0251069Y0353830D02*
X0274169Y0353830D01*
X0273711Y0354829D02*
X0251518Y0354829D01*
X0252069Y0355827D02*
X0273098Y0355827D01*
X0272332Y0356826D02*
X0252761Y0356826D01*
X0253675Y0357824D02*
X0271390Y0357824D01*
X0270179Y0358823D02*
X0254838Y0358823D01*
X0256404Y0359821D02*
X0268498Y0359821D01*
X0265504Y0360820D02*
X0259210Y0360820D01*
X0230179Y0358823D02*
X0214838Y0358823D01*
X0216404Y0359821D02*
X0228498Y0359821D01*
X0225504Y0360820D02*
X0219210Y0360820D01*
X0290376Y0351036D02*
X0290662Y0352610D01*
X0291168Y0354129D01*
X0291884Y0355560D01*
X0292795Y0356876D01*
X0293884Y0358050D01*
X0295127Y0359057D01*
X0296501Y0359879D01*
X0297977Y0360498D01*
X0299525Y0360902D01*
X0301116Y0361082D01*
X0302716Y0361036D01*
X0304401Y0361002D01*
X0306064Y0360727D01*
X0307672Y0360219D01*
X0309190Y0359487D01*
X0310590Y0358547D01*
X0311841Y0357417D01*
X0312918Y0356121D01*
X0313800Y0354684D01*
X0314469Y0353136D01*
X0314910Y0351509D01*
X0315116Y0349836D01*
X0290331Y0349836D01*
X0290316Y0349436D02*
X0290376Y0351036D01*
X0290368Y0350834D02*
X0314993Y0350834D01*
X0315116Y0349836D02*
X0315116Y0309436D01*
X0290316Y0309436D01*
X0290316Y0349436D01*
X0290316Y0348837D02*
X0315116Y0348837D01*
X0315116Y0347839D02*
X0290316Y0347839D01*
X0290316Y0346840D02*
X0315116Y0346840D01*
X0315116Y0345842D02*
X0290316Y0345842D01*
X0290316Y0344843D02*
X0315116Y0344843D01*
X0315116Y0343845D02*
X0290316Y0343845D01*
X0290316Y0342846D02*
X0315116Y0342846D01*
X0315116Y0341848D02*
X0290316Y0341848D01*
X0290316Y0340849D02*
X0315116Y0340849D01*
X0315116Y0339851D02*
X0290316Y0339851D01*
X0290316Y0338852D02*
X0315116Y0338852D01*
X0315116Y0337854D02*
X0290316Y0337854D01*
X0290316Y0336855D02*
X0315116Y0336855D01*
X0315116Y0335857D02*
X0290316Y0335857D01*
X0290316Y0334858D02*
X0315116Y0334858D01*
X0315116Y0333860D02*
X0290316Y0333860D01*
X0290316Y0332861D02*
X0315116Y0332861D01*
X0315116Y0331863D02*
X0290316Y0331863D01*
X0290316Y0330864D02*
X0315116Y0330864D01*
X0315116Y0329866D02*
X0290316Y0329866D01*
X0290316Y0328867D02*
X0315116Y0328867D01*
X0315116Y0327869D02*
X0290316Y0327869D01*
X0290316Y0326870D02*
X0315116Y0326870D01*
X0315116Y0325872D02*
X0290316Y0325872D01*
X0290316Y0324873D02*
X0315116Y0324873D01*
X0315116Y0323875D02*
X0290316Y0323875D01*
X0290316Y0322876D02*
X0315116Y0322876D01*
X0315116Y0321878D02*
X0290316Y0321878D01*
X0290316Y0320879D02*
X0315116Y0320879D01*
X0315116Y0319881D02*
X0290316Y0319881D01*
X0290316Y0318882D02*
X0315116Y0318882D01*
X0315116Y0317884D02*
X0290316Y0317884D01*
X0290316Y0316885D02*
X0315116Y0316885D01*
X0315116Y0315887D02*
X0290316Y0315887D01*
X0290316Y0314888D02*
X0315116Y0314888D01*
X0315116Y0313890D02*
X0290316Y0313890D01*
X0290316Y0312891D02*
X0315116Y0312891D01*
X0315116Y0311893D02*
X0290316Y0311893D01*
X0290316Y0310894D02*
X0315116Y0310894D01*
X0315116Y0309896D02*
X0290316Y0309896D01*
X0290521Y0351833D02*
X0314822Y0351833D01*
X0314551Y0352832D02*
X0290736Y0352832D01*
X0291069Y0353830D02*
X0314169Y0353830D01*
X0313711Y0354829D02*
X0291518Y0354829D01*
X0292069Y0355827D02*
X0313098Y0355827D01*
X0312332Y0356826D02*
X0292761Y0356826D01*
X0293675Y0357824D02*
X0311390Y0357824D01*
X0310179Y0358823D02*
X0294838Y0358823D01*
X0296404Y0359821D02*
X0308498Y0359821D01*
X0305504Y0360820D02*
X0299210Y0360820D01*
X0330662Y0352610D02*
X0331168Y0354129D01*
X0331884Y0355560D01*
X0332795Y0356876D01*
X0333884Y0358050D01*
X0335127Y0359057D01*
X0336501Y0359879D01*
X0337977Y0360498D01*
X0339525Y0360902D01*
X0341116Y0361082D01*
X0342716Y0361036D01*
X0344401Y0361002D01*
X0346064Y0360727D01*
X0347672Y0360219D01*
X0349190Y0359487D01*
X0350590Y0358547D01*
X0351841Y0357417D01*
X0352918Y0356121D01*
X0353800Y0354684D01*
X0354469Y0353136D01*
X0354910Y0351509D01*
X0355116Y0349836D01*
X0330331Y0349836D01*
X0330316Y0349436D02*
X0330376Y0351036D01*
X0330662Y0352610D01*
X0330736Y0352832D02*
X0354551Y0352832D01*
X0354822Y0351833D02*
X0330521Y0351833D01*
X0330368Y0350834D02*
X0354993Y0350834D01*
X0355116Y0349836D02*
X0355116Y0309436D01*
X0330316Y0309436D01*
X0330316Y0349436D01*
X0330316Y0348837D02*
X0355116Y0348837D01*
X0355116Y0347839D02*
X0330316Y0347839D01*
X0330316Y0346840D02*
X0355116Y0346840D01*
X0355116Y0345842D02*
X0330316Y0345842D01*
X0330316Y0344843D02*
X0355116Y0344843D01*
X0355116Y0343845D02*
X0330316Y0343845D01*
X0330316Y0342846D02*
X0355116Y0342846D01*
X0355116Y0341848D02*
X0330316Y0341848D01*
X0330316Y0340849D02*
X0355116Y0340849D01*
X0355116Y0339851D02*
X0330316Y0339851D01*
X0330316Y0338852D02*
X0355116Y0338852D01*
X0355116Y0337854D02*
X0330316Y0337854D01*
X0330316Y0336855D02*
X0355116Y0336855D01*
X0355116Y0335857D02*
X0330316Y0335857D01*
X0330316Y0334858D02*
X0355116Y0334858D01*
X0355116Y0333860D02*
X0330316Y0333860D01*
X0330316Y0332861D02*
X0355116Y0332861D01*
X0355116Y0331863D02*
X0330316Y0331863D01*
X0330316Y0330864D02*
X0355116Y0330864D01*
X0355116Y0329866D02*
X0330316Y0329866D01*
X0330316Y0328867D02*
X0355116Y0328867D01*
X0355116Y0327869D02*
X0330316Y0327869D01*
X0330316Y0326870D02*
X0355116Y0326870D01*
X0355116Y0325872D02*
X0330316Y0325872D01*
X0330316Y0324873D02*
X0355116Y0324873D01*
X0355116Y0323875D02*
X0330316Y0323875D01*
X0330316Y0322876D02*
X0355116Y0322876D01*
X0355116Y0321878D02*
X0330316Y0321878D01*
X0330316Y0320879D02*
X0355116Y0320879D01*
X0355116Y0319881D02*
X0330316Y0319881D01*
X0330316Y0318882D02*
X0355116Y0318882D01*
X0355116Y0317884D02*
X0330316Y0317884D01*
X0330316Y0316885D02*
X0355116Y0316885D01*
X0355116Y0315887D02*
X0330316Y0315887D01*
X0330316Y0314888D02*
X0355116Y0314888D01*
X0355116Y0313890D02*
X0330316Y0313890D01*
X0330316Y0312891D02*
X0355116Y0312891D01*
X0355116Y0311893D02*
X0330316Y0311893D01*
X0330316Y0310894D02*
X0355116Y0310894D01*
X0355116Y0309896D02*
X0330316Y0309896D01*
X0331069Y0353830D02*
X0354169Y0353830D01*
X0353711Y0354829D02*
X0331518Y0354829D01*
X0332069Y0355827D02*
X0353098Y0355827D01*
X0352332Y0356826D02*
X0332761Y0356826D01*
X0333675Y0357824D02*
X0351390Y0357824D01*
X0350179Y0358823D02*
X0334838Y0358823D01*
X0336404Y0359821D02*
X0348498Y0359821D01*
X0345504Y0360820D02*
X0339210Y0360820D01*
X0370662Y0352610D02*
X0371168Y0354129D01*
X0371884Y0355560D01*
X0372795Y0356876D01*
X0373884Y0358050D01*
X0375127Y0359057D01*
X0376501Y0359879D01*
X0377977Y0360498D01*
X0379525Y0360902D01*
X0381116Y0361082D01*
X0382716Y0361036D01*
X0384401Y0361002D01*
X0386064Y0360727D01*
X0387672Y0360219D01*
X0389190Y0359487D01*
X0390590Y0358547D01*
X0391841Y0357417D01*
X0392918Y0356121D01*
X0393800Y0354684D01*
X0394469Y0353136D01*
X0394910Y0351509D01*
X0395116Y0349836D01*
X0370331Y0349836D01*
X0370316Y0349436D02*
X0370376Y0351036D01*
X0370662Y0352610D01*
X0370736Y0352832D02*
X0394551Y0352832D01*
X0394822Y0351833D02*
X0370521Y0351833D01*
X0370368Y0350834D02*
X0394993Y0350834D01*
X0395116Y0349836D02*
X0395116Y0309436D01*
X0370316Y0309436D01*
X0370316Y0349436D01*
X0370316Y0348837D02*
X0395116Y0348837D01*
X0395116Y0347839D02*
X0370316Y0347839D01*
X0370316Y0346840D02*
X0395116Y0346840D01*
X0395116Y0345842D02*
X0370316Y0345842D01*
X0370316Y0344843D02*
X0395116Y0344843D01*
X0395116Y0343845D02*
X0370316Y0343845D01*
X0370316Y0342846D02*
X0395116Y0342846D01*
X0395116Y0341848D02*
X0370316Y0341848D01*
X0370316Y0340849D02*
X0395116Y0340849D01*
X0395116Y0339851D02*
X0370316Y0339851D01*
X0370316Y0338852D02*
X0395116Y0338852D01*
X0395116Y0337854D02*
X0370316Y0337854D01*
X0370316Y0336855D02*
X0395116Y0336855D01*
X0395116Y0335857D02*
X0370316Y0335857D01*
X0370316Y0334858D02*
X0395116Y0334858D01*
X0395116Y0333860D02*
X0370316Y0333860D01*
X0370316Y0332861D02*
X0395116Y0332861D01*
X0395116Y0331863D02*
X0370316Y0331863D01*
X0370316Y0330864D02*
X0395116Y0330864D01*
X0395116Y0329866D02*
X0370316Y0329866D01*
X0370316Y0328867D02*
X0395116Y0328867D01*
X0395116Y0327869D02*
X0370316Y0327869D01*
X0370316Y0326870D02*
X0395116Y0326870D01*
X0395116Y0325872D02*
X0370316Y0325872D01*
X0370316Y0324873D02*
X0395116Y0324873D01*
X0395116Y0323875D02*
X0370316Y0323875D01*
X0370316Y0322876D02*
X0395116Y0322876D01*
X0395116Y0321878D02*
X0370316Y0321878D01*
X0370316Y0320879D02*
X0395116Y0320879D01*
X0395116Y0319881D02*
X0370316Y0319881D01*
X0370316Y0318882D02*
X0395116Y0318882D01*
X0395116Y0317884D02*
X0370316Y0317884D01*
X0370316Y0316885D02*
X0395116Y0316885D01*
X0395116Y0315887D02*
X0370316Y0315887D01*
X0370316Y0314888D02*
X0395116Y0314888D01*
X0395116Y0313890D02*
X0370316Y0313890D01*
X0370316Y0312891D02*
X0395116Y0312891D01*
X0395116Y0311893D02*
X0370316Y0311893D01*
X0370316Y0310894D02*
X0395116Y0310894D01*
X0395116Y0309896D02*
X0370316Y0309896D01*
X0371069Y0353830D02*
X0394169Y0353830D01*
X0393711Y0354829D02*
X0371518Y0354829D01*
X0372069Y0355827D02*
X0393098Y0355827D01*
X0392332Y0356826D02*
X0372761Y0356826D01*
X0373675Y0357824D02*
X0391390Y0357824D01*
X0390179Y0358823D02*
X0374838Y0358823D01*
X0376404Y0359821D02*
X0388498Y0359821D01*
X0385504Y0360820D02*
X0379210Y0360820D01*
X0434873Y0383521D02*
X0434254Y0384997D01*
X0433850Y0386546D01*
X0433669Y0388136D01*
X0433716Y0389736D01*
X0433750Y0391422D01*
X0434025Y0393085D01*
X0434533Y0394692D01*
X0435264Y0396211D01*
X0436205Y0397610D01*
X0437335Y0398861D01*
X0438631Y0399939D01*
X0440068Y0400821D01*
X0441615Y0401489D01*
X0443242Y0401931D01*
X0444916Y0402136D01*
X0485316Y0402136D01*
X0485316Y0377336D01*
X0445316Y0377336D01*
X0443716Y0377397D01*
X0442141Y0377683D01*
X0440623Y0378189D01*
X0439192Y0378905D01*
X0437876Y0379816D01*
X0436702Y0380904D01*
X0435695Y0382148D01*
X0434873Y0383521D01*
X0434762Y0383785D02*
X0485316Y0383785D01*
X0485316Y0382787D02*
X0435312Y0382787D01*
X0435986Y0381788D02*
X0485316Y0381788D01*
X0485316Y0380790D02*
X0436826Y0380790D01*
X0437912Y0379791D02*
X0485316Y0379791D01*
X0485316Y0378793D02*
X0439415Y0378793D01*
X0441807Y0377794D02*
X0485316Y0377794D01*
X0485316Y0384784D02*
X0434343Y0384784D01*
X0434049Y0385782D02*
X0485316Y0385782D01*
X0485316Y0386781D02*
X0433823Y0386781D01*
X0433710Y0387779D02*
X0485316Y0387779D01*
X0485316Y0388778D02*
X0433688Y0388778D01*
X0433716Y0389776D02*
X0485316Y0389776D01*
X0485316Y0390775D02*
X0433737Y0390775D01*
X0433808Y0391773D02*
X0485316Y0391773D01*
X0485316Y0392772D02*
X0433973Y0392772D01*
X0434241Y0393770D02*
X0485316Y0393770D01*
X0485316Y0394769D02*
X0434570Y0394769D01*
X0435051Y0395768D02*
X0485316Y0395768D01*
X0485316Y0396766D02*
X0435637Y0396766D01*
X0436344Y0397765D02*
X0485316Y0397765D01*
X0485316Y0398763D02*
X0437246Y0398763D01*
X0438418Y0399762D02*
X0485316Y0399762D01*
X0485316Y0400760D02*
X0439969Y0400760D01*
X0442608Y0401759D02*
X0485316Y0401759D01*
X0485316Y0412336D02*
X0445316Y0412336D01*
X0443716Y0412397D01*
X0442141Y0412683D01*
X0440623Y0413189D01*
X0439192Y0413905D01*
X0437876Y0414816D01*
X0436702Y0415904D01*
X0435695Y0417148D01*
X0434873Y0418521D01*
X0434254Y0419997D01*
X0433850Y0421546D01*
X0433669Y0423136D01*
X0433716Y0424736D01*
X0433750Y0426422D01*
X0434025Y0428085D01*
X0434533Y0429692D01*
X0435264Y0431211D01*
X0436205Y0432610D01*
X0437335Y0433861D01*
X0438631Y0434939D01*
X0440068Y0435821D01*
X0441615Y0436489D01*
X0443242Y0436931D01*
X0444916Y0437136D01*
X0485316Y0437136D01*
X0485316Y0412336D01*
X0485316Y0412742D02*
X0441963Y0412742D01*
X0439520Y0413741D02*
X0485316Y0413741D01*
X0485316Y0414739D02*
X0437987Y0414739D01*
X0436882Y0415738D02*
X0485316Y0415738D01*
X0485316Y0416736D02*
X0436028Y0416736D01*
X0435343Y0417735D02*
X0485316Y0417735D01*
X0485316Y0418733D02*
X0434784Y0418733D01*
X0434365Y0419732D02*
X0485316Y0419732D01*
X0485316Y0420730D02*
X0434063Y0420730D01*
X0433829Y0421729D02*
X0485316Y0421729D01*
X0485316Y0422727D02*
X0433716Y0422727D01*
X0433686Y0423726D02*
X0485316Y0423726D01*
X0485316Y0424724D02*
X0433715Y0424724D01*
X0433736Y0425723D02*
X0485316Y0425723D01*
X0485316Y0426721D02*
X0433800Y0426721D01*
X0433964Y0427720D02*
X0485316Y0427720D01*
X0485316Y0428718D02*
X0434225Y0428718D01*
X0434545Y0429717D02*
X0485316Y0429717D01*
X0485316Y0430715D02*
X0435026Y0430715D01*
X0435602Y0431714D02*
X0485316Y0431714D01*
X0485316Y0432712D02*
X0436297Y0432712D01*
X0437199Y0433711D02*
X0485316Y0433711D01*
X0485316Y0434709D02*
X0438356Y0434709D01*
X0439884Y0435708D02*
X0485316Y0435708D01*
X0485316Y0436706D02*
X0442416Y0436706D01*
X0443697Y0447160D02*
X0442122Y0447447D01*
X0440603Y0447953D01*
X0439172Y0448669D01*
X0437856Y0449580D01*
X0436683Y0450668D01*
X0435675Y0451912D01*
X0434853Y0453285D01*
X0434234Y0454761D01*
X0433830Y0456310D01*
X0433650Y0457900D01*
X0433696Y0459500D01*
X0433731Y0461185D01*
X0434005Y0462849D01*
X0434513Y0464456D01*
X0435245Y0465975D01*
X0436185Y0467374D01*
X0437315Y0468625D01*
X0438612Y0469702D01*
X0440048Y0470584D01*
X0441596Y0471253D01*
X0443223Y0471695D01*
X0444896Y0471900D01*
X0485296Y0471900D01*
X0485296Y0447100D01*
X0445296Y0447100D01*
X0443697Y0447160D01*
X0441391Y0447690D02*
X0485296Y0447690D01*
X0485296Y0448689D02*
X0439143Y0448689D01*
X0437740Y0449687D02*
X0485296Y0449687D01*
X0485296Y0450686D02*
X0436668Y0450686D01*
X0435859Y0451684D02*
X0485296Y0451684D01*
X0485296Y0452683D02*
X0435214Y0452683D01*
X0434687Y0453681D02*
X0485296Y0453681D01*
X0485296Y0454680D02*
X0434268Y0454680D01*
X0433995Y0455678D02*
X0485296Y0455678D01*
X0485296Y0456677D02*
X0433789Y0456677D01*
X0433675Y0457675D02*
X0485296Y0457675D01*
X0485296Y0458674D02*
X0433672Y0458674D01*
X0433699Y0459672D02*
X0485296Y0459672D01*
X0485296Y0460671D02*
X0433720Y0460671D01*
X0433810Y0461669D02*
X0485296Y0461669D01*
X0485296Y0462668D02*
X0433975Y0462668D01*
X0434263Y0463666D02*
X0485296Y0463666D01*
X0485296Y0464665D02*
X0434614Y0464665D01*
X0435095Y0465663D02*
X0485296Y0465663D01*
X0485296Y0466662D02*
X0435707Y0466662D01*
X0436444Y0467660D02*
X0485296Y0467660D01*
X0485296Y0468659D02*
X0437356Y0468659D01*
X0438557Y0469657D02*
X0485296Y0469657D01*
X0485296Y0470656D02*
X0440214Y0470656D01*
X0443075Y0471654D02*
X0485296Y0471654D01*
X0485316Y0482336D02*
X0445316Y0482336D01*
X0443716Y0482397D01*
X0442141Y0482683D01*
X0440623Y0483189D01*
X0439192Y0483905D01*
X0437876Y0484816D01*
X0436702Y0485904D01*
X0435695Y0487148D01*
X0434873Y0488521D01*
X0434254Y0489997D01*
X0433850Y0491546D01*
X0433669Y0493136D01*
X0433716Y0494736D01*
X0433750Y0496422D01*
X0434025Y0498085D01*
X0434533Y0499692D01*
X0435264Y0501211D01*
X0436205Y0502610D01*
X0437335Y0503861D01*
X0438631Y0504939D01*
X0440068Y0505821D01*
X0441615Y0506489D01*
X0443242Y0506931D01*
X0444916Y0507136D01*
X0485316Y0507136D01*
X0485316Y0482336D01*
X0485316Y0482638D02*
X0442388Y0482638D01*
X0439728Y0483637D02*
X0485316Y0483637D01*
X0485316Y0484635D02*
X0438137Y0484635D01*
X0436994Y0485634D02*
X0485316Y0485634D01*
X0485316Y0486632D02*
X0436113Y0486632D01*
X0435406Y0487631D02*
X0485316Y0487631D01*
X0485316Y0488629D02*
X0434828Y0488629D01*
X0434409Y0489628D02*
X0485316Y0489628D01*
X0485316Y0490626D02*
X0434090Y0490626D01*
X0433841Y0491625D02*
X0485316Y0491625D01*
X0485316Y0492623D02*
X0433728Y0492623D01*
X0433683Y0493622D02*
X0485316Y0493622D01*
X0485316Y0494620D02*
X0433712Y0494620D01*
X0433734Y0495619D02*
X0485316Y0495619D01*
X0485316Y0496617D02*
X0433783Y0496617D01*
X0433947Y0497616D02*
X0485316Y0497616D01*
X0485316Y0498614D02*
X0434192Y0498614D01*
X0434508Y0499613D02*
X0485316Y0499613D01*
X0485316Y0500611D02*
X0434975Y0500611D01*
X0435532Y0501610D02*
X0485316Y0501610D01*
X0485316Y0502608D02*
X0436204Y0502608D01*
X0437105Y0503607D02*
X0485316Y0503607D01*
X0485316Y0504605D02*
X0438230Y0504605D01*
X0439715Y0505604D02*
X0485316Y0505604D01*
X0485316Y0506602D02*
X0442032Y0506602D01*
X0443716Y0517397D02*
X0442141Y0517683D01*
X0440623Y0518189D01*
X0439192Y0518905D01*
X0437876Y0519816D01*
X0436702Y0520904D01*
X0435695Y0522148D01*
X0434873Y0523521D01*
X0434254Y0524997D01*
X0433850Y0526546D01*
X0433669Y0528136D01*
X0433716Y0529736D01*
X0433750Y0531422D01*
X0434025Y0533085D01*
X0434533Y0534692D01*
X0435264Y0536211D01*
X0436205Y0537610D01*
X0437335Y0538861D01*
X0438631Y0539939D01*
X0440068Y0540821D01*
X0441615Y0541489D01*
X0443242Y0541931D01*
X0444916Y0542136D01*
X0485316Y0542136D01*
X0485316Y0517336D01*
X0445316Y0517336D01*
X0443716Y0517397D01*
X0442675Y0517586D02*
X0485316Y0517586D01*
X0485316Y0518584D02*
X0439832Y0518584D01*
X0438212Y0519583D02*
X0485316Y0519583D01*
X0485316Y0520581D02*
X0437051Y0520581D01*
X0436155Y0521580D02*
X0485316Y0521580D01*
X0485316Y0522578D02*
X0435437Y0522578D01*
X0434850Y0523577D02*
X0485316Y0523577D01*
X0485316Y0524575D02*
X0434431Y0524575D01*
X0434104Y0525574D02*
X0485316Y0525574D01*
X0485316Y0526572D02*
X0433847Y0526572D01*
X0433734Y0527571D02*
X0485316Y0527571D01*
X0485316Y0528570D02*
X0433682Y0528570D01*
X0433711Y0529568D02*
X0485316Y0529568D01*
X0485316Y0530567D02*
X0433733Y0530567D01*
X0433774Y0531565D02*
X0485316Y0531565D01*
X0485316Y0532564D02*
X0433939Y0532564D01*
X0434175Y0533562D02*
X0485316Y0533562D01*
X0485316Y0534561D02*
X0434491Y0534561D01*
X0434950Y0535559D02*
X0485316Y0535559D01*
X0485316Y0536558D02*
X0435497Y0536558D01*
X0436169Y0537556D02*
X0485316Y0537556D01*
X0485316Y0538555D02*
X0437058Y0538555D01*
X0438167Y0539553D02*
X0485316Y0539553D01*
X0485316Y0540552D02*
X0439630Y0540552D01*
X0441840Y0541550D02*
X0485316Y0541550D01*
D14*
X0070224Y0349991D03*
X0046011Y0325778D03*
D15*
X0102616Y0330542D03*
X0102616Y0318731D03*
X0395440Y0486900D03*
X0407251Y0486900D03*
D16*
X0431780Y0342091D03*
D17*
X0444291Y0356900D03*
X0460602Y0342191D03*
D18*
X0477595Y0571900D03*
X0047595Y0571900D03*
M02*
